<svg width="196" height="54" viewBox="0 0 196 54" fill="none" xmlns="http://www.w3.org/2000/svg">
<path d="M170.71 28.8091V36.0393H166.924V18.3867H173.657C175.893 18.3867 177.01 19.5872 177.01 21.9882V24.0344C177.01 25.4896 176.496 26.4172 175.469 26.8174C176.37 27.1448 176.821 27.8905 176.821 29.0546V36.0393H173.035V29.3548C173.035 28.991 172.864 28.8091 172.521 28.8091H170.71ZM170.71 20.9787V26.1353H172.711C172.855 26.1353 172.972 26.0807 173.062 25.9716C173.17 25.8624 173.224 25.7351 173.224 25.5896V21.5243C173.224 21.3788 173.17 21.2515 173.062 21.1424C172.972 21.0332 172.855 20.9787 172.711 20.9787H170.71Z" fill="#38322D"/>
<path d="M158.11 32.8744H162.301V36.0393H154.324V18.3867H162.301V21.4971H158.11V25.6442H162.031V28.6454H158.11V32.8744Z" fill="#38322D"/>
<path d="M140.697 21.6335V18.3867H150.162V21.6335H147.322V36.0393H143.537V21.6335H140.697Z" fill="#38322D"/>
<path d="M136.587 23.0243H132.99V21.6329C132.99 21.4874 132.936 21.36 132.828 21.2509C132.738 21.1418 132.621 21.0872 132.476 21.0872H130.989C130.845 21.0872 130.719 21.1418 130.611 21.2509C130.52 21.36 130.475 21.4874 130.475 21.6329V24.7705C130.475 24.916 130.52 25.0433 130.611 25.1525C130.719 25.2616 130.845 25.3162 130.989 25.3162H133.423C135.658 25.3526 136.776 26.553 136.776 28.9176V32.71C136.776 35.111 135.658 36.3115 133.423 36.3115H130.232C127.997 36.3115 126.879 35.111 126.879 32.71V30.882H130.475V32.8465C130.475 32.992 130.52 33.1193 130.611 33.2284C130.719 33.3376 130.845 33.3921 130.989 33.3921H132.666C132.81 33.3921 132.927 33.3376 133.017 33.2284C133.125 33.1193 133.18 32.992 133.18 32.8465V29.3814C133.18 29.2359 133.125 29.1086 133.017 28.9995C132.927 28.8903 132.81 28.8358 132.666 28.8358H130.232C127.997 28.8358 126.879 27.6353 126.879 25.2343V21.7147C126.879 19.3138 127.997 18.1133 130.232 18.1133H133.234C135.469 18.1133 136.587 19.3138 136.587 21.7147V23.0243Z" fill="#38322D"/>
<path d="M118.069 18.3867H121.854V32.7107C121.854 35.1116 120.737 36.3121 118.501 36.3121H115.148C112.913 36.3121 111.795 35.1116 111.795 32.7107V18.3867H115.581V33.0381C115.581 33.1836 115.626 33.3109 115.716 33.42C115.824 33.5292 115.95 33.5837 116.094 33.5837H117.555C117.699 33.5837 117.816 33.5292 117.906 33.42C118.014 33.3109 118.069 33.1836 118.069 33.0381V18.3867Z" fill="#38322D"/>
<path d="M105.047 26.3808C106.219 26.7992 106.805 27.7632 106.805 29.2729V32.4378C106.805 34.8388 105.687 36.0393 103.452 36.0393H96.502V18.3867H103.235C105.471 18.3867 106.588 19.5872 106.588 21.9882V23.5979C106.588 25.053 106.075 25.9807 105.047 26.3808ZM102.289 20.9787H100.288V25.6987H102.289C102.433 25.6987 102.55 25.6442 102.64 25.535C102.748 25.4259 102.803 25.2986 102.803 25.1531V21.5243C102.803 21.3788 102.748 21.2515 102.64 21.1424C102.55 21.0332 102.433 20.9787 102.289 20.9787ZM103.019 32.8744V28.9182C103.019 28.7727 102.965 28.6454 102.857 28.5362C102.767 28.4271 102.649 28.3725 102.505 28.3725H100.288V33.42H102.505C102.649 33.42 102.767 33.3655 102.857 33.2563C102.965 33.1472 103.019 33.0199 103.019 32.8744Z" fill="#38322D"/>
<path d="M78.9186 36.0387H75.1328V21.7147C75.1328 19.3138 76.2505 18.1133 78.4859 18.1133H80.487C81.803 18.1133 82.7404 18.5498 83.2993 19.4229C83.8221 18.5498 84.7595 18.1133 86.1116 18.1133H88.1126C90.3481 18.1133 91.4658 19.3138 91.4658 21.7147V36.0387H87.68V21.3873C87.68 21.2418 87.6259 21.1145 87.5177 21.0054C87.4276 20.8962 87.3104 20.8416 87.1662 20.8416H85.706C85.5617 20.8416 85.4355 20.8962 85.3274 21.0054C85.2372 21.1145 85.1922 21.2418 85.1922 21.3873V36.0387H81.4064V21.3873C81.4064 21.2418 81.3523 21.1145 81.2441 21.0054C81.154 20.8962 81.0368 20.8416 80.8926 20.8416H79.4324C79.2882 20.8416 79.162 20.8962 79.0538 21.0054C78.9637 21.1145 78.9186 21.2418 78.9186 21.3873V36.0387Z" fill="#38322D"/>
<path d="M66.5512 18.1133C68.7866 18.1133 69.9043 19.3138 69.9043 21.7147V36.0387H66.1185V30.1181H63.3873V36.0387H59.6016V21.7147C59.6016 19.3138 60.7193 18.1133 62.9547 18.1133H66.5512ZM63.3873 27.1715H66.1185V21.2509C66.1185 21.1054 66.0644 20.9781 65.9563 20.8689C65.8661 20.7598 65.749 20.7052 65.6047 20.7052H63.9011C63.7569 20.7052 63.6307 20.7598 63.5226 20.8689C63.4324 20.9781 63.3873 21.1054 63.3873 21.2509V27.1715Z" fill="#38322D"/>
<path d="M51.3002 33.1466V30.4182H54.8967V32.71C54.8967 35.111 53.7789 36.3115 51.5435 36.3115H48.1363C45.9009 36.3115 44.7832 35.111 44.7832 32.71V21.7147C44.7832 19.3138 45.9009 18.1133 48.1363 18.1133H51.5435C53.7789 18.1133 54.8967 19.3138 54.8967 21.7147V23.379H51.3002V21.2509C51.3002 21.1054 51.2461 20.9781 51.1379 20.8689C51.0478 20.7598 50.9306 20.7052 50.7864 20.7052H49.0828C48.9386 20.7052 48.8124 20.7598 48.7042 20.8689C48.6141 20.9781 48.569 21.1054 48.569 21.2509V33.1466C48.569 33.2921 48.6141 33.4194 48.7042 33.5286C48.8124 33.6377 48.9386 33.6923 49.0828 33.6923H50.7864C50.9306 33.6923 51.0478 33.6377 51.1379 33.5286C51.2461 33.4194 51.3002 33.2921 51.3002 33.1466Z" fill="#38322D"/>
<path d="M17.9718 21.1366C18.1014 20.475 18.3559 19.8455 18.7253 19.2852L39.3678 37.3379C37.9365 38.824 36.2189 40.0015 34.3252 40.7964C32.4291 41.5888 30.3934 41.9838 28.3407 41.9517C24.4994 41.7888 20.8662 40.1373 18.192 37.3379L24.0713 32.0774L27.822 35.6617C27.778 35.7975 27.7535 35.9432 27.7535 36.0937C27.7535 36.8763 28.3798 37.5107 29.1554 37.5107C29.931 37.5107 30.5598 36.8763 30.5598 36.0937C30.5598 35.3112 29.931 34.6792 29.1554 34.6792C29.0845 34.6792 29.016 34.6842 28.9499 34.6965L18.9749 25.1653C18.488 24.5803 18.1455 23.8866 17.9767 23.1361C17.8445 22.477 17.8445 21.7957 17.9718 21.1366Z" fill="url(#paint0_linear_4081_31720)"/>
<path d="M39.3569 32.8794C39.2273 33.541 38.9728 34.1705 38.6034 34.7308L17.9609 16.6781C19.3922 15.192 21.1098 14.0145 23.0035 13.2196C24.8996 12.4272 26.9353 12.0322 28.988 12.0643C32.8293 12.2272 36.4625 13.8787 39.1367 16.6781L33.2574 21.9386L29.5067 18.3543C29.5507 18.2185 29.5752 18.0728 29.5752 17.9223C29.5752 17.1397 28.9489 16.5053 28.1733 16.5053C27.3977 16.5053 26.7689 17.1397 26.7689 17.9223C26.7689 18.7048 27.3977 19.3368 28.1733 19.3368C28.2442 19.3368 28.3127 19.3318 28.3788 19.3195L38.3538 28.8507C38.8407 29.4357 39.1832 30.1294 39.352 30.8799C39.4842 31.539 39.4842 32.2203 39.3569 32.8794Z" fill="url(#paint1_linear_4081_31720)"/>
<defs>
<linearGradient id="paint0_linear_4081_31720" x1="29.5717" y1="41.9535" x2="27.6391" y2="19.2881" gradientUnits="userSpaceOnUse">
<stop stop-color="#24201C"/>
<stop offset="1" stop-color="#615751"/>
</linearGradient>
<linearGradient id="paint1_linear_4081_31720" x1="28.7063" y1="12.0625" x2="28.7063" y2="34.7308" gradientUnits="userSpaceOnUse">
<stop stop-color="#F6AB79"/>
<stop offset="1" stop-color="#E36E2A"/>
</linearGradient>
</defs>
</svg>
