<svg width="250" height="251" viewBox="0 0 250 251" fill="none" xmlns="http://www.w3.org/2000/svg">
<path d="M210.3 72.5703H137.75C133.2 72.5703 129.5 76.8203 129.5 82.1203V129.37C129.5 134.62 133.2 138.92 137.75 138.92L182.6 139.02C184.8 143.62 185 144.57 187.1 148.52C187.95 150.17 190.05 150.02 190.75 148.27L196.45 139.02L210.3 138.92C214.85 138.92 218.55 134.67 218.55 129.37V82.1203C218.5 76.8203 214.85 72.5703 210.3 72.5703Z" fill="white"/>
<path d="M210.05 71.9199H137.75C136.25 71.9199 134.8 72.2699 133.5 72.9199C130.85 74.2699 129.1 76.9199 128.55 79.7699C128.2 81.5699 128.35 83.5699 128.35 85.3699V128.02C128.35 128.42 128.35 128.77 128.35 129.17C128.3 132.22 129.6 135.17 131.85 137.22C133.6 138.72 135.85 139.57 138.15 139.52H139.95H148.85L161.4 139.57L173.75 139.62H181.75H182.9L181.45 138.97C182.55 141.27 183.55 143.62 184.65 145.92C184.9 146.47 185.2 147.02 185.5 147.57C185.8 148.27 186.2 148.87 186.7 149.42C187.8 150.32 189.25 150.52 190.55 149.97C191.65 149.47 192.25 148.07 192.9 147.02L195.65 142.52L197.65 139.27L196.7 139.57L204.45 139.52L209.15 139.47C210.3 139.52 211.45 139.42 212.6 139.22C217.1 138.17 219.75 133.82 219.8 129.37C219.8 128.07 219.8 126.77 219.8 125.42V86.7699C219.8 85.3199 219.8 83.8199 219.8 82.3699C219.8 78.3199 217.8 74.3199 213.95 72.6199C212.7 72.1699 211.4 71.9199 210.05 71.9199C209.65 71.9199 208.95 72.0699 209.05 72.5699C209.15 73.0699 210.1 73.2199 210.5 73.2199C213.2 73.2699 215.4 75.4699 216.45 77.9199C217 79.3199 217.3 80.8199 217.25 82.3699V125.12C217.25 126.77 217.35 128.47 217.2 130.12C216.95 133.12 215.4 136.12 212.65 137.57C211.3 138.27 209.95 138.22 208.5 138.27L196.95 138.37C196.5 138.37 195.75 138.32 195.4 138.57C195.1 138.87 194.85 139.27 194.65 139.67L191.45 144.87L190.05 147.12C189.8 147.62 189.5 148.07 189.25 148.52C189.05 148.72 188.85 148.87 188.65 148.97C188.6 149.02 188.5 148.92 188.55 148.97C188.65 148.97 188.75 149.02 188.85 149.02C188.85 149.02 188.8 149.02 188.75 148.97C188.3 148.37 187.9 147.72 187.55 147.02C186.95 145.82 186.4 144.62 185.85 143.42C185.2 141.92 184.5 140.47 183.8 138.97C183.55 138.47 182.85 138.32 182.35 138.32H178L167.45 138.27L154.65 138.22L143.45 138.17C141.55 138.17 139.6 138.17 137.7 138.17C133.4 138.17 130.85 133.37 130.8 129.42C130.8 127.82 130.8 126.22 130.8 124.57V82.7699C130.8 81.7199 130.85 80.6699 131.1 79.6199C131.75 76.9199 133.6 74.3199 136.25 73.4199C137.5 72.9699 138.95 73.1199 140.25 73.1199H210.55C210.95 73.1199 211.65 72.9699 211.55 72.4699C211.45 71.9699 210.45 71.9199 210.05 71.9199Z" fill="#38322D"/>
<path d="M142.949 95.6699C145.849 95.6699 148.199 93.3194 148.199 90.4199C148.199 87.5204 145.849 85.1699 142.949 85.1699C140.05 85.1699 137.699 87.5204 137.699 90.4199C137.699 93.3194 140.05 95.6699 142.949 95.6699Z" fill="#F87171"/>
<path d="M147.6 90.6191C147.6 92.5691 146.4 94.3191 144.5 94.9691C142.55 95.5191 140.45 94.8191 139.25 93.2191C138.05 91.6191 137.9 89.4691 138.95 87.7191C139.95 86.0691 141.95 85.2691 143.85 85.7691C146.05 86.3191 147.6 88.3191 147.6 90.6191C147.6 91.1191 148.75 90.6691 148.75 90.1691C148.7 87.8191 147.2 85.7191 144.95 84.9691C142.6 84.2691 140 85.0691 138.45 86.9691C136.5 89.3191 136.75 92.8191 139.1 94.7691C140.45 95.9191 142.3 96.3691 144.05 95.9191C146.75 95.3191 148.7 92.9191 148.75 90.1691C148.75 89.6691 147.6 90.1191 147.6 90.6191Z" fill="#F87171"/>
<path d="M144.65 90.0698C144.65 90.4198 144.55 90.7698 144.35 91.1198L144.25 91.2198C144.25 91.2198 144.15 91.3198 144.2 91.2698C144.15 91.3198 144.05 91.4198 143.95 91.4698L143.8 91.5698L143.65 91.6198C143.3 91.7198 142.9 91.7198 142.6 91.5698C142.25 91.4198 141.9 91.2198 141.65 90.8698C141.15 90.2198 141.1 89.3698 141.5 88.6698C141.55 88.6198 141.6 88.5698 141.65 88.4698L141.7 88.4198C141.65 88.4698 141.8 88.3198 141.75 88.3698L141.85 88.2698C141.95 88.2198 141.75 88.3198 141.9 88.2698L142 88.2198C142.05 88.1698 142.05 88.1698 142 88.2198L142.1 88.1698C142.2 88.1198 142.35 88.0698 142.5 88.0698C142.7 88.0698 142.9 88.0698 143.1 88.1198C144 88.3198 144.65 89.1198 144.65 90.0698C144.65 90.3698 145.1 90.3198 145.25 90.2198C145.5 90.1198 145.7 89.8698 145.75 89.6198C145.75 88.5198 145 87.5698 143.95 87.2198C142.75 86.8698 141.45 87.3198 140.65 88.2698C139.7 89.3198 139.8 90.9698 140.85 91.9198C141.5 92.5198 142.45 92.7198 143.3 92.4698C144.7 92.1698 145.7 90.9698 145.75 89.5698C145.75 89.2698 145.3 89.3198 145.15 89.3698C144.85 89.5198 144.65 89.7698 144.65 90.0698Z" fill="white"/>
<path d="M140.4 94.8694C140.4 94.8194 140.4 94.8194 140.4 94.7694C140.35 94.9694 140.45 94.6694 140.45 94.6194C140.55 94.3194 140.65 94.0694 140.8 93.8194C141.1 93.1194 141.55 92.4694 142.1 91.9694C142.35 91.7694 142.6 91.6194 142.9 91.5194C143.25 91.4694 143.65 91.5194 144 91.6694C144.65 92.0694 145.15 92.6194 145.45 93.3194C145.6 93.6194 145.75 93.9694 145.85 94.2694C145.8 94.1694 145.85 94.3194 145.9 94.3694C145.95 94.4194 145.9 94.4694 145.95 94.5194C146 94.5694 145.95 94.6194 146 94.6694C146.15 95.3194 147.3 94.8694 147.2 94.3194C146.9 92.9694 146.15 91.4694 144.9 90.8194C143.95 90.3694 142.85 90.4194 142 90.9694C141.15 91.5194 140.45 92.3194 140.05 93.2694C139.75 93.8194 139.5 94.4194 139.35 95.0194C139.25 95.3194 139.6 95.4694 139.85 95.4694C140 95.3694 140.3 95.1694 140.4 94.8694Z" fill="white"/>
<path d="M154.8 87.0708C153.8 87.1708 153.5 88.2708 153.75 89.1208C154.15 90.4208 155.05 91.4208 156.3 91.9208C157.5 92.2708 158.8 92.2708 160.05 91.9208C161.1 91.6208 162.25 91.0208 162.05 89.7208C161.85 88.6208 160.7 86.9708 159.4 87.2708C158.4 87.5208 158 88.6208 158.15 89.5708C158.45 90.8708 159.3 92.0208 160.5 92.6708C161.6 93.1708 162.9 93.1208 163.9 92.4708C165.15 91.7708 166.2 90.7208 166.9 89.4708C167.3 88.9208 167.55 88.2708 167.7 87.6208C167.8 86.8208 167.3 86.0208 166.8 85.4708C166.7 85.3708 166.2 84.7208 166 84.9208C164.6 86.0708 164.75 88.0208 165.45 89.5208C166.3 91.3208 167.95 92.8708 170.1 92.6708C171 92.5708 171.85 92.2208 172.55 91.6708C172.9 91.4208 173.2 91.1208 173.4 90.7708C173.65 90.2208 173.05 89.4208 172.7 89.0208C172.25 88.4708 171.2 87.6208 170.7 88.5708C170.15 89.6208 171.25 91.0208 171.95 91.7208C172.9 92.5208 174.05 93.0708 175.3 93.3208C176.4 93.5708 177.7 93.3708 178.4 92.3708L178 92.2208C179.3 93.2208 181.3 92.9708 182 91.3708C182.25 90.8208 180.65 89.0708 180.45 89.5208C180 90.5708 178.4 91.2708 177.4 90.5208C177.4 90.5208 177.05 90.2708 177 90.3708C176.25 91.4708 174.85 91.5208 173.7 91.1708C173.05 90.9708 172.5 90.6208 171.9 90.3708C171.65 90.1708 171.65 90.2708 171.95 90.6208C172.1 91.0208 172.2 91.0708 172.2 90.8708L172.35 90.4708C172.4 90.4208 172.5 90.3708 172.6 90.3208C172.95 90.2208 173 90.5708 172.6 90.0208L172.05 89.2208L171.95 89.0208L172 88.7708C170.95 90.2708 168.85 91.1708 167.1 90.3708C167.05 90.3708 166.65 90.0708 166.6 90.0708C166.55 90.0708 166.7 90.0708 166.7 90.2208C166.65 90.0708 166.6 89.9208 166.55 89.8208C166.5 89.6208 166.5 89.4208 166.5 89.2208C166.45 88.3708 166.8 87.5208 167.45 86.9708L166.65 86.4208L166.75 86.5208L166.25 85.7208C166.15 85.5208 166.25 85.6208 166.2 85.7708C166.15 85.9208 166.15 86.0208 166.1 86.1208C166 86.4208 165.9 86.6708 165.75 86.9208C165.5 87.4208 165.2 87.9208 164.85 88.3708C164.15 89.3208 163.25 90.0708 162.2 90.5708C161.7 90.8208 161.1 90.9708 160.5 90.9208C160.25 90.9208 160.05 90.8708 159.8 90.7708C159.65 90.7208 159.55 90.6208 159.4 90.5708L159.3 90.4708L159.7 91.0208C159.7 90.8208 159.7 90.6208 159.75 90.4208C159.8 90.2208 159.9 90.0208 160.05 89.8208C160.3 89.5208 161 89.0708 161.4 89.4208L160.8 88.7708C160.35 88.2208 160.65 88.3208 160.5 88.6708C160.45 88.8708 160.3 89.0208 160.2 89.1208C159.95 89.3708 159.6 89.5708 159.25 89.6708C158.4 89.9708 157.55 90.1208 156.65 90.0708C156.3 90.0708 156 90.0208 155.65 89.9708C155.5 89.9208 155.3 89.8708 155.15 89.8208C155.05 89.7708 155 89.7208 154.9 89.7208C154.6 89.5208 154.7 89.7708 155.3 90.4208C155.3 90.3208 155.3 90.1708 155.3 90.0708C155.3 89.9208 155.35 89.7708 155.4 89.6708C155.55 89.4208 155.8 89.2208 156.1 89.1708C156.55 89.1208 155.4 87.0208 154.8 87.0708Z" fill="#F87171"/>
<path d="M188.099 91.12H189.749C189.999 91.17 190.199 91.07 190.349 90.92C190.449 90.72 190.449 90.47 190.349 90.27C190.199 89.97 189.999 89.77 189.749 89.57L189.449 89.37C189.299 89.27 189.099 89.22 188.899 89.22H187.249C186.999 89.17 186.799 89.27 186.649 89.42C186.549 89.62 186.499 89.87 186.649 90.07C186.799 90.37 186.999 90.62 187.249 90.77L187.549 90.97C187.699 91.07 187.899 91.12 188.099 91.12Z" fill="#F87171"/>
<path d="M156.35 98.8699C156.35 100.02 155.95 101.12 155.2 101.97C154.85 102.42 154.45 102.77 154 103.07C153.8 103.22 153.55 103.37 153.3 103.47C153.15 103.52 153.05 103.57 152.9 103.62L152.75 103.67C152.5 103.72 152.5 103.72 152.75 103.77L153.25 104.17C153.5 104.47 153.3 104.37 153.45 104.07C153.55 103.87 153.65 103.67 153.85 103.52C154.2 103.17 154.65 102.87 155.1 102.72C156.15 102.32 157.3 102.12 158.45 102.17C159.55 102.22 160.65 102.37 161.7 102.62C162.7 102.82 164 103.42 164.9 102.62C165.4 102.12 165.5 100.97 166.4 101.22C167.15 101.42 167.55 102.42 168 102.97C168.35 103.52 168.85 103.92 169.45 104.12C170.05 104.27 170.5 103.92 171 103.67C172 103.22 173.15 103.02 174.25 103.12C174.85 103.17 175.05 102.47 174.95 102.02C174.8 101.42 174.25 100.97 173.65 100.87C172.85 100.82 172 100.87 171.2 101.02C170.85 101.12 170.45 101.22 170.1 101.37C169.9 101.42 169.2 101.87 169.2 101.87L169.7 102.17C169.35 101.82 169.05 101.42 168.8 100.97C168.45 100.42 168 99.9699 167.5 99.5699C166.65 98.9699 165.35 98.5699 164.4 99.2199C164 99.5199 163.7 99.8699 163.5 100.32C163.2 100.87 163 100.82 162.45 100.67C161.2 100.37 159.95 100.12 158.7 99.9699C156.4 99.7699 153.5 100.02 151.95 101.97C151.15 102.92 151.1 104.32 151.9 105.32C152.8 106.42 154.05 105.92 155.1 105.32C157.2 104.12 158.5 101.87 158.5 99.4199C158.45 98.3699 156.35 97.3699 156.35 98.8699Z" fill="#F87171"/>
<path d="M179.301 117.72C181.351 117.92 183.301 116.77 184.101 114.87C184.551 113.77 184.601 112.52 183.501 111.77C182.551 111.12 181.201 111.32 180.551 112.32C180.551 112.32 180.551 112.37 180.501 112.37C179.351 114.32 181.051 116.82 182.801 117.67C184.751 118.67 187.201 118.02 188.401 116.22C189.001 115.42 189.201 114.37 189.051 113.42C188.751 112.12 187.101 111.37 186.051 112.32C185.001 113.27 185.751 114.57 186.351 115.42C186.951 116.37 187.701 117.12 188.651 117.72C190.451 118.82 192.801 118.22 193.901 116.37C193.951 116.32 193.951 116.27 194.001 116.22C194.501 115.37 194.751 114.37 194.601 113.37C194.451 112.22 193.401 111.37 192.251 111.42C190.751 111.57 190.251 113.22 190.801 114.42C191.401 115.62 192.451 116.52 193.701 116.97C196.001 117.82 198.951 116.62 199.251 113.97C199.401 112.67 197.001 111.97 196.851 113.37C196.751 114.42 195.801 115.17 194.751 115.07C194.601 115.07 194.451 115.02 194.351 114.97C193.751 114.77 193.301 114.37 193.051 113.77C193.051 113.72 193.051 113.52 193.051 113.47C193.201 113.37 193.101 113.27 192.701 113.32C192.501 113.37 192.351 113.32 192.251 113.22C192.251 113.22 192.301 113.77 192.251 113.87C192.101 114.82 191.351 116.32 190.201 116.12C189.701 115.97 189.251 115.62 188.901 115.17C188.651 114.87 188.451 114.57 188.251 114.22C188.201 114.12 188.151 114.02 188.101 113.92C188.051 113.87 188.051 113.82 188.051 113.82C187.901 113.97 187.901 114.02 188.101 113.92L187.551 114.07L186.951 113.77C186.651 113.52 186.901 113.52 186.801 113.77C186.751 113.92 186.751 114.07 186.751 114.22C186.551 114.97 186.001 115.62 185.251 115.92C184.351 116.22 183.351 115.82 182.951 114.97C182.851 114.77 182.751 114.52 182.701 114.27C182.701 114.17 182.801 113.52 182.851 113.57L182.751 113.62C182.601 113.62 182.401 113.52 182.351 113.37C181.951 113.02 182.151 113.12 182.101 113.37C182.051 113.62 181.951 113.92 181.851 114.17C181.351 115.17 180.251 115.72 179.101 115.57C178.551 115.52 178.101 115.92 178.051 116.47C178.051 116.52 178.051 116.57 178.051 116.67C178.101 117.27 178.651 117.72 179.301 117.72Z" fill="#38322D"/>
<path d="M178.45 125.119C178.5 126.019 178.35 126.919 178.05 127.819C177.9 128.219 177.7 128.619 177.45 128.969C177.35 129.169 177.2 129.369 177.05 129.519C176.75 129.919 176.3 129.969 177.3 129.819C178.3 129.669 177.9 129.869 177.85 129.419C177.85 129.269 177.85 129.119 177.95 128.969C178.1 128.669 178.35 128.369 178.65 128.169C179.25 127.769 179.9 127.519 180.6 127.369C182.1 127.019 183.9 126.869 185.35 127.519C185.7 127.669 186 127.869 186.3 128.119C186.35 128.169 186.45 128.219 186.5 128.319C186.45 128.269 186.75 128.719 186.75 128.719C186.85 128.769 187.95 128.269 187.95 128.269C187.95 128.269 187.7 127.969 187.7 128.019C187.35 127.369 187.85 126.419 188.4 126.019C188.95 125.619 189.7 125.919 190.2 126.269C191 126.819 191.45 127.719 191.5 128.669C191.55 129.219 193 128.669 193.15 128.619C193.45 128.419 193.8 128.319 194.15 128.269C194.65 128.219 195.45 127.969 195.7 127.469C195.95 126.969 195.4 126.869 195 126.919C194 127.019 193.05 127.319 192.15 127.819L193.8 127.769C193.7 126.419 192.8 125.219 191.55 124.719C190.1 124.169 188.4 124.619 187.1 125.419C186.1 126.069 184.9 127.419 185.25 128.769C185.7 130.319 188.25 129.619 188.9 128.569C189.65 127.369 187.5 126.319 186.65 126.069C185.25 125.719 183.75 125.669 182.3 125.919C180.8 126.069 179.4 126.519 178.05 127.169C177.05 127.719 175.4 128.769 175.5 130.119C175.55 130.969 176.3 131.119 177.05 130.919C177.95 130.619 178.75 130.069 179.3 129.269C180.35 127.919 180.9 126.269 180.8 124.569C180.75 123.669 178.4 124.419 178.45 125.119Z" fill="#38322D"/>
<path d="M200.65 128.469H201.75C202.05 128.469 202.35 128.419 202.65 128.319C202.75 128.269 202.85 128.219 202.9 128.119C202.95 128.069 203 127.969 203 127.869L202.95 127.669C202.9 127.519 202.8 127.419 202.65 127.369C202.4 127.219 202.1 127.119 201.75 127.119H200.65C200.35 127.119 200.05 127.169 199.75 127.269C199.65 127.319 199.55 127.369 199.5 127.469C199.45 127.519 199.4 127.619 199.4 127.719L199.45 127.919C199.5 128.069 199.6 128.169 199.75 128.219C200.05 128.369 200.35 128.469 200.65 128.469Z" fill="#38322D"/>
<path d="M182.949 101.571C182.849 101.521 182.749 101.421 182.649 101.321C182.549 101.221 182.849 101.521 182.699 101.371L182.549 101.221C182.399 101.021 182.199 100.871 182.099 100.671L182.249 100.871C182.049 100.621 181.949 100.371 181.799 100.071L181.849 100.271C181.799 100.171 181.799 100.071 181.799 99.9709V100.171C181.799 100.121 181.849 100.071 181.849 100.021L181.749 100.221C181.749 100.171 181.799 100.171 181.849 100.121L181.699 100.221L181.749 100.171L181.499 100.271C181.549 100.271 181.549 100.271 181.449 100.271C181.249 100.321 180.999 100.271 180.799 100.221C180.699 100.171 180.549 100.121 180.449 100.071C180.349 100.021 180.349 99.9709 180.399 100.021C180.449 100.071 180.199 99.8209 180.349 99.9709C180.349 100.021 180.399 100.021 180.449 100.071L180.299 99.8709C180.399 100.071 180.499 100.271 180.599 100.521L180.899 101.321L181.499 102.971C181.649 103.221 181.849 103.421 182.099 103.521C182.349 103.621 182.599 103.721 182.899 103.721C183.299 103.771 183.849 103.621 183.849 103.121C183.849 102.971 183.849 102.821 183.849 102.671V102.871C183.899 102.271 184.099 101.721 184.399 101.221L184.299 101.421C184.549 101.021 184.799 100.721 185.149 100.421L182.849 99.6709C182.899 99.8709 182.899 100.071 182.899 100.271V100.071C182.849 100.421 182.749 100.721 182.599 101.021L182.699 100.821C182.549 101.071 182.349 101.271 182.149 101.471L182.349 101.321L182.199 101.421C181.999 101.521 181.899 101.721 181.899 101.921C181.949 102.171 182.099 102.371 182.299 102.521C182.549 102.721 182.849 102.821 183.199 102.871C183.449 102.921 183.749 102.871 183.999 102.771C184.999 102.221 185.499 101.071 185.299 99.9709C185.149 99.5209 184.749 99.1709 184.299 99.0709C183.849 98.9209 183.399 98.9709 182.999 99.2209C181.999 100.071 181.449 101.371 181.499 102.671L183.849 102.821L183.199 101.071C183.049 100.471 182.799 99.9209 182.399 99.4209C181.999 99.0209 181.499 98.7209 180.949 98.6709C180.449 98.5209 179.899 98.7209 179.599 99.1209C179.299 99.6709 179.649 100.321 179.949 100.771C180.349 101.371 180.849 101.921 181.449 102.321C181.699 102.521 181.999 102.621 182.349 102.671C182.599 102.721 182.899 102.671 183.149 102.571C183.349 102.471 183.449 102.271 183.449 102.071C183.349 101.921 183.199 101.671 182.949 101.571Z" fill="#F87171"/>
<path d="M206.7 78.6206L210.25 81.6706C210.35 81.7706 210.3 81.4706 210.3 81.5206C210.2 81.2706 210.1 81.0706 210 80.8206C209.85 80.5206 209.7 80.2706 209.5 80.0206C209.4 79.8706 209.25 79.7206 209.15 79.5706L205.6 76.5206C205.5 76.4206 205.55 76.7206 205.55 76.6706C205.65 76.9206 205.75 77.1206 205.85 77.3706C206 77.6706 206.15 77.9206 206.35 78.2206C206.4 78.3206 206.55 78.4706 206.7 78.6206Z" fill="#38322D"/>
<path d="M208.801 75.971C207.701 77.121 206.651 78.371 205.601 79.621C205.401 79.821 205.301 80.121 205.301 80.421C205.301 80.771 205.451 81.071 205.651 81.321C205.851 81.571 206.151 81.721 206.451 81.771C206.751 81.821 207.051 81.721 207.251 81.471C208.251 80.221 209.301 78.971 210.451 77.821C210.851 77.321 210.851 76.571 210.401 76.121C210.001 75.621 209.301 75.521 208.801 75.971C208.801 75.921 208.801 75.921 208.801 75.971Z" fill="#38322D"/>
<path d="M56.9004 45.0195H37.6004C36.4004 45.0195 35.4004 46.0195 35.4004 47.2195V58.0695C35.4004 59.2695 36.4004 60.2695 37.6004 60.2695H51.9504C52.5504 61.3195 53.4004 62.7695 53.9504 63.6695C54.1004 63.9195 54.4504 64.0195 54.7004 63.8695C54.8004 63.8195 54.9004 63.7195 54.9504 63.5695L56.4504 60.2695H56.9504C58.1504 60.2695 59.1504 59.2695 59.1504 58.0695V47.2195C59.1004 45.9695 58.1504 45.0195 56.9004 45.0195Z" fill="#F87171"/>
<path d="M57.3996 44.7207H39.2496C38.8496 44.7207 38.4496 44.7207 38.0496 44.7207C36.5996 44.7707 34.8996 45.6207 34.7996 47.2207C34.7496 47.8207 34.7996 48.4207 34.7996 49.0207V52.7707C34.7996 54.6207 34.7496 56.4207 34.7996 58.2707C34.8496 59.5707 35.8996 60.5707 37.1996 60.5207C37.8996 60.5207 38.5496 60.5207 39.2496 60.5207H46.8496H50.0996H51.0496C51.3996 60.5207 51.2996 60.4707 51.4496 60.8207C51.9496 61.8207 52.4996 62.7707 53.1496 63.6707C53.2996 63.9707 53.4496 64.1707 53.7996 64.1707C54.1996 64.1707 54.6496 64.0207 54.9996 63.8207C55.2996 63.5707 55.5496 63.2707 55.6496 62.9207L56.4496 61.1207L56.8996 60.1207L55.8496 60.5707C57.4996 60.4707 59.5496 59.8707 59.5996 57.8707C59.5996 57.1707 59.5996 56.4207 59.5996 55.7207V47.6207C59.5996 47.3207 59.5996 46.9707 59.5496 46.6707C59.4496 45.5207 58.4996 44.7207 57.3996 44.7207C57.0996 44.7207 56.8496 44.8207 56.5996 44.9707C56.4996 45.0207 56.1996 45.2207 56.4496 45.2207C57.8496 45.2707 58.5496 46.4207 58.5496 47.7207V57.5707C58.5496 57.7707 58.5496 58.0207 58.5496 58.2207C58.5496 58.6707 58.3996 59.1707 58.0996 59.5207C57.7996 59.8707 57.3496 60.0207 56.9496 59.9707C56.6496 59.9707 56.0496 60.1207 55.8996 60.4207L54.5996 63.2707C54.5996 63.3207 54.3496 63.6707 54.3996 63.7207C54.4496 63.7707 54.3996 63.7207 54.3996 63.7707C54.3996 63.8207 54.4496 63.8207 54.6496 63.7207C54.8996 63.7207 54.9496 63.6707 54.7996 63.6207C54.7996 63.5707 54.5496 63.3707 54.4996 63.2707C54.4496 63.1707 54.3996 63.0707 54.2996 62.9707C53.6996 62.0207 53.1496 61.0207 52.5496 60.0207C52.4996 59.9707 52.4996 59.9707 52.4496 59.9707H42.3496C40.9496 59.9707 39.5496 60.0207 38.1496 59.9707C36.9496 59.9707 35.9996 58.9707 35.9996 57.7707C35.9996 57.3207 35.9996 56.8207 35.9996 56.3707V47.5707C35.9996 46.8207 35.9996 46.0207 36.6496 45.4707C36.9996 45.2707 37.3996 45.1707 37.7496 45.2707H45.7496C49.2496 45.2707 52.7496 45.3207 56.1996 45.2707H56.3996C56.6996 45.2707 56.9496 45.1707 57.1996 45.0207C57.3496 44.9707 57.6496 44.7207 57.3996 44.7207Z" fill="#F87171"/>
<path d="M102.999 71.7207H83.6492C82.4492 71.7207 81.4492 72.7207 81.4492 73.9207V84.7707C81.4492 85.9707 82.4492 86.9707 83.6492 86.9707L97.9992 87.0207C98.5992 88.0707 99.4492 89.4707 99.9992 90.4207C100.149 90.6707 100.499 90.7707 100.749 90.5707C100.849 90.5207 100.899 90.4207 100.949 90.3207L102.449 87.0207L102.949 86.9707C104.149 86.9707 105.149 85.9707 105.149 84.7707V73.8707C105.149 72.7207 104.199 71.7707 102.999 71.7207Z" fill="#F87171"/>
<path d="M103.45 71.4707H85.3004C84.9004 71.4707 84.5003 71.4707 84.1003 71.4707C82.6503 71.5207 80.9503 72.3707 80.8503 73.9707C80.8003 74.5707 80.8503 75.1707 80.8503 75.7707V79.5207C80.8503 81.3707 80.8003 83.1707 80.8503 85.0207C80.9003 86.3207 81.9503 87.2707 83.2503 87.2707H83.3004C84.0004 87.2707 84.6503 87.2707 85.3503 87.2707H92.9503H97.2003C97.5503 87.2707 97.4503 87.2207 97.6003 87.5707C98.1003 88.5707 98.6504 89.5207 99.3004 90.4207C99.5004 90.7207 99.6003 90.9207 100 90.9207C100.4 90.9207 100.85 90.7707 101.2 90.5707C101.5 90.3207 101.75 90.0207 101.85 89.6707L102.65 87.8707L103.1 86.8707L102.05 87.3207C103.7 87.2207 105.75 86.6207 105.8 84.6207C105.8 83.9207 105.8 83.1707 105.8 82.4707V74.4207C105.8 74.1207 105.8 73.7707 105.75 73.4707C105.55 72.2707 104.6 71.4707 103.45 71.4707C103.15 71.4707 102.9 71.5707 102.65 71.7207C102.6 71.7707 102.25 71.9707 102.5 71.9707C103.9 72.0207 104.6 73.1707 104.6 74.4707V84.3207C104.6 84.5207 104.6 84.7707 104.6 85.0207C104.6 85.4707 104.45 85.9707 104.15 86.3207C103.85 86.6707 103.4 86.8207 103 86.7707C102.75 86.7707 102.05 86.9207 101.95 87.2207L100.65 90.0207C100.65 90.0707 100.4 90.4207 100.45 90.4707C100.5 90.5207 100.45 90.4707 100.45 90.5207C100.45 90.5707 100.5 90.5707 100.7 90.4707C100.95 90.4707 101 90.4207 100.9 90.3707C100.9 90.3207 100.65 90.1207 100.6 90.0707C100.55 90.0207 100.5 89.8707 100.4 89.7707C99.8004 88.8207 99.2003 87.8207 98.6504 86.8207C98.6004 86.7707 98.6004 86.7707 98.5504 86.7707H88.4503C87.0503 86.7707 85.6503 86.8207 84.2503 86.7707C83.0503 86.7707 82.1003 85.8207 82.1003 84.6207C82.1003 84.1707 82.1003 83.6707 82.1003 83.2207V74.3207C82.1003 73.5707 82.1003 72.7707 82.7503 72.2207C83.1003 72.0207 83.5004 71.9207 83.9004 72.0207H91.9503C95.4503 72.0207 98.9004 72.0707 102.4 72.0207H102.6C102.9 72.0207 103.15 71.9207 103.4 71.7707C103.4 71.7207 103.75 71.4707 103.45 71.4707Z" fill="#F87171"/>
<path d="M163.65 21.4707H144.3C143.1 21.4707 142.1 22.4707 142.1 23.6707V34.5207C142.1 35.7207 143.1 36.7207 144.3 36.7207H158.65C159.25 37.7707 160.1 39.2207 160.65 40.1207C160.8 40.3707 161.15 40.4707 161.4 40.3207C161.5 40.2707 161.55 40.1707 161.6 40.0707L163.1 36.7707H163.6C164.8 36.7707 165.8 35.7707 165.8 34.5707V23.6207C165.85 22.4207 164.85 21.4707 163.65 21.4707Z" fill="#F87171"/>
<path d="M164.1 21.1699H146C145.6 21.1699 145.2 21.1699 144.8 21.1699C143.35 21.2199 141.65 22.0699 141.55 23.6699C141.5 24.2699 141.55 24.8699 141.55 25.4699V29.2199C141.55 31.0699 141.5 32.8699 141.55 34.7199C141.6 36.0199 142.65 37.0199 143.95 36.9699C143.95 36.9699 143.95 36.9699 144 36.9699C144.7 36.9699 145.35 36.9699 146.05 36.9699H153.65H156.9H157.85C158.2 36.9699 158.1 36.9199 158.25 37.2699C158.75 38.2699 159.3 39.2199 159.95 40.1199C160.15 40.4199 160.25 40.6199 160.65 40.6199C161.05 40.6199 161.5 40.4699 161.85 40.2699C162.15 40.0199 162.4 39.7199 162.5 39.3699L163.3 37.5699L163.75 36.5699L162.7 37.0199C164.35 36.9199 166.4 36.3199 166.45 34.3199C166.45 33.6199 166.45 32.8699 166.45 32.1699V24.0199C166.45 23.7199 166.45 23.3699 166.45 23.0699C166.2 21.9699 165.25 21.1699 164.1 21.1699C163.85 21.1699 163.55 21.2699 163.3 21.4199C163.25 21.4699 162.9 21.6699 163.15 21.6699C164.55 21.7199 165.25 22.8699 165.25 24.1699V34.0199C165.25 34.2199 165.25 34.4699 165.25 34.6699C165.25 35.1199 165.1 35.6199 164.8 35.9699C164.5 36.3199 164.05 36.4699 163.65 36.4199C163.4 36.4199 162.75 36.5699 162.6 36.8699L161.3 39.7199C161.3 39.7699 161.05 40.1199 161.1 40.1699C161.15 40.2199 161.1 40.1699 161.1 40.2199C161.1 40.2699 161.15 40.2699 161.35 40.1699C161.6 40.1699 161.65 40.1199 161.55 40.0699C161.55 40.0199 161.3 39.8199 161.25 39.7199C161.2 39.6199 161.15 39.5199 161.05 39.4199C160.45 38.4699 159.85 37.4699 159.3 36.4699C159.25 36.4199 159.25 36.4199 159.2 36.4199H149.1C147.7 36.4199 146.3 36.4699 144.9 36.4199C143.7 36.4199 142.75 35.4699 142.75 34.2699C142.75 33.8199 142.75 33.3199 142.75 32.8699V24.0199C142.75 23.2699 142.75 22.4699 143.4 21.9199C143.75 21.7199 144.15 21.6199 144.55 21.7199H152.55C156.05 21.7199 159.55 21.7699 163 21.7199H163.2C163.5 21.7199 163.75 21.6199 164 21.4699C164.05 21.4199 164.4 21.1699 164.1 21.1699Z" fill="#F87171"/>
<path d="M116.299 111.92H164.899C167.549 111.92 169.749 114.07 169.749 116.77V123.57C169.749 126.22 167.599 128.42 164.899 128.42H116.299C113.649 128.42 111.449 126.27 111.449 123.57V116.77C111.499 114.07 113.649 111.92 116.299 111.92Z" fill="white"/>
<path d="M164.15 127.569H123.25C120.7 127.569 118.1 127.669 115.55 127.569C113.8 127.519 112.7 126.169 112.55 124.469C112.5 123.469 112.55 122.519 112.55 121.519V117.669C112.45 116.119 113.15 114.669 114.35 113.719C115.55 112.819 116.85 112.819 118.25 112.819H156.2C159.3 112.819 162.4 112.769 165.5 112.819C166.3 112.769 167.05 113.069 167.6 113.569C168.55 114.519 168.65 115.769 168.65 117.019V121.119C168.65 122.169 168.75 123.319 168.5 124.319C167.95 126.219 166.15 127.519 164.15 127.569C163.6 127.569 163.85 128.269 164.1 128.519C164.5 128.969 165.05 129.269 165.65 129.269C167.8 129.269 169.7 127.919 170.5 125.919C170.9 124.769 170.85 123.619 170.85 122.419V118.119C170.85 116.719 170.7 115.369 169.9 114.169C168.6 112.269 166.5 111.119 164.2 111.069H125.4C122.2 111.069 118.95 111.069 115.75 111.069C112.85 111.019 110.45 113.369 110.4 116.319C110.4 116.369 110.4 116.369 110.4 116.419C110.4 118.669 110.3 120.969 110.4 123.219C110.55 126.769 113.9 129.269 117.25 129.269H165.65C166.25 129.269 165.95 128.569 165.7 128.319C165.3 127.819 164.75 127.569 164.15 127.569Z" fill="#F87171"/>
<path d="M158.5 126.07C161.62 126.07 164.15 123.54 164.15 120.42C164.15 117.299 161.62 114.77 158.5 114.77C155.379 114.77 152.85 117.299 152.85 120.42C152.85 123.54 155.379 126.07 158.5 126.07Z" fill="#38322D"/>
<path d="M159.749 119.068C159.549 119.118 159.449 119.318 159.499 119.518C159.499 119.518 159.499 119.518 159.499 119.568C159.649 119.968 160.149 119.768 160.099 119.368C160.099 119.218 159.949 119.118 159.749 119.068Z" fill="white"/>
<path d="M156.499 119.068C156.299 119.118 156.199 119.318 156.249 119.518C156.249 119.518 156.249 119.518 156.249 119.568C156.399 119.968 156.899 119.768 156.849 119.368C156.899 119.218 156.749 119.068 156.499 119.068C156.549 119.068 156.549 119.068 156.499 119.068Z" fill="white"/>
<path d="M157.6 122.269C157.6 122.219 157.6 122.169 157.6 122.069C157.6 121.969 157.65 121.919 157.6 122.019C157.6 121.969 157.65 121.919 157.65 121.869C157.65 121.819 157.75 121.719 157.65 121.819L157.75 121.719C157.65 121.819 157.9 121.519 157.75 121.719L157.7 121.769C157.9 121.619 157.5 121.869 157.65 121.819C157.8 121.769 157.35 121.969 157.6 121.869C157.75 121.819 157.55 121.919 157.5 121.919L157.6 121.869C157.7 121.869 157.65 121.869 157.55 121.869C157.35 121.919 157.65 121.869 157.7 121.819H157.8C157.7 121.819 157.9 121.819 157.9 121.819C158 121.819 158.15 121.819 158.25 121.869C158.45 121.919 158.6 121.969 158.8 122.069C159 122.169 159.15 122.269 159.3 122.369C159.65 122.669 159.9 123.069 160.05 123.519C160.1 123.669 160.45 123.619 160.55 123.619C160.85 123.569 161.15 123.469 161.4 123.319C161.65 123.169 161.9 123.019 162.1 122.769C162.2 122.619 162.3 122.469 162.25 122.319C161.85 121.119 160.7 120.319 159.45 120.369C158.5 120.419 157.55 120.769 156.75 121.319C156.1 121.769 155.45 122.419 155.4 123.219C155.35 123.669 156.25 123.369 156.45 123.269C156.75 123.169 157.05 122.969 157.25 122.769C157.4 122.669 157.65 122.469 157.6 122.269Z" fill="white"/>
<path d="M142.15 125.82C145.05 125.82 147.4 123.29 147.4 120.17C147.4 117.049 145.05 114.52 142.15 114.52C139.251 114.52 136.9 117.049 136.9 120.17C136.9 123.29 139.251 125.82 142.15 125.82Z" fill="#F87171"/>
<path d="M146.401 119.468C146.401 121.568 145.251 123.468 143.451 124.468C142.551 124.918 141.501 125.068 140.501 124.918C139.851 124.868 139.251 124.518 138.851 124.018C136.351 120.618 139.001 115.068 143.351 115.318C143.851 115.368 144.401 115.468 144.851 115.718C144.901 115.718 145.201 115.968 145.051 115.818C145.151 115.918 145.301 116.018 145.351 116.168C146.101 117.118 146.451 118.318 146.401 119.468C146.401 119.918 147.151 120.418 147.451 120.618C147.551 120.718 148.401 121.218 148.401 120.868C148.351 117.968 146.351 115.518 143.801 114.318C141.551 113.168 138.801 113.718 137.201 115.668C135.601 117.718 135.451 120.518 136.801 122.718C138.151 124.968 140.901 126.918 143.601 126.618C146.451 126.268 148.301 123.618 148.351 120.868C148.351 120.418 147.601 119.918 147.301 119.718C147.251 119.618 146.451 119.068 146.401 119.468Z" fill="#F87171"/>
<path d="M143.8 118.818C143.6 118.868 143.5 119.068 143.55 119.268V119.318C143.7 119.718 144.15 119.518 144.15 119.118C144.15 118.968 144 118.818 143.8 118.818Z" fill="#38322D"/>
<path d="M140.55 118.818C140.35 118.868 140.25 119.068 140.3 119.268V119.318C140.45 119.718 140.9 119.518 140.9 119.168C140.9 118.968 140.8 118.818 140.55 118.818C140.6 118.818 140.6 118.818 140.55 118.818Z" fill="#38322D"/>
<path d="M125.149 126.269C128.159 126.269 130.599 123.739 130.599 120.619C130.599 117.498 128.159 114.969 125.149 114.969C122.139 114.969 119.699 117.498 119.699 120.619C119.699 123.739 122.139 126.269 125.149 126.269Z" fill="#F87171"/>
<path d="M129.7 120.119C129.65 122.169 128.4 123.969 126.5 124.819C124.8 125.569 122.75 125.169 121.45 123.819C121.2 123.519 121 123.219 120.85 122.869C120.7 122.469 120.6 122.019 120.55 121.569C120.5 120.569 120.75 119.519 121.25 118.669C122.25 116.919 124.15 115.969 126.15 116.169C127.15 116.269 128.1 116.769 128.75 117.519C129.4 118.219 129.75 119.169 129.7 120.119C129.75 120.769 130.1 121.319 130.65 121.619C131.1 121.869 131.45 121.619 131.45 121.119C131.4 118.219 129.75 115.619 127.15 114.369C124.75 113.269 121.9 113.969 120.25 116.019C116.65 120.419 120.75 128.319 126.55 127.319C129.55 126.769 131.4 124.069 131.45 121.119C131.4 120.519 131.05 119.919 130.5 119.619C130.05 119.319 129.7 119.619 129.7 120.119Z" fill="#F87171"/>
<path d="M126.601 119.27C126.401 119.32 126.301 119.52 126.351 119.72V119.77C126.501 120.17 126.951 119.97 126.951 119.57C126.951 119.42 126.801 119.27 126.601 119.27Z" fill="#38322D"/>
<path d="M123.399 119.219C123.199 119.269 123.099 119.469 123.149 119.669C123.149 119.669 123.149 119.669 123.149 119.719C123.299 120.119 123.799 119.919 123.749 119.519C123.749 119.419 123.599 119.269 123.399 119.219Z" fill="#38322D"/>
<path d="M122.15 120.92H128C128 120.92 128.3 123.52 125.4 123.82C122.5 124.12 122.15 120.92 122.15 120.92Z" fill="white"/>
<path d="M122.2 121.219H128.05L127.75 120.919V121.119C127.75 121.319 127.7 121.519 127.65 121.719C127.5 122.319 127.1 122.869 126.55 123.169C125.75 123.619 124.8 123.669 123.95 123.319C123.4 123.019 122.95 122.519 122.75 121.969C122.6 121.619 122.5 121.269 122.45 120.919C122.4 120.569 121.85 120.519 121.9 120.919C122 122.069 122.65 123.119 123.6 123.769C125.15 124.669 127.5 124.019 128.1 122.269C128.25 121.819 128.3 121.369 128.25 120.919C128.2 120.769 128.1 120.619 127.9 120.619H122.05C121.75 120.619 121.9 121.219 122.2 121.219Z" fill="white"/>
<path d="M107.199 169.518C113.649 168.118 119.649 157.068 119.649 157.068C119.649 157.068 123.549 158.418 125.049 153.218C126.549 148.018 121.499 146.668 121.499 146.668C123.949 142.468 117.199 141.268 117.199 141.268C119.249 138.618 125.849 137.918 125.399 134.618C124.949 131.318 114.599 133.818 108.549 139.018C102.499 144.218 91.5492 162.718 91.5492 162.718L73.1992 185.168L90.3992 205.218L107.199 169.518Z" fill="white"/>
<path d="M108.151 170.269C110.951 169.619 113.251 167.569 115.151 165.469C116.901 163.519 118.451 161.419 119.851 159.169C120.151 158.719 120.401 158.269 120.651 157.769H120.451C122.351 158.419 124.351 157.369 125.351 155.719C126.251 154.219 126.751 152.169 126.151 150.469C125.701 149.069 124.551 148.019 123.351 147.219C122.551 146.619 121.651 146.169 120.651 145.919L122.451 147.369C123.001 146.519 123.151 145.469 122.751 144.519C122.251 143.469 121.201 142.719 120.251 142.119C119.051 141.369 117.701 140.819 116.301 140.569L118.151 142.019C119.301 140.569 121.251 139.869 122.901 139.069C124.201 138.419 126.101 137.569 126.351 135.969C126.601 134.369 124.851 133.169 123.501 132.669C122.001 132.119 120.251 132.369 118.701 132.719C114.301 133.669 110.201 135.769 106.851 138.819C104.201 141.319 102.051 144.369 99.9505 147.319C97.7005 150.519 95.5505 153.769 93.4505 157.119C92.7505 158.269 92.0505 159.419 91.3505 160.569C91.0505 161.069 90.8005 161.569 90.5005 162.019C89.7505 163.069 88.8505 164.019 88.0505 165.019L82.2005 172.169L72.3505 184.269L72.1505 184.469C72.1005 184.569 72.3005 184.819 72.3505 184.819L78.2005 191.619L87.4005 202.369L89.5505 204.869C89.7005 205.019 91.2505 206.269 91.4005 205.919L97.1005 193.869L106.151 174.619L108.201 170.219C108.401 169.769 106.251 168.519 106.151 168.769L100.501 180.819L91.4505 200.069L89.4005 204.469L91.2505 205.519L85.4005 198.719L76.2005 187.969L74.0505 185.469L74.2505 185.819L82.4005 175.819L92.3005 163.719C92.8505 162.919 93.4005 162.119 93.8505 161.269C95.6005 158.469 97.3505 155.669 99.2005 152.869C101.351 149.569 103.651 146.369 106.151 143.319C107.101 142.119 108.201 140.969 109.301 139.919C111.001 138.419 112.901 137.169 114.901 136.219C116.851 135.219 118.951 134.519 121.101 134.069C121.901 133.919 122.751 133.819 123.601 133.819C123.901 133.819 124.251 133.869 124.551 133.919L124.851 134.019C124.801 134.019 125.001 134.069 125.001 134.069C124.801 133.919 124.601 133.819 124.401 133.669C124.401 133.669 124.201 133.469 124.151 133.469C124.101 133.469 124.201 133.469 124.201 133.569C124.201 133.669 124.251 133.769 124.301 133.819C124.401 134.169 124.351 134.519 124.251 134.819C124.001 135.519 123.551 136.069 122.951 136.469C121.451 137.519 119.701 138.119 118.101 139.019C117.351 139.419 116.701 139.919 116.151 140.569C115.851 140.919 117.701 141.969 118.001 142.019C118.851 142.169 119.651 142.419 120.401 142.819C120.601 142.919 120.351 142.769 120.451 142.819C120.551 142.869 120.601 142.919 120.451 142.819C120.701 143.019 120.251 142.619 120.501 142.869C120.351 142.719 120.501 142.869 120.451 142.869C120.601 143.069 120.751 143.269 120.851 143.519C121.101 144.369 120.951 145.219 120.451 145.969C120.201 146.419 122.001 147.369 122.301 147.419L122.401 147.469C122.601 147.519 122.301 147.419 122.551 147.519L122.751 147.619L122.901 147.669L123.051 147.769C123.101 147.769 123.251 147.869 123.001 147.719L123.151 147.819C123.351 147.919 123.101 147.819 123.101 147.769C123.151 147.819 123.201 147.819 123.251 147.869C123.251 147.869 123.051 147.719 123.201 147.819C123.051 147.719 123.351 147.919 123.201 147.819C123.351 147.969 123.501 148.069 123.601 148.269C123.951 148.719 124.201 149.269 124.301 149.819C124.801 152.319 123.301 156.019 120.551 156.469C120.001 156.569 119.451 156.519 118.951 156.369C118.901 156.319 118.801 156.319 118.751 156.369C118.051 157.669 117.251 158.919 116.401 160.119C114.801 162.569 112.801 164.769 110.601 166.619C109.401 167.669 107.951 168.369 106.401 168.819C106.051 168.919 106.851 169.519 106.901 169.619C107.051 169.719 107.751 170.319 108.151 170.269Z" fill="#38322D"/>
<path d="M120.451 145.918C120.151 146.868 119.851 147.818 119.401 148.718C118.751 150.168 117.951 151.818 116.651 152.768C116.101 153.218 115.351 153.418 114.651 153.368C114.551 153.368 114.401 153.368 114.301 153.318C114.101 153.268 114.351 153.368 114.251 153.318C114.151 153.268 114.351 153.368 114.351 153.368C114.551 153.468 114.751 153.618 114.901 153.768C115.001 153.868 115.151 153.968 115.201 154.068C115.151 154.018 115.151 153.968 115.101 153.918C115.051 153.868 115.101 153.968 115.051 153.868L115.001 153.668C114.601 152.518 115.051 151.118 115.451 149.968C115.751 149.068 116.151 148.218 116.551 147.368C116.701 147.118 115.851 146.518 115.701 146.418C115.551 146.318 114.651 145.668 114.551 145.918C114.151 146.668 113.801 147.518 113.501 148.318C113.051 149.518 112.551 151.068 112.951 152.318C113.251 153.318 114.251 154.018 115.101 154.468C115.851 154.868 116.751 155.018 117.601 154.768C119.251 154.318 120.301 152.518 121.001 151.068C121.601 149.868 122.101 148.668 122.451 147.368C122.551 147.068 121.801 146.568 121.601 146.418C121.601 146.418 120.551 145.718 120.451 145.918Z" fill="#38322D"/>
<path d="M104.6 146.069C105.1 145.969 110.3 140.769 113 143.069C115.7 145.369 108.8 149.919 108.8 149.919C108.8 149.919 110.7 151.719 108.9 155.019" fill="white"/>
<path d="M105.599 146.469C105.899 146.319 106.199 146.169 106.449 145.919C106.949 145.519 107.449 145.119 107.999 144.769C109.099 143.969 110.449 143.069 111.899 142.919C111.999 142.919 112.149 142.919 112.049 142.919L111.699 142.819C111.799 142.719 112.249 143.319 112.299 143.369C112.549 143.819 112.549 144.369 112.349 144.819C111.899 146.019 110.849 147.019 109.949 147.819C109.249 148.419 108.499 149.019 107.749 149.519C107.599 149.619 107.749 149.769 107.799 149.819C107.699 149.669 107.849 149.869 107.799 149.819C107.899 149.969 107.899 149.969 107.999 150.069C108.199 150.369 108.349 150.669 108.449 151.019C108.799 152.269 108.399 153.569 107.799 154.669C107.649 154.969 109.949 155.769 110.249 155.169C111.099 153.569 111.499 151.269 110.049 149.869L110.099 150.169C110.849 149.669 111.599 149.069 112.299 148.469C113.299 147.569 114.499 146.469 114.899 145.069C115.399 143.319 113.599 142.369 112.199 142.069C110.349 141.669 108.649 142.219 107.049 143.169C106.249 143.619 105.549 144.169 104.799 144.719C104.549 144.919 104.299 145.119 104.049 145.319C103.949 145.369 103.849 145.469 103.799 145.519C103.749 145.569 103.549 145.619 103.749 145.569C103.249 145.719 103.899 146.069 104.099 146.169C104.449 146.469 104.999 146.569 105.599 146.469Z" fill="#38322D"/>
<path d="M117.45 152.418C117.35 153.518 117.2 154.668 117.65 155.718C118.1 156.868 119.15 157.668 120.35 157.918C120.85 158.018 121.35 157.668 121.45 157.168C121.45 157.118 121.45 157.018 121.45 156.968C121.35 156.318 120.8 155.818 120.15 155.768C119.95 155.718 120.45 155.868 120.2 155.768C119.95 155.668 120.3 155.818 120.3 155.818C120.25 155.768 120.15 155.768 120.1 155.718C119.9 155.618 120.35 155.918 120.2 155.768L120.05 155.618C119.9 155.468 120.25 155.868 120.1 155.668C120.05 155.618 120 155.568 119.95 155.468C119.9 155.368 119.8 155.218 119.9 155.418C120 155.618 119.9 155.368 119.85 155.368C119.8 155.318 119.8 155.218 119.8 155.168C119.8 155.118 119.8 155.118 119.75 155.068C119.7 154.968 119.7 154.968 119.75 155.118C119.7 155.018 119.7 154.968 119.7 154.868C119.65 154.518 119.65 154.118 119.7 153.768V154.018C119.7 153.768 119.75 153.468 119.75 153.168C119.8 152.518 119.4 151.968 118.8 151.768C118.5 151.668 118.2 151.668 117.9 151.768C117.7 151.918 117.55 152.168 117.45 152.418Z" fill="#38322D"/>
<path d="M60.9003 128.019C60.9003 128.019 65.5504 106.119 63.4003 102.969C60.5003 98.7188 52.4003 95.7688 41.4003 98.5688C30.4003 101.369 19.4003 114.519 19.5503 139.969C20.0003 198.569 31.2003 179.419 31.2003 179.419L37.2503 174.919C36.2003 165.919 34.8503 156.119 43.3503 153.119C43.5003 153.069 43.6503 153.019 43.8003 152.919C45.8003 151.969 44.7003 148.619 44.7003 148.619L60.9003 128.019Z" fill="#38322D"/>
<path d="M102.851 222.818C102.851 222.818 87.1008 167.668 77.0008 157.118C64.4008 143.968 59.5008 148.868 59.5008 148.868C59.5008 148.868 66.7008 145.218 54.4008 144.418C35.2508 143.218 24.3508 181.068 34.4508 216.418" fill="white"/>
<path d="M103.45 223.218C102.55 220.018 101.55 216.818 100.55 213.618C98.3504 206.518 96.0504 199.418 93.6504 192.418C90.9504 184.718 88.1504 177.018 84.7504 169.618C83.4004 166.618 81.9004 163.668 80.2504 160.868C79.6004 159.718 78.8504 158.618 78.0504 157.618C76.6504 155.918 75.1504 154.368 73.5004 152.968C70.6004 150.418 67.1004 147.618 63.1504 147.018C61.8504 146.818 60.2004 146.868 59.1004 147.718C59.0504 147.768 59.0004 147.818 58.9504 147.818C58.5004 148.268 59.4004 150.368 60.0504 150.068C60.8004 149.718 61.5004 149.168 62.0004 148.518C62.5004 147.768 62.2504 146.918 61.9004 146.168C61.4004 145.168 60.5004 144.468 59.4004 144.168C57.6004 143.668 55.7504 143.418 53.9004 143.368C52.7004 143.318 51.4504 143.418 50.2504 143.618C47.8504 144.168 45.6004 145.268 43.7004 146.818C38.9504 150.618 36.0504 156.368 34.0504 162.018C31.4004 169.518 30.2504 177.518 30.0004 185.468C29.7504 194.618 30.7504 203.818 32.9504 212.718C33.2504 213.868 33.5504 215.018 33.8504 216.168C34.0004 216.668 34.2504 217.418 34.7504 217.668C35.2504 217.918 35.2004 217.318 35.1004 216.968C32.7004 208.468 31.4004 199.718 31.3004 190.918C31.1504 183.118 32.1004 175.318 34.1504 167.768C35.8004 161.918 38.3004 155.968 42.4504 151.418C45.7004 147.818 50.1504 145.418 55.1004 145.768C56.8504 145.818 58.6004 146.068 60.3004 146.568C60.7004 146.668 61.0504 146.868 61.4004 147.068C61.2504 146.968 61.4004 147.068 61.4504 147.118C61.3504 146.968 61.2504 146.818 61.1504 146.668C61.2004 146.768 61.2004 146.868 61.0504 146.468C61.0004 146.368 61.0004 146.268 60.9504 146.168C60.9504 146.118 60.9504 146.118 60.9504 146.068C60.9004 146.268 61.0004 146.068 60.9004 146.268C60.8504 146.368 60.8004 146.468 60.7004 146.568C60.5504 146.768 60.4004 146.918 60.2504 147.068C59.9004 147.318 59.5504 147.568 59.2004 147.818C59.1504 147.868 59.1004 147.868 59.0004 147.918L60.0504 150.168C60.7504 149.618 61.6504 149.268 62.5504 149.268C65.6504 149.118 68.6004 150.918 71.0004 152.718C73.2504 154.418 75.3504 156.318 77.3004 158.418L77.4004 158.518C77.2504 158.318 77.5004 158.618 77.4004 158.518L77.6004 158.768C77.8004 159.018 77.9504 159.218 78.1504 159.468C78.3504 159.718 78.4504 159.868 78.6004 160.118L78.7504 160.318C78.6004 160.118 78.9004 160.568 78.7504 160.318L79.0504 160.768C79.4004 161.318 79.7504 161.868 80.1004 162.468C80.2504 162.768 80.4004 163.018 80.6004 163.318L80.8504 163.818L80.9504 164.018L81.0504 164.168C81.8004 165.618 82.5504 167.068 83.2504 168.518C86.5504 175.518 89.2004 182.718 91.8504 190.118C94.3504 197.218 96.7004 204.418 98.9504 211.618C99.4004 213.018 99.8004 214.368 100.25 215.768C100.45 216.368 100.6 216.968 100.8 217.568C100.9 217.868 100.75 217.418 100.85 217.718L100.95 218.068C101.05 218.318 101.1 218.618 101.2 218.868C101.55 220.068 101.9 221.268 102.25 222.418C102.25 222.468 102.3 222.518 102.3 222.568C102.45 223.068 102.7 223.818 103.2 224.018C103.7 224.218 103.55 223.568 103.45 223.218Z" fill="#38322D"/>
<path d="M97.0498 207.818C97.0498 207.818 74.6998 223.018 52.1998 229.018C29.6998 235.018 31.1498 192.068 31.1498 192.068L57.8998 184.818C57.8998 184.818 60.4498 202.368 63.4498 201.818C63.4498 201.818 107.35 186.618 118.75 188.068C130.15 189.518 134.95 194.368 133.75 196.118C132.55 197.868 120.35 194.518 120.35 194.518C120.35 194.518 123.35 198.568 121.85 202.418C120.35 206.268 117.45 205.668 117.45 205.668C117.45 205.668 112.15 211.918 109.65 207.968C109.7 207.968 104.2 211.868 97.0498 207.818Z" fill="white"/>
<path d="M96.3001 207.618C91.1501 211.068 85.8501 214.168 80.3501 217.018C75.1501 219.768 69.8501 222.218 64.4001 224.418C61.5001 225.568 58.5501 226.618 55.5501 227.518C53.4501 228.168 51.5001 228.768 49.4501 228.918C48.1501 229.018 46.8001 228.868 45.5501 228.468C44.3501 228.068 43.2001 227.518 42.2001 226.718C40.0001 225.068 38.4501 222.768 37.2501 220.318C34.6001 214.918 33.4501 208.818 32.8501 202.868C32.6001 200.468 32.4501 198.068 32.3501 195.618C32.3001 194.368 32.4001 193.118 32.3501 191.868C32.3501 191.818 32.3501 191.768 32.3501 191.718L31.0501 192.568L40.1001 190.118L54.5001 186.218L57.8001 185.318L56.7501 185.168C57.1501 187.968 57.6501 190.768 58.3001 193.518C58.7001 195.468 59.2501 197.418 59.9501 199.318C60.3501 200.368 60.9501 202.018 62.1501 202.368C62.8501 202.568 63.5501 202.268 64.2501 202.018L66.8001 201.168C70.0001 200.118 73.2001 199.068 76.4001 198.068C80.8501 196.668 84.9501 195.418 89.4501 194.118C93.9501 192.818 98.6001 191.568 103.25 190.518C104.3 190.268 105.4 190.068 106.45 189.818C106.95 189.718 107.45 189.618 108 189.518L108.7 189.368L109.3 189.268C111.05 188.968 112.8 188.718 114.55 188.568L115.1 188.518H115.35H115.5C115.4 188.518 115.7 188.518 115.5 188.518C115.85 188.518 116.15 188.518 116.5 188.518C117.25 188.518 118 188.618 118.7 188.718C121.85 189.118 124.95 189.968 127.85 191.318C129.45 192.068 131.25 193.068 132.25 194.568C132.55 194.918 132.7 195.368 132.7 195.818C132.7 195.918 132.65 195.968 132.65 196.068C132.6 196.168 132.65 195.968 132.65 196.068C132.5 196.168 132.65 196.168 132.65 196.068C132.75 195.968 132.85 195.918 133 195.868C132.85 195.968 133.3 195.768 133.1 195.818C132.9 195.868 133.4 195.718 133.2 195.818C133 195.918 133.3 195.818 133.15 195.818C132.85 195.868 132.5 195.868 132.2 195.868C131.75 195.868 131.25 195.818 130.8 195.768C129.8 195.668 128.75 195.468 127.75 195.268C125.9 194.918 124.05 194.468 122.25 194.018L121.35 193.768C120.85 193.718 120.35 193.768 119.95 194.018C119.8 194.118 119.05 194.518 119.25 194.818C120.6 196.668 121.5 199.268 121.05 201.518C120.9 202.368 120.55 203.168 120.05 203.868C119.85 204.118 119.65 204.368 119.4 204.568C119.3 204.618 119.3 204.618 119.2 204.718C119 204.818 119.25 204.718 119 204.818C118.9 204.868 118.95 204.868 119.05 204.818L118.85 204.868C119.2 204.818 118.85 204.868 118.8 204.868H118.7C118.4 204.868 118.65 204.868 118.7 204.868H118.35C118.15 204.868 118.55 204.918 118.4 204.868C117.65 204.768 116.9 205.068 116.4 205.618C116.25 205.818 116.55 205.468 116.35 205.718C116.15 205.968 116 206.118 115.8 206.268C115.3 206.818 114.7 207.268 114.1 207.718C113.8 207.918 113.5 208.118 113.15 208.268C113.05 208.318 112.9 208.368 113.1 208.268C113 208.318 112.9 208.368 112.8 208.368C112.95 208.318 112.7 208.368 112.65 208.368C112.7 208.368 112.4 208.368 112.35 208.368C112.2 208.318 112.05 208.268 111.9 208.218C111.5 208.018 111.15 207.668 110.95 207.268C110.6 206.718 109.4 207.218 109 207.518L108.8 207.668C108.55 207.818 109 207.568 108.75 207.668C108.6 207.718 108.5 207.818 108.35 207.868C108.2 207.918 107.8 208.118 108.05 208.018C107.85 208.118 107.7 208.168 107.5 208.218C107.1 208.368 106.7 208.468 106.3 208.568C103.55 209.168 100.6 208.418 98.1501 207.068C97.7001 206.818 97.0001 207.018 96.6001 207.268C96.4501 207.368 95.5501 207.918 96.0001 208.168C98.9501 209.918 102.45 210.518 105.85 209.868C107.5 209.568 109.05 208.918 110.45 208.018L108.55 208.268C110.1 210.618 112.95 209.818 115 208.568C116.35 207.718 117.6 206.668 118.6 205.418L116.55 206.168C118.25 206.518 120.25 205.718 121.45 204.518C123.7 202.318 123.85 198.968 122.75 196.218C122.45 195.418 122.05 194.668 121.55 194.018L119.45 195.068C122.7 196.018 126.05 196.718 129.45 197.118C130.35 197.218 131.3 197.268 132.2 197.168C133.1 197.068 134.25 196.768 134.85 195.968C135.55 194.968 134.8 193.818 134.1 193.018C132.7 191.468 130.65 190.418 128.75 189.618C125.7 188.368 122.5 187.618 119.25 187.318C115.95 186.968 112.55 187.618 109.3 188.168C104.8 188.968 100.3 190.068 95.9001 191.218C91.1001 192.468 86.3501 193.868 81.6001 195.318C77.7001 196.518 73.8001 197.718 69.9001 199.018C67.8001 199.718 65.7001 200.418 63.6501 201.118C63.6001 201.118 63.3501 201.168 63.3001 201.218C63.5001 201.168 63.6501 201.118 63.8501 201.068C64.0001 201.068 64.0501 201.068 64.1001 201.068C64.0501 201.068 64.0001 201.068 64.0001 201.018C64.0001 201.018 64.1001 201.068 63.9501 201.018C63.7501 200.868 63.6001 200.718 63.4501 200.518C62.4501 199.268 62.0001 197.418 61.5501 195.868C60.5501 192.268 59.8001 188.618 59.2501 184.968C59.2001 184.718 59.1501 184.468 59.1501 184.268C59.1001 183.918 58.3001 184.068 58.1001 184.118L49.0001 186.718L34.6001 190.618L31.3001 191.518C30.9501 191.618 30.0001 191.918 30.0001 192.368C29.9001 195.568 30.0501 198.768 30.3001 201.918C30.8001 207.968 31.8001 214.168 34.2001 219.768C35.2501 222.468 36.9001 224.868 38.9501 226.918C40.9501 228.818 43.5501 229.968 46.3001 230.168C48.0001 230.268 49.7001 230.118 51.3501 229.718C54.3501 228.968 57.3001 228.068 60.2001 227.018C66.1001 224.918 71.8501 222.468 77.4001 219.668C84.3501 216.268 91.0501 212.468 97.5001 208.218L97.8001 208.018C98.1001 207.818 98.4501 207.418 98.0001 207.218C97.5501 207.018 96.7001 207.368 96.3001 207.618Z" fill="#38322D"/>
<path d="M96.0494 208.369C96.6494 208.369 97.1994 208.219 97.6994 207.919C97.8494 207.869 98.4994 207.369 97.9994 207.369C97.3994 207.369 96.8494 207.519 96.3494 207.819C96.1994 207.869 95.4994 208.369 96.0494 208.369Z" fill="#38322D"/>
<path d="M115.1 196.77C115.1 196.77 120 200.27 117.5 205.67L115.1 196.77Z" fill="white"/>
<path d="M115.299 197.669L115.499 197.819C115.649 197.919 115.449 197.769 115.399 197.719C115.449 197.769 115.499 197.769 115.549 197.819L115.799 198.069L116.099 198.369C115.799 198.069 116.249 198.519 116.299 198.619L116.449 198.819C116.599 198.969 116.299 198.569 116.499 198.869L116.649 199.069C116.699 199.119 116.899 199.469 116.699 199.119C116.799 199.319 116.899 199.469 116.999 199.669C116.849 199.419 117.049 199.769 117.049 199.819L117.149 200.069C117.199 200.169 117.199 200.169 117.149 200.069C117.149 200.119 117.199 200.169 117.199 200.269C117.199 200.369 117.249 200.519 117.299 200.619C117.349 200.819 117.399 201.069 117.399 201.269C117.449 202.419 117.249 203.619 116.749 204.669C116.449 205.319 118.049 207.119 118.299 206.519C119.149 204.619 119.249 202.469 118.449 200.519C117.849 198.969 116.899 197.619 115.699 196.469C115.449 196.219 115.149 195.969 114.849 195.769C114.449 195.519 114.199 195.669 114.299 196.119C114.449 196.769 114.799 197.269 115.299 197.669Z" fill="#38322D"/>
<path d="M112.05 203.568C112.05 203.568 108.8 213.918 95.25 207.418L112.05 203.568Z" fill="white"/>
<path d="M110.851 203.319C109.751 206.869 106.101 209.219 102.501 209.169C100.301 209.169 98.2009 208.319 96.1509 207.369C95.6009 207.119 95.0009 207.019 94.4009 207.019C94.0009 207.019 93.9009 207.219 94.3509 207.419C98.3009 209.319 103.301 210.819 107.651 209.369C109.801 208.619 111.601 207.119 112.701 205.119C112.951 204.719 113.151 204.269 113.301 203.819C113.401 203.469 111.001 202.869 110.851 203.319Z" fill="#38322D"/>
<path d="M75.5004 130.268C78.4004 120.068 58.5504 104.318 58.5504 104.318C54.5504 105.568 46.7504 105.318 46.7504 105.318C54.5004 115.368 43.1504 125.368 43.1504 125.368C37.3504 120.818 31.5004 126.668 35.0004 132.268C38.5004 137.868 44.4504 135.568 44.4504 135.568C44.4504 135.568 49.2004 151.518 50.9504 153.518C50.9504 153.518 63.9504 155.118 65.4504 143.568C65.4004 143.518 73.5004 137.168 75.5004 130.268Z" fill="white"/>
<path d="M76.6007 130.619C77.4507 127.469 76.3507 124.119 74.9007 121.319C73.2507 118.069 70.9507 115.169 68.5507 112.419C66.4507 110.069 64.2507 107.869 61.9007 105.819C61.2007 105.219 60.5007 104.569 59.8007 104.019L59.3007 103.619L59.2007 103.569C58.6007 103.069 58.1007 103.169 57.4007 103.369C53.9007 104.269 50.1007 104.319 46.5507 104.219C46.0007 104.219 45.5507 104.669 45.5507 105.219C45.5507 105.469 45.6007 105.669 45.7507 105.869C48.1507 108.719 48.8507 112.619 47.7007 116.169C46.8007 118.819 45.3507 121.269 43.4507 123.269C43.0507 123.719 42.6507 124.169 42.2007 124.569L43.5507 124.519C41.5007 122.919 38.8007 122.119 36.3007 123.169C34.2507 124.069 32.9007 126.019 32.7507 128.219C32.4507 133.019 36.9007 137.269 41.5507 137.269C42.7507 137.319 43.9507 137.119 45.0507 136.669L43.3007 135.819C44.8507 141.069 46.4507 146.469 48.6007 151.519C49.0507 152.519 49.6507 154.419 50.8507 154.719C51.3007 154.819 51.8007 154.819 52.2507 154.819C54.8007 154.919 57.4007 154.419 59.7507 153.419C63.6507 151.719 65.9007 148.169 66.5007 144.019L66.2507 144.519C69.5007 141.969 72.2507 138.869 74.4507 135.419C75.4007 133.869 76.1007 132.269 76.6007 130.619C76.9507 129.369 74.7507 128.419 74.3007 129.869C73.3007 133.319 70.9007 136.369 68.4507 138.969C67.5507 139.969 66.5507 140.869 65.5507 141.769C64.9507 142.269 64.3507 142.619 64.2007 143.419C64.0007 144.919 63.4507 146.369 62.7007 147.669C62.4007 148.169 62.0007 148.669 61.6007 149.069C61.4007 149.269 61.1507 149.519 60.9007 149.719C60.7007 149.869 60.5007 150.019 60.3007 150.169C58.5007 151.369 56.4007 152.119 54.2507 152.319C54.0007 152.369 53.7507 152.369 53.5007 152.369H53.1507C52.9007 152.369 53.3007 152.369 53.0007 152.369C52.6007 152.369 52.2007 152.369 51.8507 152.369C51.5007 152.369 51.1507 152.369 50.7507 152.319L51.6007 152.719C51.9507 153.119 51.6007 152.669 51.5007 152.519L51.3507 152.269C51.3007 152.219 51.1507 151.869 51.2007 152.019C51.2507 152.169 51.1007 151.869 51.1007 151.769C51.0507 151.619 51.0007 151.519 50.9007 151.369C50.7507 151.069 50.6507 150.769 50.5007 150.469C49.9007 149.069 49.4007 147.619 48.9007 146.169C47.8507 143.219 46.9007 140.269 46.0007 137.269C45.8007 136.619 45.6007 135.919 45.4007 135.269C45.1507 134.569 44.4007 134.169 43.7007 134.419H43.6507C43.5507 134.469 43.3507 134.469 43.7507 134.419C43.6007 134.469 43.4507 134.519 43.3007 134.519C42.8507 134.619 42.3507 134.719 41.9007 134.769C40.6007 134.869 39.3007 134.619 38.1507 134.019C36.5007 133.069 35.3507 131.419 35.0507 129.519C34.8007 127.919 35.5007 126.369 36.8507 125.419C38.7507 124.169 40.9507 124.919 42.6007 126.219C43.0007 126.519 43.5507 126.469 43.9507 126.169C45.3507 124.919 46.5507 123.469 47.5507 121.869C49.5507 118.919 50.8007 115.319 50.4507 111.719C50.1507 109.169 49.1507 106.819 47.6007 104.819L46.8007 106.419C48.3007 106.469 49.8007 106.419 51.3007 106.369C53.8507 106.269 56.4507 106.119 58.9007 105.369L57.7507 104.969C60.0007 106.769 62.1507 108.719 64.1507 110.769C65.9507 112.569 67.6507 114.469 69.2507 116.469C70.8507 118.469 72.2507 120.669 73.3507 122.969C73.6007 123.569 73.8507 124.169 74.0507 124.769C74.2507 125.319 74.3507 125.869 74.4507 126.469C74.5007 126.769 74.5507 127.069 74.5507 127.419C74.5507 127.569 74.5507 127.719 74.5507 127.869V128.069C74.5507 127.969 74.5507 128.019 74.5507 128.119C74.5007 128.719 74.4507 129.319 74.2507 129.869C74.0007 131.119 76.2007 132.119 76.6007 130.619Z" fill="#38322D"/>
<path d="M51.4004 131.168C51.4004 131.168 53.0004 138.018 56.8004 134.268L51.4004 131.168Z" fill="white"/>
<path d="M50.5508 130.768C50.7508 131.568 51.0008 132.318 51.4008 133.068C51.9008 134.118 52.7508 134.918 53.8508 135.318C54.3008 135.568 54.8508 135.668 55.3508 135.718C56.2508 135.768 57.0508 135.168 57.7008 134.568C57.8008 134.518 56.9508 134.118 56.9008 134.068C56.7008 133.968 56.5008 133.918 56.2508 133.868C56.2008 133.868 56.0508 133.768 55.9508 133.868C55.4508 134.418 54.8008 134.818 54.0508 134.968C53.9508 134.968 53.8508 134.968 53.7008 134.968C53.6508 134.968 53.4508 134.918 53.6008 134.968C53.3508 134.918 53.9508 135.118 53.9008 135.068C53.8508 135.018 54.2508 135.218 54.2508 135.218L54.1508 135.168C54.1508 135.168 54.2508 135.268 54.2008 135.168C54.1508 135.068 54.0008 135.018 53.9508 134.918C53.2508 134.118 52.7508 133.218 52.4508 132.168C52.3508 131.918 52.3008 131.668 52.2508 131.418C52.2508 131.318 52.1008 131.268 52.0508 131.218C51.8508 131.118 51.6508 131.018 51.4508 130.918C51.2508 130.818 51.0508 130.768 50.8508 130.668C50.8008 130.818 50.5508 130.718 50.5508 130.768Z" fill="#38322D"/>
<path d="M60.75 117.57C63.65 118.07 66.6 118.12 69.55 117.77C79.45 116.72 81.45 119.72 79.05 122.37C76.65 125.02 63.35 127.17 63.35 127.17" fill="white"/>
<path d="M61.2992 118.318C64.2992 118.968 67.5492 118.818 70.5492 118.518C72.5492 118.268 74.5992 118.268 76.6492 118.518C77.2492 118.568 77.8992 118.768 78.4492 118.968C78.1992 118.868 78.5492 119.018 78.5992 119.068C78.7992 119.168 78.3992 118.918 78.6992 119.118C78.8492 119.218 78.4492 119.068 78.7492 119.168C78.5992 119.118 78.6992 119.018 78.6992 119.118C78.6992 119.118 78.8492 119.318 78.7492 119.168C78.6492 119.018 78.8492 119.368 78.7992 119.218C78.7492 119.068 78.8492 119.368 78.8492 119.368C78.8992 119.468 78.9492 119.618 78.8992 119.768C78.8992 120.118 78.7992 120.468 78.6492 120.768C78.2492 121.518 77.5992 122.168 76.7992 122.518C74.2992 123.868 71.3992 124.518 68.6492 125.118C66.6492 125.568 64.6492 125.968 62.5992 126.318C62.0992 126.418 62.3492 126.868 62.5992 127.168C62.8492 127.468 63.5992 128.018 64.1492 127.968C66.0492 127.668 67.8992 127.268 69.7492 126.868C72.6992 126.218 75.7992 125.568 78.4992 124.168C79.9992 123.418 81.7492 121.718 80.7992 119.868C80.1492 118.618 78.7992 117.868 77.5492 117.418C75.8492 116.868 74.0492 116.668 72.2492 116.718C69.3992 116.768 66.5992 117.218 63.7992 117.118C62.5992 117.118 61.4492 116.968 60.2492 116.768C59.7492 116.668 59.5992 116.968 59.8492 117.368C60.1992 117.868 60.7492 118.218 61.2992 118.318Z" fill="#38322D"/>
<path d="M54.6995 117.968C54.6995 117.968 56.1495 117.468 56.5495 118.918C56.9495 120.368 55.0995 120.818 54.3995 119.668C53.9995 119.168 54.0495 118.468 54.5495 118.068C54.5995 118.018 54.6495 118.018 54.6995 117.968Z" fill="#38322D"/>
<path d="M63.1507 112.519C63.1507 112.519 64.6507 112.019 65.0007 113.469C65.3507 114.919 63.5507 115.369 62.8507 114.219C62.4507 113.719 62.5007 113.019 63.0007 112.619C63.0507 112.569 63.1007 112.569 63.1507 112.519Z" fill="#38322D"/>
<path d="M98.5496 214.619C100.35 214.619 138.95 214.119 138.95 214.119L158.5 160.969L230.45 162.019L212.25 223.469H97.8496L98.5496 214.619Z" fill="#38322D"/>
<path d="M98.951 215.669C103.751 215.669 108.551 215.569 113.401 215.469L134.601 215.169L139.351 215.119C139.701 215.119 140.051 214.869 140.151 214.519L142.101 209.269L146.751 196.619L152.401 181.219L157.301 167.969L158.901 163.619C159.201 162.919 159.451 162.269 159.651 161.569L159.701 161.469L158.901 162.069L166.051 162.169L183.251 162.419L204.051 162.719L222.001 162.969L227.901 163.069C228.851 163.069 229.801 163.169 230.701 163.119H230.801L229.301 161.619L227.501 167.769L223.151 182.419L217.901 200.169L213.351 215.569L211.851 220.619C211.551 221.419 211.351 222.219 211.151 223.019C211.151 223.069 211.151 223.069 211.101 223.119L211.901 222.519H102.151C100.701 222.519 99.201 222.469 97.701 222.519H97.501L99.051 223.769L99.751 214.919C99.851 213.719 97.501 213.069 97.401 214.569L96.701 223.419C96.651 224.169 97.651 224.669 98.251 224.669H208.001C209.501 224.669 210.951 224.719 212.451 224.669H212.651C213.001 224.669 213.351 224.419 213.451 224.069L215.251 217.919L219.601 203.269L224.851 185.519L229.401 170.169L230.901 165.119C231.151 164.319 231.401 163.519 231.601 162.719L231.651 162.619C231.901 161.719 230.851 161.119 230.151 161.119L223.001 161.019L205.801 160.769L185.001 160.469L167.001 160.019L161.101 159.919C160.151 159.919 159.201 159.819 158.301 159.869H158.201C157.851 159.869 157.501 160.119 157.401 160.469L155.451 165.719L150.801 178.369L145.151 193.769L140.251 207.019L138.651 211.369C138.351 212.069 138.101 212.719 137.901 213.419L137.851 213.519L138.651 212.919L125.451 213.119L103.901 213.419C102.001 213.419 100.101 213.469 98.201 213.469C97.751 213.469 97.351 213.919 97.401 214.369C97.401 214.469 97.401 214.519 97.451 214.619C97.701 215.269 98.301 215.669 98.951 215.669Z" fill="#38322D"/>
<path d="M137.95 221.819L140.3 214.619L144 203.019L144.85 200.369C144.95 200.069 142.6 199.219 142.5 199.469L140.15 206.669L136.4 218.219L135.55 220.869C135.5 221.219 137.85 222.019 137.95 221.819Z" fill="white"/>
<path d="M176.449 202.719C180.299 204.219 184.999 203.769 188.149 200.919C190.999 198.369 192.049 193.869 190.499 190.319C189.599 188.119 187.399 186.719 184.999 186.819C184.699 186.819 183.899 186.919 184.099 187.419C184.299 187.919 185.249 187.869 185.599 187.869C186.099 187.869 186.649 188.419 186.949 188.769C187.499 189.319 187.899 190.019 188.199 190.719C189.899 195.319 187.499 200.469 182.899 202.119H182.849C181.399 202.619 179.799 202.569 178.299 202.019C177.749 201.769 177.099 201.719 176.549 201.919C176.099 202.119 175.949 202.519 176.449 202.719Z" fill="white"/>
<path d="M140.094 122.906C140.869 124.239 144.381 124.24 143.966 122.906C143.552 121.573 139.32 121.573 140.094 122.906Z" fill="white"/>
</svg>
