<svg width="312" height="313" viewBox="0 0 312 313" fill="none" xmlns="http://www.w3.org/2000/svg">
<path d="M158.558 272.022C158.558 272.022 97.6553 235.893 80.0585 189.654C62.4617 143.416 61.7129 87.256 61.7129 82.8256C61.7129 78.3952 149.635 41.0176 158.558 41.0176C167.481 41.0176 250.785 77.7712 253.281 86.008C255.777 94.2448 239.553 237.64 158.558 272.022Z" fill="#FBC7A2"/>
<path d="M159.306 270.962C154.251 267.966 149.821 264.846 145.016 261.414C134.096 253.677 123.863 245.066 114.253 235.768C103.083 224.848 92.7873 212.555 85.6113 198.64C81.4929 190.715 78.6849 182.104 76.1889 173.555C73.4433 164.133 71.1969 154.586 69.4497 144.914C66.5793 129.314 64.7073 113.589 63.8337 97.7391C63.5841 93.4959 63.3969 89.3151 63.3345 85.0719C63.3345 84.5727 63.3345 84.0735 63.3345 83.5743C63.3345 83.3871 63.3345 83.2623 63.3345 83.0751C63.3345 82.7007 63.3345 83.4495 63.3345 83.1375C63.3345 83.1375 63.1473 83.5119 63.2721 83.3247L63.3969 83.1999C63.3969 83.1999 63.5217 83.0751 63.2721 83.2623C63.3345 83.1999 63.3969 83.1375 63.4593 83.0751C63.7713 82.8255 64.0833 82.5759 64.3953 82.3263C65.3313 81.6399 66.2673 81.0159 67.3281 80.5167C68.8881 79.6431 70.4481 78.7695 72.0081 77.9583C76.1889 75.7743 80.4945 73.7151 84.8001 71.7183C95.7201 66.6639 106.765 61.8591 117.872 57.2415C127.794 53.1231 137.778 49.0671 147.949 45.5103C150.882 44.3871 153.939 43.4511 156.997 42.7023C157.434 42.5775 157.871 42.5151 158.37 42.4527C158.619 42.3903 159.056 42.4527 158.495 42.4527C158.682 42.4527 158.807 42.4527 158.994 42.4527C159.181 42.4527 159.368 42.5151 159.555 42.5151C158.994 42.4527 159.618 42.5151 159.867 42.5775C160.429 42.7023 160.991 42.8271 161.552 43.0143C170.101 45.3231 178.151 48.8175 186.263 52.2495C197.744 57.0543 209.039 62.1711 220.208 67.5999C229.256 72.0303 238.554 76.4607 246.915 82.0767C246.666 81.8895 247.165 82.2015 247.227 82.2639L247.727 82.5759C248.039 82.8255 248.413 83.0751 248.725 83.2623C249.287 83.6367 249.786 84.0735 250.285 84.5103C250.535 84.6975 250.722 84.8847 250.909 85.0719L251.159 85.3215C251.471 85.6335 251.096 85.2591 251.221 85.3839L251.595 85.8831C251.783 86.1327 251.845 86.32 251.72 86.0703C251.783 86.1951 251.783 86.3199 251.845 86.4447C251.783 86.0703 251.97 86.6943 251.845 86.4447C251.845 86.6943 251.907 86.9439 251.907 87.1935C251.97 87.9423 251.97 88.6911 251.97 89.4399C251.907 95.4303 251.221 100.859 250.41 106.725C249.162 116.022 247.415 125.32 245.355 134.493C242.797 145.912 239.615 157.206 235.933 168.314C231.939 180.482 227.072 192.275 221.394 203.757C215.653 215.363 208.789 226.408 200.802 236.642C193.002 246.501 183.954 255.362 173.471 262.413C168.479 265.782 163.175 268.653 157.683 270.962C155.874 271.71 157.871 273.894 159.368 273.27C171.099 268.154 181.77 260.978 190.943 252.054C200.303 243.069 208.227 232.71 214.967 221.666C221.831 210.434 227.696 198.578 232.563 186.347C237.243 174.678 241.237 162.822 244.482 150.717C247.29 140.358 249.661 129.875 251.533 119.267C252.906 111.592 254.029 103.792 254.653 96.0543C254.84 93.7455 254.965 91.4367 254.965 89.1279C254.965 87.7551 254.965 86.2575 254.216 85.0719C252.781 82.8255 250.098 81.2031 247.914 79.7679C244.17 77.2719 240.239 75.0879 236.307 73.0287C225.512 67.2255 214.405 61.9839 203.235 56.9919C192.815 52.3119 182.269 47.7567 171.536 43.8255C168.229 42.5151 164.859 41.3919 161.427 40.5183C159.493 39.9567 157.496 39.9567 155.562 40.3935C152.317 41.2047 149.072 42.2031 145.89 43.3887C141.147 45.0735 136.467 46.8207 131.787 48.6303C120.431 53.0607 109.136 57.8031 97.9665 62.7327C88.2945 66.9759 78.6225 71.2815 69.2625 76.2111C66.5793 77.4591 64.0209 79.0191 61.6497 80.7039C60.9633 81.1407 60.4017 81.7647 60.0897 82.5135C59.9649 83.3871 59.9649 84.2607 60.0273 85.1343C60.2145 96.6159 61.0881 108.098 62.3985 119.454C64.5201 138.237 67.8897 156.894 73.3185 175.053C75.8769 183.664 78.8097 192.213 82.9905 200.138C86.7345 207.189 91.1649 213.866 96.1569 220.106C105.704 232.149 116.874 242.819 128.73 252.554C136.779 259.168 145.203 265.283 154.002 270.899C155.25 271.71 156.498 272.522 157.808 273.27C159.431 274.019 160.991 271.96 159.306 270.962Z" fill="#FBC7A2"/>
<path d="M158.995 256.423C158.995 256.423 106.517 225.285 91.2911 185.412C76.0655 145.538 75.5039 97.1157 75.5039 93.2469C75.5039 89.3781 151.32 57.1797 159.058 57.1797C166.733 57.1797 238.618 88.8789 240.801 95.9925C242.986 103.106 228.883 226.783 158.995 256.423Z" fill="white"/>
<path d="M159.807 255.112C155.564 252.554 151.446 249.746 147.515 246.938C138.092 240.261 129.231 232.835 120.995 224.786C111.385 215.363 102.524 204.818 96.2842 192.774C92.7274 185.973 90.2938 178.61 88.1722 171.246C85.801 163.134 83.8666 154.898 82.369 146.536C79.873 133.12 78.2506 119.579 77.4394 105.914C77.2522 102.294 77.065 98.6128 77.0026 94.9936V93.6832C77.0026 93.5584 77.0026 93.3712 77.0026 93.2464C76.9402 92.872 76.8778 93.5584 76.9402 93.3712C76.8154 93.808 76.8154 93.6832 76.9402 93.4336C76.6906 93.808 76.753 93.6208 77.0026 93.4336L77.3146 93.1216C77.377 93.0592 77.4394 92.9968 77.5018 92.9968C77.1274 93.2464 77.689 92.8096 77.5018 92.9968C82.993 89.2528 89.2954 86.5072 95.2858 83.7616C104.646 79.3936 114.068 75.2752 123.615 71.344C132.164 67.7872 140.713 64.3552 149.449 61.2976C152.07 60.2992 154.753 59.488 157.436 58.8016L158.06 58.6768C158.622 58.552 157.873 58.6768 158.31 58.6144C158.559 58.6144 158.871 58.6144 159.121 58.552C158.684 58.552 158.996 58.552 159.246 58.552L159.807 58.6768C160.307 58.8016 160.806 58.864 161.243 59.0512C164.175 59.8624 167.046 60.8608 169.916 61.984C174.159 63.6064 178.403 65.2912 182.583 67.0384C192.443 71.1568 202.239 75.5872 211.911 80.2672C219.711 84.0736 227.699 87.9424 234.937 92.7472L235.811 93.3088C235.498 93.1216 235.935 93.4336 236.06 93.496L236.497 93.808C236.996 94.1824 237.433 94.4944 237.87 94.8688C238.244 95.1808 238.556 95.4928 238.868 95.8672L239.055 96.0544C239.18 96.1792 238.868 95.68 238.993 95.992C239.055 96.1168 239.18 96.304 239.242 96.4288C239.242 96.1168 239.43 96.6784 239.242 96.4288C239.242 96.4912 239.305 96.616 239.305 96.6784C239.305 96.8656 239.367 97.1152 239.367 97.3024C239.305 96.6784 239.367 97.1776 239.367 97.3648C239.367 97.552 239.367 97.6768 239.367 97.864C239.367 98.2384 239.367 98.5504 239.367 98.9248C239.243 103.979 238.806 109.034 237.994 114.026C236.871 122.075 235.436 129.875 233.689 137.738C231.505 147.597 228.759 157.331 225.577 166.941C222.145 177.362 217.964 187.595 213.097 197.454C208.167 207.501 202.177 217.048 195.251 225.846C188.636 234.27 180.836 241.883 171.913 247.811C167.607 250.682 162.99 253.178 158.185 255.237C157.499 255.611 157.187 256.485 157.561 257.234C157.998 257.982 158.871 257.982 159.62 257.67C169.791 253.24 179.027 247 186.951 239.262C194.939 231.4 201.927 222.602 207.731 212.992C213.659 203.258 218.775 193.024 222.956 182.416C227.012 172.37 230.444 162.136 233.252 151.653C235.686 142.605 237.745 133.494 239.367 124.322C240.553 117.707 241.551 111.093 242.05 104.416C242.238 102.419 242.362 100.422 242.362 98.4256C242.362 97.24 242.425 95.8048 241.738 94.744C240.553 92.7472 238.182 91.312 236.247 90.064C233.003 87.9424 229.633 86.0704 226.263 84.1984C216.966 79.2064 207.419 74.7136 197.747 70.408C188.823 66.4144 179.775 62.4832 170.603 59.1136C167.67 57.9904 164.675 56.992 161.679 56.1808C159.995 55.744 158.247 55.6816 156.563 56.1184C153.755 56.8048 151.071 57.6784 148.388 58.6768C144.27 60.112 140.214 61.672 136.22 63.232C126.361 67.1008 116.564 71.2192 106.83 75.4624C98.4682 79.144 90.1066 82.8256 82.057 87.0688C79.7482 88.192 77.5018 89.5024 75.4426 91.0624C74.8186 91.4992 74.3194 92.0608 74.0074 92.8096C73.8826 93.5584 73.8202 94.3696 73.945 95.1808C74.1322 105.102 74.881 115.024 76.0042 124.883C77.8138 141.045 80.6842 157.206 85.3642 172.806C87.6106 180.232 90.1066 187.72 93.7258 194.584C96.9706 200.637 100.715 206.378 105.02 211.744C113.257 222.165 122.867 231.4 133.163 239.762C140.089 245.44 147.39 250.744 154.94 255.674C156.001 256.36 157.124 257.046 158.247 257.733C159.683 258.606 161.492 256.11 159.807 255.112Z" fill="#FBC7A2"/>
<path d="M47.9243 207.065L64.3979 193.649C64.8347 193.275 64.7723 192.963 64.1483 192.9C63.3995 192.838 62.6507 193.087 62.0267 193.524L45.5531 206.94C45.1163 207.315 45.1787 207.627 45.8027 207.689C46.5515 207.751 47.3003 207.564 47.9243 207.065Z" fill="#FBC7A2"/>
<path d="M34.7581 170.686C42.3709 169.001 50.1085 167.816 57.9085 167.067C58.1581 167.067 57.0349 166.505 56.9101 166.505C56.3485 166.256 55.6621 166.131 55.0381 166.068C47.2381 166.755 39.5005 167.94 31.8877 169.688C31.6381 169.75 32.7613 170.249 32.8237 170.249C33.5101 170.561 34.1341 170.686 34.7581 170.686Z" fill="#FBC7A2"/>
<path d="M33.0724 131.312C40.1236 131.187 47.1124 132.248 53.7892 134.369C54.4756 134.432 55.162 134.244 55.6612 133.808C55.8484 133.683 56.7844 132.747 56.2228 132.56C49.3588 130.376 42.2452 129.315 35.0692 129.44C34.3204 129.502 33.634 129.814 33.1348 130.313C32.8852 130.5 32.3236 131.312 33.0724 131.312Z" fill="#FBC7A2"/>
<path d="M260.77 137.3L279.303 131.559C280.426 131.185 279.178 128.377 277.992 128.751L259.46 134.492C258.336 134.804 259.522 137.674 260.77 137.3Z" fill="#FBC7A2"/>
<path d="M256.963 169.25H279.052C279.489 169.25 280.176 169.063 279.739 168.563C279.302 168.064 278.241 167.939 277.68 167.939H255.59C255.153 167.939 254.467 168.127 254.904 168.626C255.34 169.125 256.401 169.25 256.963 169.25Z" fill="#FBC7A2"/>
<path d="M249.226 193.086C254.967 198.265 261.456 202.571 268.445 205.878C268.944 206.128 269.132 205.941 268.882 205.441C268.508 204.755 267.946 204.256 267.322 203.881C260.708 200.824 254.655 196.768 249.226 191.901C249.039 191.713 248.228 191.027 248.04 191.526C247.853 192.025 248.976 192.899 249.226 193.086Z" fill="#FBC7A2"/>
<path d="M197.683 114.651C191.007 118.021 182.832 113.278 180.211 108.286C177.591 103.294 182.021 102.733 184.267 102.982C186.514 103.232 189.696 105.978 189.696 105.978C195.687 100.237 188.511 96.8048 185.827 99.9872C183.144 103.17 180.835 104.23 178.651 102.296C176.467 100.362 176.967 96.5553 180.274 92.9984C183.581 89.4417 188.947 90.1281 188.947 90.1281C188.947 90.1281 172.411 77.4609 178.402 73.8417C184.392 70.2225 196.061 84.7617 196.061 84.7617C196.061 84.7617 191.007 75.7137 194.875 73.3425C198.744 70.9713 205.483 78.3969 209.04 91.4385C209.04 91.4385 214.407 106.726 216.715 131.062C216.715 131.062 222.394 170.998 216.403 177.675C210.413 184.352 182.083 171.373 182.083 171.373L176.842 145.102L193.627 145.477L194.314 116.086" fill="white"/>
<path d="M196.185 114.338C194.064 115.461 191.63 115.648 189.321 114.899C186.95 114.026 184.828 112.591 183.206 110.656C182.02 109.283 180.336 106.85 181.084 104.915C181.396 104.291 181.958 103.792 182.582 103.605C183.144 103.418 183.768 103.355 184.392 103.355H184.641H184.579L184.329 103.293C184.516 103.418 184.704 103.48 184.891 103.543C185.452 103.792 185.952 104.104 186.451 104.416C187.075 104.853 187.699 105.29 188.26 105.789C188.697 106.039 189.196 106.226 189.696 106.288C190.008 106.351 190.944 106.538 191.193 106.288C192.878 104.666 194.812 101.733 192.504 99.7986C191.38 98.9874 190.07 98.4881 188.635 98.4257C187.449 98.2385 186.264 98.4258 185.14 98.9874C184.579 99.3618 184.142 99.7986 183.768 100.36C183.144 101.109 182.332 101.795 181.521 102.357C181.209 102.544 180.897 102.669 180.585 102.794C180.46 102.856 180.211 102.856 180.148 102.919C180.086 102.981 181.272 103.355 180.835 103.043C180.211 102.669 179.712 102.107 179.337 101.483C177.715 98.4258 180.46 94.1826 182.894 92.4353C184.267 91.4993 185.889 90.8753 187.574 90.6881C188.073 90.6257 188.51 90.6257 189.009 90.6257C189.134 90.6257 189.758 90.6881 189.134 90.6257H189.321C189.384 90.6257 190.756 90.6257 190.444 90.3761C188.884 89.1905 187.324 87.8177 185.889 86.5073C183.456 84.2609 180.897 81.8273 179.337 78.8945C178.838 77.8961 178.339 76.6481 178.776 75.5873C178.963 75.0881 179.337 74.6513 179.774 74.4017C180.024 74.2145 180.336 74.0897 180.648 73.9649C180.772 73.9025 180.96 73.9025 181.084 73.8401C181.147 73.8401 181.521 73.7777 181.334 73.8401C181.396 73.8401 181.459 73.8401 181.584 73.8401C181.396 73.8401 181.459 73.9025 181.584 73.8401C181.084 73.7777 181.708 73.9025 181.459 73.8401C181.209 73.7777 181.584 73.9025 181.646 73.9025C181.334 73.8401 181.833 73.9649 181.896 73.9649C181.833 73.9649 182.27 74.0897 182.395 74.1521C183.206 74.4641 183.955 74.9009 184.641 75.3377C186.264 76.3985 187.761 77.5841 189.134 78.8945C191.131 80.7041 192.94 82.6385 194.688 84.7601C195.062 85.1969 196.06 85.2593 196.56 85.3217C196.747 85.3217 197.932 85.4465 197.683 85.0721C196.684 83.2625 195.873 81.2657 195.374 79.2689C195.062 77.9585 194.875 76.5233 195.312 75.2129C195.499 74.6513 195.936 74.1521 196.435 73.8401C196.622 73.7153 196.747 73.6529 196.934 73.5905C197.121 73.5281 197.246 73.5281 197.433 73.4657C197.308 73.5281 197.246 73.4657 197.371 73.4657H197.059C196.809 73.4657 196.996 73.4657 197.059 73.4657C196.934 73.4657 196.809 73.4033 196.684 73.4033C196.684 73.4033 196.934 73.4657 197.059 73.5281C197.558 73.7777 198.057 74.0897 198.556 74.4641C199.742 75.4625 200.803 76.6481 201.676 77.9585C204.172 81.6401 206.044 85.7585 207.23 90.0641C208.166 93.3713 209.227 96.6162 210.038 99.9234C212.097 108.16 213.595 116.459 214.593 124.883C215.092 128.815 215.529 132.746 215.966 136.677C216.59 142.231 217.152 147.784 217.401 153.338C217.713 159.141 217.963 165.007 217.152 170.747C216.964 172.744 216.465 174.679 215.654 176.488C214.843 178.048 213.345 178.859 211.598 179.109C210.537 179.296 209.414 179.296 208.353 179.234H208.166L207.667 179.171L207.168 179.109H206.98H206.856C206.169 179.047 205.483 178.922 204.734 178.797L204.422 178.735L204.048 178.36C203.673 178.298 203.236 178.173 202.862 178.111C202.113 177.923 201.489 177.799 200.865 177.611C199.368 177.237 197.932 176.738 196.497 176.301C192.254 174.928 188.073 173.306 184.017 171.559L183.331 171.247L183.768 171.559L182.02 162.698L179.212 148.595L178.588 145.351L177.777 145.538L192.441 145.85L194.563 145.912C194.625 145.912 195.374 145.975 195.374 145.725L195.624 135.803L195.998 120.016L196.06 116.335C196.06 115.711 193.003 115.461 193.003 115.835L192.753 125.757L192.379 141.544L192.316 145.226L193.128 145.039L178.464 144.727L176.342 144.664C176.28 144.664 175.468 144.664 175.531 144.851L178.526 159.952L180.336 169C180.398 169.687 180.523 170.373 180.71 170.997C180.835 171.371 181.272 171.496 181.646 171.621C187.137 174.055 192.816 176.176 198.619 177.799C202.425 178.922 206.356 179.671 210.288 179.92C212.784 180.045 216.153 179.983 218.025 178.048C219.585 176.426 220.022 173.805 220.334 171.621C220.771 168.189 220.958 164.695 220.896 161.2C220.771 153.712 220.272 146.287 219.398 138.861C219.148 136.677 218.899 134.493 218.587 132.309C218.088 128.627 217.776 124.946 217.276 121.327C216.091 112.403 214.219 103.543 211.723 94.8689C209.788 88.2545 207.792 81.2033 203.049 76.0241C201.988 74.7761 200.616 73.7777 199.056 73.1537C197.496 72.5921 195.436 72.2177 193.876 72.9041C190.507 74.4641 192.504 79.6433 193.502 82.0769C193.876 82.9505 194.313 83.8241 194.75 84.6353L197.745 84.9473C196.185 83.0129 194.5 81.2033 192.691 79.5185C189.82 76.7729 186.451 74.0897 182.457 73.1537C180.71 72.7793 178.464 72.5297 176.904 73.6529C175.968 74.2769 175.531 75.4625 175.78 76.5857C176.155 78.0209 176.904 79.3937 177.84 80.5793C178.963 82.0769 180.211 83.4497 181.584 84.7601C183.456 86.6321 185.515 88.3793 187.574 90.0017L188.697 89.7521C186.513 89.5025 184.267 89.7521 182.208 90.5009C178.963 91.6865 176.03 95.1186 175.905 98.6754C175.78 102.232 179.524 104.104 182.769 103.543C184.641 103.231 186.014 101.858 187.2 100.485C187.574 100.048 188.011 99.6113 188.572 99.3617C188.76 99.2993 188.947 99.237 189.134 99.1746C189.446 99.1122 189.633 99.1746 189.196 99.1122C188.76 99.0498 188.947 99.0498 189.196 99.1746C189.384 99.2994 189.571 99.4242 189.758 99.549C190.195 99.9234 190.444 100.485 190.569 101.047C190.819 102.794 189.508 104.416 188.323 105.539L191.318 106.039C189.571 104.416 187.449 103.293 185.203 102.669C183.331 102.295 180.336 102.045 178.776 103.48C176.841 105.29 178.776 108.41 180.086 109.97C182.083 112.341 184.704 114.151 187.699 115.087C191.38 116.335 195.686 116.647 199.243 114.899C199.617 114.712 198.307 114.338 198.244 114.338C197.62 114.275 196.747 114.026 196.185 114.338Z" fill="#38322D"/>
<path d="M192.878 107.037C191.692 107.1 190.569 106.725 189.695 105.914L192.878 107.037Z" fill="white"/>
<path d="M192.503 105.852C192.378 105.852 192.253 105.852 192.066 105.852H192.503C192.128 105.852 191.816 105.789 191.504 105.727L191.879 105.852C191.629 105.789 191.317 105.665 191.068 105.602L191.442 105.789C191.192 105.665 190.943 105.54 190.756 105.353L191.068 105.602C190.943 105.54 190.88 105.415 190.756 105.353C190.444 105.103 190.069 104.916 189.632 104.853C189.258 104.791 188.884 104.853 188.572 105.041C188.322 105.228 188.135 105.477 188.135 105.789C188.135 106.101 188.322 106.476 188.572 106.663C189.445 107.474 190.506 107.973 191.692 108.161C192.191 108.285 192.69 108.285 193.189 108.285C193.501 108.285 193.876 108.161 194.125 107.911C194.312 107.661 194.375 107.349 194.25 107.037C194 106.226 193.252 105.789 192.503 105.852Z" fill="#38322D"/>
<path d="M199.555 88.2549C199.493 88.1301 199.43 87.9429 199.368 87.8181C199.243 87.5685 199.118 87.3189 198.994 87.0693C198.744 86.5077 198.494 85.9461 198.245 85.3845C198.182 85.1973 198.058 85.0725 198.058 84.8853C197.995 84.5733 197.621 84.3237 197.371 84.1989C196.997 84.0117 196.56 83.9493 196.186 84.0117C195.811 84.0741 195.499 84.1989 195.25 84.4485C195.062 84.6357 195 84.9477 195.062 85.2597C195.125 85.3845 195.187 85.5717 195.25 85.6965C195.374 85.9461 195.499 86.1957 195.624 86.4453C195.874 87.0069 196.123 87.5685 196.373 88.1301C196.435 88.3173 196.498 88.4421 196.56 88.6293C196.622 88.9413 196.997 89.1909 197.246 89.3157C197.621 89.5029 198.058 89.5653 198.432 89.5029C198.806 89.4405 199.118 89.3157 199.368 89.0661C199.555 88.8789 199.618 88.5669 199.555 88.2549Z" fill="#38322D"/>
<path d="M174.158 173.432C174.158 173.432 198.307 183.228 198.993 180.046C199.68 176.864 191.318 141.92 191.318 141.92C191.318 141.92 158.433 140.547 153.878 141.233C149.323 141.92 174.158 173.432 174.158 173.432Z" fill="#38322D"/>
<path d="M197.494 180.982C192.128 180.982 176.028 174.492 174.032 173.681H173.969L173.907 173.619C173.844 173.556 168.291 166.505 162.987 159.079C152.129 143.916 152.878 142.107 153.065 141.483C153.19 141.171 153.44 140.921 153.814 140.921C158.369 140.235 190.006 141.545 191.316 141.607H191.566L191.628 141.857C191.94 143.292 200.052 176.988 199.304 180.171C199.241 180.42 199.054 180.67 198.804 180.795C198.43 180.919 197.931 180.982 197.494 180.982ZM174.344 173.119C180.334 175.553 196.121 181.481 198.492 180.233C198.617 180.171 198.68 180.046 198.68 179.983C199.241 177.55 193.937 154.337 191.067 142.231C188.072 142.107 158.182 140.859 153.939 141.545C153.814 141.545 153.752 141.607 153.689 141.732C152.628 144.228 165.483 161.887 174.344 173.119Z" fill="#38322D"/>
<path d="M138.84 147.533C138.84 147.533 107.016 154.896 94.0371 170.996L119.559 193.834L147.639 185.348L138.84 147.533Z" fill="#38322D"/>
<path d="M119.433 194.147L93.5996 170.997L93.7868 170.747C106.641 154.773 138.465 147.285 138.777 147.16L139.089 147.098L139.152 147.41L147.95 185.474L119.433 194.147ZM94.4732 170.934L119.62 193.461L147.201 185.099L138.59 147.909C135.283 148.658 106.641 156.083 94.4732 170.934Z" fill="#38322D"/>
<path d="M126.483 219.357C126.483 219.357 120.68 152.09 147.075 141.794C173.47 131.498 191.504 208.624 191.504 208.624C191.504 208.624 152.004 234.208 126.483 219.357Z" fill="#38322D"/>
<path d="M145.079 224.286C138.527 224.286 132.038 222.976 126.359 219.669L126.234 219.606V219.419C125.423 207.75 125.548 196.081 126.609 184.475C128.294 167.877 133.223 146.973 147.014 141.544C150.82 140.046 155.126 140.296 158.745 142.355C167.106 146.785 175.281 159.265 182.893 179.483C186.45 188.968 189.445 198.702 191.879 208.561L191.941 208.749L191.754 208.873C191.317 209.061 167.543 224.286 145.079 224.286ZM126.796 219.169C151.007 233.022 188.197 210.309 191.13 208.437C190.194 204.63 177.465 152.901 158.37 142.854C154.938 140.92 150.82 140.608 147.201 142.105C121.929 151.965 126.484 215.488 126.796 219.169Z" fill="#38322D"/>
<path d="M166.983 127.879C166.983 127.879 178.964 129.626 180.711 124.697C182.458 119.767 174.845 121.327 174.845 121.327C174.845 121.327 183.207 111.031 171.039 109.845C171.039 109.845 180.773 101.858 172.474 95.2439C164.175 88.6295 148.637 93.9335 148.637 93.9335C148.637 93.9335 148.575 83.1383 136.282 85.1351C123.989 87.1319 127.296 93.4343 127.296 93.4343C127.296 93.4343 119.434 94.6199 119.372 98.3015C119.309 101.983 125.362 103.169 125.362 103.169C125.362 103.169 128.108 113.652 138.778 111.593L149.76 124.385C149.76 124.385 146.328 129.377 150.509 134.181C154.69 138.986 167.856 134.681 166.983 127.879Z" fill="#38322D"/>
<path d="M166.421 129.126C169.853 129.625 173.722 129.75 177.091 128.814C179.4 128.19 181.522 126.88 182.208 124.446C182.583 123.448 182.458 122.325 181.896 121.451C181.272 120.64 180.399 120.141 179.4 119.953C177.84 119.641 176.155 119.704 174.595 120.078L175.968 121.888C178.277 119.017 180.773 113.776 177.466 110.718C175.906 109.283 173.597 108.784 171.538 108.534L171.85 110.656C175.906 107.349 179.213 101.233 175.656 96.4286C170.851 89.939 161.367 90.0638 154.253 91.2494C152.256 91.5614 150.259 92.0606 148.387 92.6846L150.01 93.4958C149.947 89.7518 147.888 86.3822 144.581 84.635C140.899 82.8254 136.344 83.4494 132.6 84.5726C129.855 85.3838 126.61 86.9438 125.611 89.8766C125.112 91.2494 125.175 92.747 125.799 94.0574L127.421 92.0606C124.8 92.435 122.055 93.2462 119.933 94.8686C118.56 95.9294 117.562 97.5518 117.874 99.299C118.186 101.046 119.683 102.357 121.243 103.168C122.304 103.729 123.49 104.166 124.675 104.416L123.802 103.542C124.925 107.723 128.107 111.405 132.226 112.59C134.41 113.152 136.656 113.214 138.903 112.715L137.53 112.465L147.139 123.635L148.45 125.257V123.697C145.642 127.816 146.515 134.368 151.32 136.552C155.688 138.549 161.554 136.989 165.173 134.118C167.232 132.496 168.667 130.062 168.355 127.379C168.168 125.694 165.235 126.693 165.36 128.19C165.423 128.939 165.298 129.688 164.986 130.374C164.674 130.998 164.237 131.622 163.675 132.121C163.051 132.745 162.303 133.245 161.491 133.557L160.743 133.931C160.743 133.931 160.431 134.056 160.68 133.931L160.368 134.056C159.869 134.243 159.307 134.43 158.808 134.555C157.123 134.992 155.376 134.992 153.754 134.555C153.005 134.368 152.256 133.931 151.695 133.369C150.696 132.309 150.01 130.998 149.76 129.563C149.635 128.44 149.76 127.317 150.135 126.256C150.259 125.881 150.447 125.507 150.634 125.133C150.696 125.008 150.759 124.945 150.821 124.821C150.634 125.257 150.696 125.07 150.759 124.945C151.133 124.509 151.133 123.822 150.759 123.385L141.835 112.84L140.151 110.843C140.026 110.656 139.839 110.531 139.651 110.406C139.09 110.157 138.466 110.406 137.842 110.469C137.28 110.531 136.781 110.593 136.219 110.593C133.349 110.593 130.666 109.221 128.919 106.912C128.856 106.849 128.794 106.725 128.731 106.662L128.482 106.288C128.295 106.038 128.107 105.726 127.983 105.477C127.733 105.04 127.483 104.541 127.296 104.041C127.171 103.667 127.047 103.355 126.859 102.981C126.672 102.606 126.922 103.293 126.859 102.981C126.859 102.918 126.859 102.918 126.797 102.856C126.735 102.419 126.36 102.045 125.923 101.982C125.674 101.92 125.487 101.857 125.237 101.795L124.987 101.733C124.8 101.67 125.175 101.795 124.863 101.67C124.551 101.545 124.301 101.483 123.989 101.358C122.803 100.859 121.68 100.235 121.119 99.1118C120.931 98.675 120.869 98.1758 120.931 97.6766C120.931 97.739 121.056 97.427 121.056 97.3646C120.931 97.5518 121.119 97.3022 121.119 97.2398C121.119 97.1774 121.431 96.8654 121.368 96.9902C121.306 97.115 121.618 96.7406 121.68 96.7406C121.743 96.7406 122.055 96.491 121.93 96.5534C121.805 96.6158 122.179 96.4286 122.242 96.3662C122.554 96.179 122.866 96.0542 123.178 95.867C123.24 95.8046 123.615 95.6798 123.552 95.6798L123.864 95.555C124.239 95.4302 124.551 95.3054 124.863 95.243C125.424 95.0558 125.986 94.931 126.61 94.8062C126.797 94.7438 126.984 94.7438 127.171 94.6814C127.483 94.619 126.735 94.7438 127.047 94.6814C127.92 94.5566 129.168 93.7454 128.669 92.6846C128.669 92.6222 128.607 92.5598 128.607 92.4974C128.607 92.435 128.544 92.3726 128.544 92.3102C128.607 92.3726 128.607 92.5598 128.544 92.2478C128.482 91.9982 128.419 91.7486 128.419 91.4366C128.419 91.3118 128.419 90.875 128.419 91.2494C128.419 91.0622 128.419 90.875 128.482 90.7502C128.482 90.6254 128.669 90.0638 128.544 90.4382C128.607 90.251 128.669 90.0638 128.794 89.8766C128.856 89.8142 128.856 89.6894 128.919 89.627C128.794 89.8766 128.856 89.6894 128.981 89.5646L129.168 89.315C129.231 89.2526 129.48 88.9406 129.355 89.0654C129.231 89.1902 129.48 88.9406 129.543 88.9406L129.917 88.6286L130.229 88.379C130.229 88.379 130.416 88.2542 130.291 88.3166C130.167 88.379 130.479 88.1918 130.479 88.1918C131.103 87.8174 131.727 87.5054 132.413 87.3182C135.533 86.2574 139.527 85.571 142.522 86.819C143.52 87.1934 144.456 87.8798 145.143 88.691C145.205 88.8158 145.33 88.8782 145.392 89.003C145.267 88.8158 145.455 89.0654 145.455 89.1278C145.579 89.315 145.767 89.5646 145.891 89.7518C146.141 90.1886 146.328 90.6254 146.515 91.0622L146.64 91.3742C146.64 91.4366 146.765 91.7486 146.703 91.6238C146.64 91.499 146.765 91.7486 146.765 91.811L146.827 92.123C146.89 92.4974 147.015 92.8718 147.077 93.2462C147.139 93.6206 147.139 93.9326 147.202 94.307C147.202 95.0558 148.325 95.3054 148.824 95.1182C150.197 94.6814 151.632 94.307 153.067 93.995C154.44 93.683 155.813 93.4958 157.186 93.371C158.871 93.1838 160.618 93.1214 162.303 93.1838C165.61 93.371 169.042 94.2446 171.6 96.4286C172.973 97.4894 173.909 98.987 174.283 100.672C174.471 101.982 174.221 103.293 173.659 104.478C173.098 105.726 172.287 106.849 171.351 107.785L171.039 108.097C171.039 108.097 171.226 107.91 170.976 108.16L170.539 108.597C170.415 108.721 170.29 108.846 170.103 108.971C169.416 109.533 169.229 110.968 170.415 111.093C171.351 111.155 172.287 111.342 173.16 111.592C173.784 111.779 174.346 112.091 174.845 112.403C175.095 112.59 175.282 112.777 175.469 112.965C175.656 113.152 175.469 112.902 175.594 113.089C175.656 113.214 175.719 113.339 175.843 113.464C176.093 113.838 176.155 114.213 176.155 114.649C176.155 114.774 176.155 114.899 176.155 115.024C176.155 114.837 176.155 115.211 176.155 115.024C176.155 115.086 176.155 115.149 176.155 115.211C176.155 115.461 176.093 115.773 176.031 116.022C175.968 116.272 175.906 116.521 175.843 116.771C175.781 117.021 175.843 116.709 175.843 116.709C175.843 116.709 175.781 116.833 175.781 116.896C175.781 116.958 175.656 117.145 175.656 117.27C175.469 117.707 175.282 118.144 175.032 118.581C174.907 118.768 174.845 118.955 174.72 119.142L174.658 119.267C174.783 119.08 174.595 119.392 174.533 119.454C174.283 119.891 173.971 120.265 173.659 120.64C173.285 121.014 173.285 121.638 173.535 122.075C173.909 122.449 174.471 122.637 174.97 122.449C175.282 122.387 175.032 122.449 174.907 122.449C175.157 122.449 175.407 122.387 175.656 122.325C175.968 122.325 176.28 122.262 176.592 122.262H177.403C177.778 122.262 177.091 122.2 177.528 122.262C177.84 122.325 178.215 122.325 178.527 122.449C178.901 122.512 178.339 122.387 178.589 122.449L178.839 122.574L179.026 122.637C179.275 122.761 178.901 122.512 179.088 122.699C179.151 122.761 179.463 123.136 179.275 122.886C179.338 122.949 179.525 123.385 179.4 123.136C179.525 123.51 179.525 123.885 179.4 124.197C179.338 124.321 179.338 124.446 179.275 124.571C179.213 124.696 179.151 124.821 179.088 124.883C179.088 124.821 179.213 124.633 179.088 124.883C179.026 124.945 178.589 125.382 178.901 125.133C178.776 125.257 178.589 125.382 178.402 125.507C178.714 125.257 178.152 125.632 178.09 125.694C178.027 125.757 177.778 125.881 177.591 125.944C177.154 126.131 177.903 125.819 177.466 126.006L177.216 126.069C176.967 126.131 176.717 126.193 176.467 126.318C175.594 126.505 174.658 126.693 173.722 126.693C172.786 126.755 171.85 126.755 170.914 126.755L170.165 126.693C170.103 126.693 169.791 126.693 170.103 126.693H169.728C169.354 126.693 168.979 126.63 168.605 126.568C168.231 126.505 167.919 126.505 167.607 126.443C166.795 126.318 165.984 126.755 165.672 127.441C165.423 127.941 165.61 128.565 166.109 128.877C166.171 129.064 166.296 129.126 166.421 129.126Z" fill="#38322D"/>
<path d="M158.184 147.658C158.933 144.85 155.002 128.252 155.002 128.252C155.002 128.252 161.491 128.127 162.115 121.014C162.739 113.9 155.438 113.214 152.006 120.39C152.006 120.39 144.331 105.85 148.325 97.8008C148.325 97.8008 134.722 106.599 126.173 104.977C126.173 104.977 117.499 129.438 124.488 138.548C130.541 146.473 136.282 145.911 136.282 145.911L136.968 147.534L139.526 156.894L158.184 147.658Z" fill="white"/>
<path d="M159.181 148.906C159.368 147.783 159.305 146.597 159.118 145.474C158.931 143.602 158.557 141.793 158.245 139.983C157.621 136.738 156.934 133.431 156.185 130.186C156.185 130.061 155.936 129.562 155.998 129.437C155.936 129.5 156.373 129.437 156.497 129.437C157.683 129.313 158.869 128.876 159.867 128.189C161.552 127.066 162.675 125.319 162.987 123.322C163.486 121.138 163.049 118.829 161.677 117.02C160.366 115.21 158.869 113.713 156.497 114.212C153.939 114.773 152.192 117.02 151.131 119.204L153.003 121.45C152.129 119.765 151.381 118.018 150.694 116.209C149.259 112.714 148.448 108.97 148.198 105.226C148.073 103.105 148.51 100.983 149.384 99.0486C149.571 98.7366 147.637 96.4902 147.449 96.5526C143.705 98.9862 139.712 100.921 135.531 102.356C132.598 103.354 129.416 104.165 126.233 103.853C125.984 103.853 125.485 103.666 125.297 103.791C125.235 103.853 125.173 104.103 125.173 104.165C124.985 104.727 124.798 105.289 124.611 105.85C123.051 110.717 121.99 115.647 121.304 120.701C120.68 126.005 120.368 132.121 123.238 136.863C124.424 138.735 125.797 140.42 127.357 141.98C128.605 143.29 130.04 144.413 131.6 145.349C133.222 146.41 135.094 146.972 137.029 147.097H137.278L135.469 144.85C135.656 145.349 135.905 145.849 136.093 146.348C136.217 146.597 136.03 146.223 136.093 146.41L136.155 146.785L136.966 149.842L138.589 155.708C138.651 156.02 140.149 158.266 140.461 158.141L156.747 150.092L159.056 148.969C159.118 148.969 157.558 146.285 157.121 146.473L140.897 154.522L138.589 155.645L140.523 158.017L138.901 152.026C138.651 151.028 138.339 149.967 138.089 148.969C137.84 148.282 137.59 147.596 137.216 146.909C136.966 146.41 136.592 145.911 136.217 145.474C136.093 145.287 135.656 144.663 135.406 144.663C134.158 144.725 132.91 144.476 131.787 143.977C130.414 143.415 129.166 142.729 128.043 141.793C127.232 141.169 126.545 140.545 125.859 139.796C125.547 139.484 125.297 139.172 124.985 138.797C124.923 138.735 124.549 138.173 124.736 138.548C124.923 138.797 124.736 138.485 124.673 138.423C123.488 136.301 123.051 133.805 122.864 131.372C122.677 128.501 122.801 125.631 123.238 122.761C123.925 117.956 124.985 113.151 126.421 108.533C126.608 107.972 126.795 107.41 126.982 106.786C126.982 106.661 127.107 106.225 127.169 106.162C127.232 106.1 127.981 106.287 128.168 106.287C128.542 106.349 128.854 106.349 129.229 106.349C129.977 106.349 130.664 106.349 131.413 106.225C132.973 106.037 134.47 105.725 135.968 105.226C140.71 103.791 145.203 101.669 149.321 98.9862L147.387 96.4902C145.702 99.9222 146.077 104.041 146.888 107.66C147.637 110.967 148.76 114.212 150.195 117.332C150.507 117.956 150.819 118.642 151.131 119.266C151.443 119.765 151.755 120.265 152.129 120.701C152.192 120.764 152.941 121.575 152.941 121.513C153.877 119.516 155.374 117.581 157.496 116.77C158.245 116.458 159.056 116.396 159.867 116.521C160.241 116.583 160.616 116.708 160.928 116.895C161.053 116.957 161.24 117.145 161.365 117.207C160.616 116.77 160.366 115.647 160.741 116.458C161.614 118.455 161.177 121.201 160.179 123.073C159.43 124.508 158.12 125.693 156.622 126.317C155.811 126.692 154.937 126.879 154.001 126.941V127.004C155.312 132.183 156.373 137.487 157.121 142.791C157.246 143.914 157.496 145.225 157.246 146.348C157.184 146.722 157.87 147.409 158.057 147.658C158.182 147.908 159.181 148.906 159.181 148.906Z" fill="#38322D"/>
<path d="M132.726 130.561C132.726 130.561 116.751 136.551 111.884 128.627C107.017 120.702 117.999 114.025 128.857 119.142" fill="white"/>
<path d="M132.224 129.626C130.851 130.126 129.478 130.5 128.105 130.812L127.232 130.999L126.733 131.124H126.67L126.358 131.186C125.609 131.311 124.923 131.436 124.174 131.498C122.739 131.686 121.304 131.748 119.868 131.623C118.558 131.561 117.248 131.186 116.062 130.625C114.814 130.001 113.816 129.065 113.192 127.817C112.38 126.444 112.131 124.822 112.505 123.324C112.942 121.951 113.816 120.828 115.001 120.079C118.745 117.521 123.987 118.207 127.856 120.017C128.542 120.391 129.416 120.266 130.04 119.767C130.414 119.518 130.539 118.956 130.227 118.582C130.164 118.457 130.04 118.332 129.852 118.27C125.235 116.148 119.806 115.462 115.001 117.458C111.569 118.831 108.449 122.076 109.198 126.07C110.633 134.182 120.43 134.431 126.795 133.246C128.979 132.871 131.1 132.31 133.16 131.561C133.721 131.374 134.47 130.874 134.096 130.188C133.721 129.502 132.785 129.377 132.224 129.626Z" fill="#38322D"/>
<path d="M146.203 128.064C146.203 128.064 145.454 131.372 142.209 131.247L146.203 128.064Z" fill="white"/>
<path d="M145.017 127.066C144.767 128.002 144.33 128.813 143.582 129.437C143.27 129.749 142.833 129.937 142.396 130.124L142.521 130.061C142.084 130.186 141.585 130.249 141.086 130.249C140.898 130.249 141.023 130.498 141.023 130.561C141.21 130.81 141.398 131.06 141.647 131.309C141.959 131.559 142.271 131.871 142.583 132.058C142.77 132.245 143.02 132.308 143.27 132.37C144.33 132.433 145.329 132.058 146.14 131.309C146.639 130.81 147.014 130.186 147.263 129.562C147.326 129.437 147.388 129.313 147.388 129.125C147.388 128.938 147.326 128.751 147.201 128.626C146.951 128.314 146.702 128.065 146.452 127.815C146.202 127.565 145.89 127.378 145.578 127.191C145.516 127.191 145.079 126.941 145.017 127.066Z" fill="#38322D"/>
<path d="M129.107 115.773C129.294 116.459 128.857 117.146 128.233 117.27C128.171 117.27 128.171 117.27 128.108 117.27C126.798 117.458 126.548 115.835 127.609 115.274C128.108 114.962 128.732 115.086 129.044 115.586C129.044 115.648 129.107 115.71 129.107 115.773Z" fill="#38322D"/>
<path d="M96.9067 171.371C96.9067 171.371 79.6219 183.976 83.3035 193.461C86.9851 202.946 119.496 213.866 119.496 213.866C119.496 213.866 116.688 215.925 119.371 219.045C122.054 222.165 129.417 223.787 130.977 220.293C132.537 216.798 127.483 215.862 127.483 215.862C127.483 215.862 132.038 217.547 133.91 214.115C135.782 210.683 129.792 209.31 129.792 209.31C129.792 209.31 134.784 210.558 135.096 205.754C135.408 200.949 127.233 200.949 127.233 200.949V194.646C127.233 194.646 123.115 195.333 121.43 198.89L114.067 188.781L96.9067 171.371Z" fill="white"/>
<path d="M96.283 171.185C93.0382 173.556 90.1054 176.301 87.4846 179.297C84.115 183.103 79.8094 188.969 81.9934 194.397C82.7422 196.269 84.3022 197.767 85.7998 199.015C87.859 200.7 90.1054 202.197 92.4766 203.508C97.6558 206.378 103.022 208.937 108.576 211.121C110.697 211.994 112.819 212.805 114.941 213.617C116.001 214.053 117.062 214.49 118.185 214.802C118.248 214.802 118.31 214.802 118.31 214.865L118.934 213.804C117.499 214.865 116.438 216.549 117.062 218.359C117.873 220.668 120.432 222.103 122.678 222.789C124.862 223.538 127.296 223.476 129.48 222.477C131.227 221.604 133.598 219.42 132.413 217.236C131.726 216.05 130.104 215.364 128.793 215.114C128.169 214.989 127.421 215.489 126.984 215.863C126.859 215.988 125.861 216.737 126.36 216.924C128.793 217.735 131.477 217.298 133.473 215.738C134.659 214.865 135.969 213.367 135.657 211.807C135.408 210.684 134.347 209.935 133.411 209.436C132.662 209.061 131.913 208.749 131.102 208.562C130.541 208.437 129.729 208.937 129.293 209.311C129.168 209.373 128.169 210.247 128.669 210.372C131.352 210.996 134.909 209.623 136.094 207.002C136.781 205.442 136.718 203.57 135.47 202.322C134.347 201.324 132.912 200.7 131.414 200.513C130.416 200.325 129.355 200.201 128.357 200.201L128.669 200.45V194.085C128.669 193.898 128.544 193.836 128.357 193.836C125.112 194.397 121.742 196.581 120.245 199.514L122.865 198.204L118.31 191.964C117.374 190.466 116.313 189.093 115.19 187.783L102.71 175.053L98.2798 170.561C97.7182 169.999 95.2846 171.809 95.659 172.183L106.579 183.29L112.195 189.031C113.193 190.154 114.067 191.277 114.941 192.525L120.245 199.764C120.681 200.388 122.616 198.89 122.865 198.453C123.177 197.829 123.552 197.205 124.051 196.706L124.363 196.457C124.363 196.457 124.737 196.145 124.613 196.269C124.675 196.269 124.987 196.02 124.862 196.145C124.987 196.082 125.049 196.02 125.174 196.02L125.299 195.957L125.673 195.833C125.923 195.77 125.549 195.833 125.798 195.77L126.048 195.708C126.173 195.645 126.921 195.521 126.36 195.583L126.048 195.333V201.636C126.048 201.823 126.173 201.885 126.36 201.885C128.232 201.885 130.041 202.26 131.726 203.071C132.849 203.57 133.661 204.631 133.848 205.879C133.91 206.69 133.785 207.564 133.411 208.25C133.286 208.5 132.912 208.749 133.286 208.5L133.473 208.375C133.473 208.375 133.286 208.5 133.411 208.375C133.286 208.437 133.536 208.25 133.411 208.375H133.286C132.537 208.562 131.789 208.562 131.102 208.375L128.669 210.185C130.229 210.559 132.849 211.495 133.037 213.367C133.037 214.053 132.787 214.677 132.35 215.239C132.35 215.177 132.725 215.177 132.35 215.239C132.038 215.301 131.726 215.364 131.352 215.364C130.478 215.364 129.605 215.239 128.793 214.989L126.36 216.799C127.233 216.986 128.107 217.298 128.856 217.86C129.417 218.234 129.792 218.796 129.979 219.482C130.041 219.857 129.979 220.231 129.854 220.605C129.792 220.855 129.542 221.417 129.417 221.417C129.542 221.354 129.667 221.292 129.729 221.167C129.667 221.167 129.605 221.229 129.48 221.229C129.043 221.354 128.669 221.354 128.232 221.354C127.296 221.354 126.36 221.229 125.486 220.98C123.614 220.543 121.929 219.545 120.619 218.109C119.87 217.173 119.309 215.988 119.745 214.802C119.87 214.49 119.995 214.241 120.245 213.991C120.432 213.741 120.245 213.991 120.307 213.929C120.557 213.741 120.12 214.053 120.182 214.053C120.245 214.053 121.305 213.18 120.806 212.993C118.248 212.119 115.689 211.183 113.131 210.185C107.827 208.125 102.648 205.817 97.5934 203.196C95.0974 201.885 92.6638 200.45 90.4174 198.828C88.5454 197.58 86.923 196.082 85.6126 194.273C82.4926 189.842 85.363 184.289 88.2334 180.545C89.9182 178.361 91.7902 176.364 93.8494 174.554C94.5982 173.868 95.4094 173.181 96.1582 172.557L96.4078 172.37C96.1582 172.557 96.4702 172.308 96.4078 172.37L96.7822 172.058L97.3438 171.621L97.531 171.497C97.7806 171.309 98.5918 170.748 98.155 170.436C97.7182 170.124 96.595 170.997 96.283 171.185Z" fill="#38322D"/>
<path d="M120.368 205.503C118.496 206.377 117.747 208.561 118.246 210.495C118.808 212.991 120.867 214.676 122.989 215.799C123.613 216.111 123.613 215.175 123.488 214.863C123.301 214.177 122.802 213.553 122.178 213.178C121.866 212.991 121.554 212.804 121.304 212.617C121.117 212.492 120.992 212.367 120.805 212.305L120.555 212.118C120.742 212.305 120.493 212.055 120.493 212.055L120.306 211.868L120.181 211.743C120.118 211.681 120.118 211.681 120.243 211.806C120.181 211.743 120.118 211.681 120.056 211.556C119.931 211.431 120.243 211.806 120.056 211.556C119.869 211.306 120.118 211.743 120.056 211.556C119.931 211.494 119.994 211.369 120.056 211.556C119.994 211.431 119.994 211.369 119.994 211.244C119.994 211.369 120.056 211.431 119.994 211.244C119.994 211.119 119.994 211.057 119.994 210.994C119.994 211.119 119.994 210.994 119.994 210.932C119.994 210.745 119.994 210.62 120.056 210.433C120.118 210.121 120.243 209.809 120.43 209.559C120.742 208.935 121.304 208.498 121.928 208.186C122.115 208.124 122.115 207.687 122.115 207.562C122.053 207.188 121.928 206.814 121.741 206.502C121.491 206.127 120.93 205.254 120.368 205.503Z" fill="#38322D"/>
<path d="M121.056 199.95C119.621 201.073 118.872 202.945 119.122 204.755C119.496 206.627 121.181 207.812 122.678 208.811C123.365 209.31 125.923 207.625 125.237 207.188C123.926 206.315 122.429 205.316 121.992 203.631C121.805 202.945 121.805 202.196 121.992 201.51C122.054 201.198 122.242 200.886 122.366 200.574C122.429 200.511 122.429 200.449 122.491 200.387L122.616 200.199L122.741 200.075C122.803 200.012 123.053 199.825 122.803 200.012C123.053 199.763 123.677 199.139 122.99 199.076C122.304 199.201 121.555 199.451 121.056 199.95Z" fill="#38322D"/>
<path d="M187.073 209.998C187.947 215.739 192.752 220.481 192.252 226.471C192.19 227.22 193.376 227.095 193.812 226.971C194.499 226.783 195.06 226.159 195.123 225.411C195.56 219.358 190.817 214.678 189.944 208.937C189.756 207.564 186.886 208.812 187.073 209.998Z" fill="#38322D"/>
<path d="M131.227 221.791V235.519C131.227 236.33 131.913 236.954 132.662 236.954C133.348 237.017 134.347 236.58 134.347 235.769V222.041C134.347 221.229 133.66 220.605 132.911 220.605C132.225 220.543 131.227 220.98 131.227 221.791Z" fill="#38322D"/>
<path d="M150.882 235.954C154.314 239.823 157.995 243.505 161.927 246.874C162.426 247.311 163.424 247.311 164.048 247.311C164.36 247.311 165.171 247.186 164.672 246.75C160.866 243.442 157.247 239.886 153.939 236.079C153.565 235.642 152.629 235.58 152.067 235.518C151.88 235.518 150.57 235.58 150.882 235.954Z" fill="#38322D"/>
<path d="M138.341 117.023C138.653 116.024 139.339 115.213 140.213 114.651C140.338 114.589 139.527 113.778 139.464 113.778C139.277 113.591 139.09 113.403 138.84 113.279C138.778 113.216 138.591 113.091 138.528 113.154C137.655 113.653 136.968 114.527 136.656 115.525C136.656 115.587 136.781 115.775 136.843 115.837C137.031 116.024 137.218 116.211 137.405 116.399C137.592 116.586 137.779 116.773 138.029 116.898C138.029 116.835 138.341 117.085 138.341 117.023Z" fill="#38322D"/>
<path d="M208.665 267.842C219.107 267.842 227.572 259.377 227.572 248.935C227.572 238.492 219.107 230.027 208.665 230.027C198.223 230.027 189.758 238.492 189.758 248.935C189.758 259.377 198.223 267.842 208.665 267.842Z" fill="#38322D"/>
<path d="M226.012 248.809C226.012 256.173 221.457 262.787 214.656 265.408C207.729 267.904 199.992 265.845 195.312 260.166C190.632 254.425 190.008 246.376 193.752 239.949C198.681 231.712 209.352 229.029 217.588 233.958C222.83 237.141 226.012 242.757 226.012 248.809C226.012 249.621 226.636 250.307 227.448 250.307C228.134 250.369 229.132 249.87 229.132 249.059C229.07 237.702 219.897 228.592 208.54 228.592C202.488 228.592 196.747 231.275 192.878 235.955C187.387 242.569 186.638 251.929 191.006 259.293C196.809 269.027 209.414 272.147 219.148 266.344C224.265 263.286 227.822 258.107 228.82 252.179C229.008 251.118 229.07 250.12 229.07 249.059C229.07 248.248 228.446 247.561 227.635 247.561C227.011 247.499 226.075 247.998 226.012 248.809Z" fill="#38322D"/>
<path d="M199.742 250.182L206.481 255.798C206.793 256.048 207.604 255.798 207.854 255.611C208.353 255.424 208.79 255.05 209.102 254.613L216.715 238.95C217.027 238.326 216.153 238.264 215.779 238.389C215.03 238.514 214.406 238.95 214.032 239.637L206.419 255.299L209.04 254.114L202.3 248.498C201.552 247.874 198.931 249.496 199.742 250.182Z" fill="white"/>
</svg>
