<svg width="250" height="251" viewBox="0 0 250 251" fill="none" xmlns="http://www.w3.org/2000/svg">
<path d="M152 194.719H105.75L102 220.269H155.75L152 194.719Z" fill="white"/>
<path d="M151.15 193.869H105.6C105.4 193.869 105.2 193.869 105 193.869C104.95 193.869 104.95 193.869 104.9 193.869H104.85L103.6 202.519L101.6 216.269L101.15 219.469C101.1 219.769 101.65 220.169 101.8 220.369C101.95 220.569 102.55 221.219 102.9 221.219H155.85C156.1 221.269 156.35 221.269 156.55 221.219C156.6 221.219 156.6 221.219 156.65 221.219C156.7 221.219 156.75 221.219 156.7 221.119L155.45 212.469L153.45 198.719L153 195.519C152.95 195.119 152.25 194.619 151.95 194.369C151.85 194.319 151.1 193.719 151.15 193.969L153.55 210.619L154.75 218.869C154.8 219.069 154.85 219.319 154.85 219.519C154.85 219.519 155 219.519 154.8 219.469C154.35 219.419 153.9 219.419 153.45 219.469H105.75C104.3 219.469 102.8 219.419 101.35 219.469H101.15L102.9 221.169L105 206.719L106.3 197.869C106.45 197.169 106.55 196.469 106.6 195.769C106.6 195.669 106.65 195.569 106.55 195.619C106.6 195.569 106.8 195.619 106.85 195.619H140.25C144.35 195.619 148.45 195.669 152.55 195.619H152.75C153 195.619 152.35 194.869 152.25 194.869C152.1 194.569 151.55 193.869 151.15 193.869Z" fill="#38322D"/>
<path d="M44.8492 62.8184H212.499C216.449 62.8184 219.649 66.0184 219.649 69.9684V187.968C219.649 191.918 216.449 195.118 212.499 195.118H44.8492C40.8992 195.118 37.6992 191.918 37.6992 187.968V70.0184C37.6992 66.0184 40.8992 62.8184 44.8492 62.8184Z" fill="white"/>
<path d="M45.1997 63.9196H212.8C216.1 63.9696 218.65 66.2696 218.7 69.6696C218.7 71.4696 218.7 73.2196 218.7 75.0196V181.57C218.7 183.57 218.75 185.57 218.7 187.57C218.6 191.12 215.75 193.97 212.2 194.07H48.6997C47.2997 194.07 45.8997 194.07 44.5497 194.07C41.1997 194.02 38.6997 191.67 38.6497 188.32C38.6497 187.77 38.6497 187.27 38.6497 186.72V72.2196C38.6497 71.6196 38.6497 71.0196 38.6497 70.4196C38.7497 66.8696 41.5997 64.0196 45.1997 63.9196C46.5497 63.9196 45.4997 61.6696 44.4997 61.7196C40.1497 61.7696 36.6497 65.3196 36.6997 69.6696C36.6997 70.2196 36.6997 70.7696 36.6997 71.2696V186.17C36.6997 186.67 36.6997 187.12 36.6997 187.62C36.7497 192.17 40.5997 196.17 45.1997 196.27C46.4497 196.27 47.6997 196.27 48.8997 196.27H212C212.45 196.27 212.9 196.27 213.35 196.27C217.6 196.02 220.65 192.47 220.65 188.32C220.65 186.42 220.65 184.47 220.65 182.57V75.4196C220.65 73.7196 220.65 72.0196 220.65 70.3696C220.6 65.8196 216.75 61.8196 212.15 61.7196H44.4997C43.1997 61.7196 44.1997 63.9196 45.1997 63.9196Z" fill="#38322D"/>
<path d="M44.8492 61.3184H212.499C216.449 61.3184 219.699 64.5184 219.699 68.4684V167.318H37.6992V68.5184C37.6992 64.5684 40.8992 61.3684 44.8492 61.3184Z" fill="#38322D"/>
<path d="M44.9492 62.5191H212.499C215.549 62.5691 218.299 64.5691 218.549 67.7691C218.699 69.5191 218.549 71.2691 218.549 73.0191V167.269L219.499 166.219H44.9992C42.6492 166.219 40.2492 166.069 37.8992 166.219H37.5992L38.7492 167.519V70.2691C38.7492 67.9691 38.9492 65.9191 40.7992 64.1691C41.9492 63.1191 43.3992 62.5691 44.9492 62.5191C46.4492 62.5191 45.9992 60.1191 44.7492 60.1191C41.2492 60.1191 38.1492 62.3191 37.0492 65.6191C36.7492 66.6191 36.5992 67.7191 36.6492 68.7691V162.619C36.6492 164.069 36.5992 165.569 36.6492 167.019V167.219C36.6492 167.769 37.1992 168.519 37.7992 168.519H212.399C214.749 168.519 217.099 168.519 219.499 168.519H219.799C220.449 168.519 220.749 168.069 220.749 167.469V69.5191C220.799 68.4691 220.699 67.3691 220.449 66.3691C219.399 62.7691 216.149 60.2191 212.449 60.1191C211.249 60.1191 210.049 60.1191 208.899 60.1191H44.7492C43.2992 60.1191 43.6992 62.5191 44.9492 62.5191Z" fill="#38322D"/>
<path d="M128.899 185.17C130.943 185.17 132.599 183.513 132.599 181.47C132.599 179.426 130.943 177.77 128.899 177.77C126.856 177.77 125.199 179.426 125.199 181.47C125.199 183.513 126.856 185.17 128.899 185.17Z" fill="white"/>
<path d="M128.848 178.819C128.948 178.819 129.048 178.819 129.148 178.819C129.398 178.819 129.148 178.819 129.098 178.819C129.248 178.869 129.448 178.869 129.598 178.919C129.648 178.919 129.948 179.069 129.648 178.919L129.848 179.019L130.098 179.169C130.148 179.219 130.398 179.369 130.148 179.219C130.298 179.319 130.398 179.419 130.498 179.519L130.648 179.669C130.848 179.869 130.548 179.469 130.698 179.769C130.798 179.919 130.898 180.019 130.948 180.169L131.048 180.319C130.948 180.119 131.098 180.419 131.098 180.469C131.148 180.619 131.198 180.819 131.248 180.969C131.248 181.069 131.298 181.119 131.298 181.219C131.298 181.019 131.298 181.219 131.298 181.269C131.298 181.419 131.298 181.619 131.298 181.769C131.298 181.869 131.298 181.919 131.248 182.019C131.298 181.819 131.248 182.119 131.198 182.119C131.148 182.269 131.098 182.419 131.048 182.569C130.998 182.669 130.948 182.769 130.948 182.819C130.948 182.769 131.048 182.669 130.948 182.819C130.848 182.969 130.748 183.069 130.648 183.219C130.648 183.219 130.448 183.469 130.548 183.319C130.648 183.169 130.398 183.469 130.348 183.469C130.248 183.569 130.098 183.669 129.948 183.769C129.998 183.719 130.148 183.669 129.948 183.769L129.698 183.869L129.498 183.919C129.198 184.019 129.748 183.869 129.448 183.919L129.248 183.969C129.198 183.969 128.848 184.019 128.998 184.019C129.148 184.019 128.848 184.019 128.848 184.019H128.648C128.598 184.019 128.248 183.969 128.598 184.019L128.398 183.969C128.248 183.919 128.048 183.869 127.898 183.819C128.198 183.919 127.898 183.819 127.848 183.769C127.748 183.719 127.698 183.669 127.598 183.619C127.598 183.619 127.348 183.419 127.498 183.569C127.648 183.719 127.398 183.469 127.398 183.469C127.298 183.369 127.148 183.269 127.048 183.119C126.848 182.919 127.098 183.219 126.998 183.069L126.848 182.869C126.798 182.819 126.798 182.769 126.748 182.719C126.698 182.669 126.548 182.319 126.648 182.519C126.498 182.219 126.448 181.919 126.398 181.619C126.398 181.419 126.398 181.869 126.398 181.569C126.398 181.469 126.398 181.419 126.398 181.319C126.398 181.119 126.398 180.969 126.448 180.769C126.398 181.019 126.498 180.669 126.498 180.669C126.498 180.569 126.548 180.469 126.598 180.369C126.648 180.319 126.648 180.219 126.698 180.119C126.748 180.019 126.898 179.769 126.748 179.969C126.848 179.819 126.948 179.669 127.098 179.519C127.148 179.469 127.198 179.419 127.248 179.369C127.098 179.569 127.298 179.319 127.298 179.319C127.448 179.169 127.598 179.069 127.748 178.969C127.498 179.119 127.798 178.969 127.848 178.919C127.898 178.869 127.998 178.819 128.098 178.819C128.098 178.819 128.398 178.719 128.198 178.769C127.998 178.819 128.398 178.719 128.448 178.719L128.648 178.669C128.798 178.669 128.798 178.669 128.598 178.669L128.848 178.819C129.448 178.819 130.148 178.469 130.148 177.819C130.098 177.169 129.548 176.719 128.948 176.719C126.898 176.719 125.048 177.919 124.248 179.819C123.548 181.669 124.148 183.769 125.648 185.069C127.298 186.369 129.548 186.569 131.398 185.569C133.198 184.569 134.148 182.569 133.748 180.569C133.348 178.319 131.148 176.719 128.948 176.719C128.298 176.669 127.748 177.119 127.648 177.719C127.698 178.319 128.198 178.819 128.848 178.819Z" fill="#38322D"/>
<path d="M212.2 68.8184H44.8496V160.218H212.2V68.8184Z" fill="white"/>
<path d="M44 69.5699H208.8C209.55 69.6199 210.3 69.6199 211.05 69.5699C211.15 69.5699 211.25 69.5699 211.35 69.5699L211.1 69.3699V157.02C211.1 158.22 211 159.42 211.1 160.62C211.1 160.67 211.1 160.72 211.1 160.77L213 159.52H48.15C47.4 159.47 46.65 159.47 45.9 159.52C45.8 159.52 45.7 159.52 45.6 159.52L45.85 159.72V72.0699C45.95 70.8699 45.95 69.6699 45.85 68.4699C45.85 68.4199 45.85 68.3699 45.85 68.3199C45.85 67.8199 43.7 68.7699 43.7 69.4199V157.02C43.6 158.22 43.6 159.42 43.7 160.62C43.7 160.67 43.7 160.72 43.7 160.77C43.7 160.92 43.8 160.97 43.95 160.97H204.5C206.65 160.97 208.85 161.02 211 160.97H211.3C211.75 160.97 213.2 160.27 213.2 159.72V72.0699C213.3 70.8699 213.3 69.6699 213.2 68.4699C213.2 68.4199 213.2 68.3699 213.2 68.3199C213.2 68.1699 213.1 68.1199 212.95 68.1199H52.45C50.3 68.1199 48.1 68.0699 45.95 68.1199H45.65C45.05 68.2199 44.55 68.4699 44.1 68.9199C43.95 69.0699 43.45 69.5699 44 69.5699Z" fill="#38322D"/>
<path d="M36.5496 71.0703C36.5496 71.0703 45.7496 84.0203 45.8496 84.3203C45.9496 84.6203 43.7996 86.4703 42.9496 85.5203C42.0996 84.5703 33.3496 72.5203 33.3496 72.5203L36.5496 71.0703Z" fill="#FBBF24"/>
<path d="M35.6995 71.5208C38.4995 75.4208 41.2995 79.3208 43.9995 83.3208C44.2495 83.6708 44.4995 84.0208 44.6995 84.3708C44.7495 84.4708 44.7995 84.5708 44.8995 84.6708C45.0495 84.8708 44.7995 84.4708 44.7995 84.5208C44.7995 84.5708 44.6495 83.8708 44.7995 83.7708C44.5495 83.9208 44.3995 84.2208 44.1495 84.3708C43.9995 84.4708 43.7995 84.5708 43.6495 84.6708C43.4995 84.7208 43.3495 84.7708 43.2495 84.7708C43.2995 84.6708 43.7495 85.0708 43.7495 85.1208C43.6995 85.0708 43.6995 85.0208 43.6495 85.0208L43.3495 84.6208C41.6495 82.4208 39.9995 80.1708 38.3995 77.9208C36.9995 76.0208 35.5995 74.0708 34.1995 72.1208L33.9995 73.5208L37.2495 72.0708C38.4495 71.5208 36.8995 69.6208 35.7995 70.0708L32.5995 71.5208C32.0495 71.7708 32.1995 72.5708 32.4995 72.9708C35.5495 77.1708 38.4995 81.3708 41.6495 85.4708C41.9495 85.8708 42.2995 86.2708 42.7495 86.5208C43.6495 87.0208 44.7495 86.9208 45.5995 86.3208C46.1995 85.9208 47.0995 85.2708 46.9495 84.4208C46.8495 84.0708 46.6995 83.7208 46.4495 83.4708C44.9495 81.1708 43.2995 78.9208 41.6995 76.6708C40.2995 74.6708 38.8495 72.6208 37.3995 70.6208C37.0995 70.1708 36.3995 69.7708 35.8495 70.0708C35.2995 70.3708 35.3995 71.0708 35.6995 71.5208Z" fill="#FBBF24"/>
<path d="M37.1492 70.9207L69.2992 58.7707C69.2992 58.7707 50.9492 33.5207 50.5492 33.9207C50.1492 34.3207 30.6992 62.6707 30.6992 62.6707L37.1492 70.9207Z" fill="#FBBF24"/>
<path d="M37.8008 72.0209L48.6508 67.9209L65.9508 61.3709L69.9508 59.8709C70.5008 59.6709 70.5508 58.8209 70.2508 58.4209C67.9508 55.2709 65.6508 52.1709 63.3508 49.0209C59.9008 44.3709 56.5008 39.6709 52.9008 35.1209C52.3508 34.4209 50.8008 31.9709 49.6508 33.0709C49.3008 33.4209 49.0508 33.8709 48.7508 34.2709C48.2508 34.9709 47.7508 35.6709 47.2508 36.4209C43.8508 41.2709 40.5008 46.1209 37.1508 51.0209L32.3508 58.0209C31.5008 59.2709 30.5508 60.5209 29.7508 61.8209L29.6508 61.9709C29.3508 62.4209 29.7008 63.0209 29.9508 63.3709L36.4008 71.6709C36.7508 72.1709 37.4508 72.2709 37.9508 71.9209C38.4508 71.4709 38.1508 70.7709 37.8008 70.3209L31.3508 62.0209L31.6508 63.3709L37.6508 54.6209C41.1008 49.6209 44.5008 44.6709 47.9508 39.6709C49.0008 38.1709 50.0008 36.6709 51.0508 35.2209C51.1508 35.0709 51.3008 34.9209 51.4008 34.7709C51.5008 34.6209 51.1508 35.0209 51.3008 34.8709C50.9508 35.0709 50.4508 35.0709 50.1008 34.8709C50.1008 34.8709 49.8008 34.5709 50.0008 34.7709L50.2008 35.0209C50.4008 35.2709 50.6008 35.4709 50.8008 35.7209C52.2008 37.4709 53.5508 39.2209 54.9008 41.0209L55.5008 41.8209L55.8508 42.2709L56.0008 42.4709L56.1008 42.5709L57.5008 44.4209L60.3008 48.2209C62.0008 50.5209 63.7008 52.8209 65.3508 55.1209C66.3008 56.4209 67.1508 57.7209 68.1508 58.9709C68.2008 59.0209 68.2508 59.0709 68.3008 59.1709L68.6008 57.7209L57.7508 61.8209L40.5008 68.3709L36.5008 69.8709C35.2508 70.3709 36.6008 72.4209 37.8008 72.0209Z" fill="#FBBF24"/>
<path d="M53.899 44.22C53.899 44.22 65.899 60.47 69.299 58.72C72.699 56.97 63.399 43.67 58.149 38.42C52.899 33.17 52.499 32.92 50.499 33.87C48.499 34.82 53.899 44.22 53.899 44.22Z" fill="#38322D"/>
<path d="M52.7009 44.1713C55.0009 47.3213 57.5009 50.3213 60.1009 53.1713C61.7509 54.9713 63.5509 56.8713 65.6509 58.1713C66.6009 58.7713 67.7009 59.1713 68.8009 59.2713C69.6009 59.3213 70.5509 59.3213 71.0009 58.5713C71.4509 57.8213 71.2009 56.9213 71.0509 56.1713C70.7009 54.9213 70.2009 53.7213 69.5509 52.5713C67.9509 49.5713 66.0509 46.6713 63.9509 43.9713C61.8009 41.2213 59.5009 38.6213 57.0009 36.2213C55.2509 34.5213 53.1509 32.6213 50.4509 33.2713C49.8009 33.4213 49.0009 33.6713 48.9009 34.4213C48.7009 35.3713 49.1509 36.5213 49.5009 37.3713C50.3509 39.5713 51.3509 41.7213 52.5009 43.7713L52.7009 44.1713C52.9009 44.5213 53.8009 44.5713 54.2009 44.6213C54.3509 44.6213 55.3009 44.6713 55.1009 44.3713C54.2509 42.9213 53.5009 41.4213 52.8009 39.8713C52.2509 38.7713 51.8509 37.6213 51.5009 36.4213C51.3509 35.8713 51.0509 34.7713 51.5009 34.2713C51.7009 34.1213 52.0009 33.9713 52.2509 33.9213L52.4509 33.8713C52.6009 33.8213 52.5509 33.7713 52.5009 33.8713C52.4509 33.9713 52.5509 33.8713 52.6009 33.8713C52.7509 33.8713 52.4009 33.8713 52.4009 33.8713C52.2009 33.8713 51.9509 33.8213 51.7509 33.7713C51.5509 33.6713 51.9009 33.8213 51.7509 33.7713C51.9509 33.8713 51.7509 33.7713 51.8509 33.8213C52.0509 33.9213 52.2509 34.0213 52.4009 34.1713C52.9009 34.5213 53.3509 34.9213 53.8009 35.3213C56.2009 37.5213 58.4509 39.8713 60.5009 42.4213C62.5509 44.9213 64.4009 47.6213 66.0509 50.3713C66.7509 51.5713 67.4009 52.8213 68.0009 54.0713C68.4509 54.9713 68.7009 55.9713 68.8009 56.9713C68.9009 57.5713 68.6509 58.2213 68.1009 58.5713C67.9509 58.5713 68.0509 58.6213 68.1009 58.5713C68.3509 58.5713 68.5509 58.6213 68.8009 58.6713C68.5509 58.6213 68.9509 58.7213 68.7509 58.6713C68.7009 58.6213 68.6009 58.6213 68.5509 58.5713C68.7009 58.6213 68.4509 58.5213 68.4009 58.4713L68.1009 58.3213C66.2009 57.2213 64.6009 55.5213 63.1009 53.9213C60.3009 50.9713 57.8509 47.7213 55.3009 44.5713L55.1509 44.3713C54.9009 44.0213 54.0509 43.9713 53.6509 43.9213C53.5009 43.9213 52.5009 43.8713 52.7009 44.1713Z" fill="#38322D"/>
<path d="M38.3999 71.4707C38.3999 71.4707 34.2999 74.6207 33.8999 74.1707C33.4999 73.7207 25.6999 65.1207 26.3999 64.7707C27.0999 64.4207 30.0999 61.7207 30.5999 61.9207C31.0999 62.1207 38.3999 71.4707 38.3999 71.4707Z" fill="#38322D"/>
<path d="M37.3 70.8201C36.7 71.3201 36.05 71.7701 35.4 72.2201C34.9 72.5701 34.45 72.8701 33.9 73.1701C33.7 73.2701 33.55 73.3701 33.35 73.4701C32.95 73.6201 32.85 73.4201 33.45 73.7201L34.55 74.3701C35.2 74.9201 34.65 74.4201 34.45 74.2201L33.6 73.3201C32.8 72.4201 32 71.5201 31.2 70.6201C30.4 69.7201 29.55 68.6701 28.75 67.6701C28.2 67.0701 27.75 66.4201 27.35 65.6701C27.25 65.4701 27.3 65.4701 27.55 65.3201C28.05 64.9701 28.5 64.6201 28.95 64.2201C29.5 63.7701 30.05 63.3701 30.6 62.9701C30.8 62.8701 31 62.7701 31.2 62.6201C31.25 62.6201 31.3 62.6201 31.3 62.5701C31.65 62.5701 31.4 62.4201 30.6 62.1701C30.3 62.0201 30 61.8701 29.7 61.6701L29.75 61.7201L29.9 61.8701L30.3 62.3201C30.65 62.7201 30.95 63.0701 31.25 63.4701C32.05 64.4201 32.85 65.4201 33.65 66.4201C34.9 67.9701 36.1 69.4701 37.3 71.0201C37.7 71.4201 38.2 71.7701 38.7 71.9701C38.85 72.0201 39.55 72.3201 39.25 71.9201C37.75 70.0201 36.25 68.1201 34.75 66.2701C33.85 65.1701 33 64.0701 32.05 63.0201C31.3 62.1701 29.95 60.8201 28.75 61.4701C28.05 61.9201 27.4 62.3701 26.75 62.9201C26.4 63.1701 26.1 63.4201 25.8 63.6701C25.65 63.7701 25.25 63.9701 25.15 64.1201C25.05 64.2701 25.25 64.6701 25.4 64.8201C25.7 65.2701 26 65.7701 26.35 66.1701C28.2 68.5701 30.25 70.8701 32.25 73.1201C32.6 73.5201 33 73.9201 33.45 74.2201C33.85 74.5201 34.55 74.9701 35.1 74.8701C35.4 74.8201 35.65 74.6701 35.9 74.5201C37.15 73.8201 38.35 72.9701 39.45 72.0701C39.6 71.9701 38.6 71.2701 38.5 71.2201C38.3 71.1701 37.55 70.6201 37.3 70.8201Z" fill="#38322D"/>
<path d="M61.5001 52.3702C62.1001 51.3202 62.4001 50.1202 62.3001 48.9702C62.2001 47.7702 61.7001 46.6702 60.9001 45.8202C60.0501 44.9702 58.9001 44.4202 57.7001 44.2702C56.2501 44.0202 54.7501 44.1202 53.3501 44.4202L55.5001 45.2202C56.3501 44.6202 57.3501 44.3202 58.3501 44.3702C58.2501 44.3702 58.5501 44.4202 58.4501 44.3702C58.3501 44.3202 58.5501 44.4202 58.5501 44.4202C58.7501 44.5202 58.9501 44.6202 59.1001 44.7702C59.5001 45.1202 59.8501 45.5202 60.1001 45.9702C61.2001 47.8702 60.8001 50.2702 59.2001 51.7702C58.8501 52.0702 59.8001 52.4202 59.9501 52.4702C60.3501 52.5702 61.1501 52.8202 61.5001 52.5202C63.6501 50.6702 63.6501 47.4202 61.8501 45.3702C60.7501 44.0702 59.0501 43.5702 57.4001 43.4702C55.9501 43.3702 54.5001 43.7702 53.2501 44.5702C52.9001 44.7702 53.7501 45.1702 53.8501 45.2202C54.3501 45.4202 54.9001 45.4702 55.4001 45.3702C55.9001 45.2702 56.4001 45.1702 56.9501 45.1702C57.3001 45.1202 57.6001 45.1702 57.9501 45.2202C57.8001 45.1702 58.0001 45.2702 58.0001 45.2702C58.1501 45.3202 58.3001 45.4202 58.4001 45.5202C58.7001 45.7702 58.9501 46.0702 59.1501 46.4202C60.2001 48.1702 60.0501 50.1702 59.1001 51.9202C58.8501 52.1702 61.1501 53.0202 61.5001 52.3702Z" fill="white"/>
<path d="M62.2001 40.5203C61.3001 38.5203 61.9501 36.1203 63.3501 34.5203C64.9501 32.6703 67.4501 32.0203 69.8001 32.0203C71.8501 31.9703 73.8501 32.4703 75.7001 33.3703C77.6001 34.3703 79.3001 35.7703 80.7501 37.3703C82.2001 38.9703 83.4001 40.8703 84.2001 42.8703C84.9001 44.6203 85.6001 46.7203 84.8501 48.5703C84.7001 48.9703 84.5001 49.2703 84.2001 49.5703C84.0501 49.6703 83.9001 49.7703 83.7501 49.8703C83.7001 49.8703 83.6001 49.9203 83.5501 49.9203C83.4501 49.9203 83.4001 49.9203 83.3001 49.9203L84.5001 50.3703C84.3501 50.1703 83.9501 49.9203 83.7501 49.7203C83.5501 49.5203 83.3001 49.3203 83.1001 49.0703C82.7001 48.6203 82.3001 48.1203 81.9501 47.6203C80.4501 45.6703 79.5501 43.3203 79.4001 40.8703C79.3001 38.6203 79.9501 36.3703 81.3001 34.5203C82.7001 32.7703 84.6501 31.6203 86.8501 31.3203C88.8501 30.9703 90.9501 31.2203 92.8501 31.9203C94.9001 32.8203 96.7001 34.1703 98.2001 35.7703C99.8001 37.4203 101.1 39.3703 102.05 41.4203C102.55 42.5203 102.95 43.6203 103.25 44.7703C103.55 45.9203 103.8 47.2703 103.05 48.3203C102.5 49.0703 101.55 49.4703 100.65 49.3703L100.35 49.3203C101.3 49.2203 101.2 49.8203 100.95 49.5203C100.8 49.3703 100.6 49.2203 100.4 49.0703C100 48.6203 99.7001 48.0703 99.5001 47.5203C98.8001 45.5203 99.1001 43.1703 99.9501 41.2703C101.75 37.2703 105.5 34.5203 109.8 33.9703C111.8 33.6703 113.85 33.9703 115.65 34.7703C117.65 35.7703 119.4 37.2203 120.75 38.9703C121.45 39.8203 122.05 40.7703 122.6 41.7703C122.8 42.1203 123.65 42.3203 124 42.4203C124.1 42.4703 125 42.7203 124.9 42.5203C122.35 37.7203 117.5 34.4203 112.2 33.2703C107.35 32.0703 102.2 33.8703 99.1001 37.7703C97.5501 39.6703 96.7001 42.0703 96.7501 44.5703C96.7501 45.8203 97.1501 47.0203 97.8501 48.0203C98.7001 49.1203 100.05 49.6703 101.35 50.0703C102.35 50.4203 103.5 50.4203 104.45 49.9703C105.65 49.3203 105.9 47.9703 105.75 46.7203C105.3 44.1703 104.3 41.7203 102.8 39.5703C99.7501 34.9703 95.0001 31.7203 89.5501 30.5703C87.1501 30.0703 84.5501 30.0203 82.2501 31.0203C79.9501 32.0203 78.2501 33.9703 77.5001 36.3203C76.7001 38.8703 76.9001 41.6203 78.0001 44.0703C78.5501 45.3703 79.3001 46.5703 80.2001 47.6203C81.1001 48.8203 82.2501 49.7203 83.6501 50.3203C84.6501 50.7203 85.8001 51.1203 86.6001 50.1703C87.2001 49.3203 87.5001 48.3203 87.4001 47.2703C87.3001 46.1203 87.0001 44.9703 86.5501 43.8703C86.1001 42.7203 85.5501 41.6703 84.9001 40.6203C82.1001 36.1703 77.6001 33.2203 72.6501 31.7203C70.1001 30.9703 67.2001 30.5703 64.6001 31.3203C62.1501 32.0203 60.0501 33.7703 59.4501 36.3203C59.2001 37.4203 59.3001 38.6203 59.8001 39.6703C59.9501 40.0203 60.8501 40.2203 61.2001 40.3203C61.4001 40.4703 62.3001 40.7203 62.2001 40.5203Z" fill="#FBBF24"/>
<path d="M68.5498 133.07C68.5498 133.07 66.8998 136.52 64.1498 138.67C61.3998 140.82 60.6998 144.62 64.6498 144.02C68.5998 143.42 74.2998 136.52 74.2998 136.52L68.5498 133.07Z" fill="white"/>
<path d="M67.4501 133.121C66.6501 134.821 65.5501 136.321 64.2001 137.621C63.2001 138.571 62.1501 139.321 61.4501 140.471C60.9001 141.271 60.6501 142.271 60.7501 143.271C61.2501 145.621 64.7501 144.871 66.2501 144.221C68.4001 143.271 70.3001 141.721 72.0001 140.071C73.1501 138.971 74.2501 137.821 75.3001 136.621C75.4501 136.471 75.6501 136.071 75.3501 135.871L69.6501 132.421C69.1501 132.171 68.5001 132.221 68.0501 132.571C67.8001 132.721 67.0501 133.371 67.5501 133.671L73.2501 137.121L73.3001 136.371C72.6001 137.221 71.8501 138.021 71.0501 138.821C69.7001 140.221 68.2001 141.471 66.5501 142.521C66.3501 142.671 66.1501 142.771 65.9001 142.871C66.1501 142.771 65.8001 142.921 65.8001 142.921L65.5001 143.021L65.3001 143.071C65.0001 143.171 65.5501 143.021 65.2001 143.071C65.0001 143.121 64.8001 143.171 64.5501 143.171C63.9001 143.221 63.3001 143.071 63.1001 142.321C62.9001 141.571 63.3001 140.771 63.7001 140.171C64.3001 139.221 65.2001 138.671 66.0001 137.921C67.5001 136.471 68.8001 134.721 69.7001 132.821C69.9501 132.321 69.3501 132.121 68.9501 132.121C68.3001 132.321 67.7501 132.621 67.4501 133.121Z" fill="#38322D"/>
<path d="M197.399 157.27C197.399 157.27 180.699 98.6196 148.499 106.37C126.799 111.62 118.699 157.32 118.699 157.32L197.399 157.27Z" fill="#38322D"/>
<path d="M198.55 157.421C198.1 155.871 197.6 154.321 197.05 152.821C195.7 148.971 194.2 145.171 192.55 141.421C190.45 136.571 188 131.921 185.2 127.421C182.3 122.571 178.75 118.171 174.75 114.221C170.95 110.571 166.45 107.521 161.35 105.921C156.25 104.321 150.45 104.321 145.45 106.271C140.3 108.271 136.25 112.321 133.05 116.721C129.55 121.521 126.85 126.971 124.65 132.521C122.65 137.571 120.95 142.721 119.6 147.971C118.85 150.821 118.15 153.721 117.6 156.621L117.55 157.021C117.4 157.821 118.6 158.321 119.2 158.321H127.05H145.8H168.6H188.2H194.65C195.65 158.321 196.7 158.371 197.7 158.321H197.85C198.2 158.321 198.5 158.021 198.5 157.671C198.5 157.521 198.45 157.421 198.4 157.321C198.1 156.771 197.5 156.471 196.85 156.471H189H170.25H147.45H127.85H121.4C120.4 156.471 119.35 156.421 118.35 156.471H118.2L119.85 157.771C120.2 155.771 120.65 153.771 121.15 151.821C122.25 147.121 123.65 142.521 125.25 137.971C127.15 132.421 129.6 127.071 132.6 121.971C135.4 117.321 138.9 112.821 143.5 109.821C147.75 107.071 153.05 106.221 157.9 106.921C158.2 106.971 158.5 107.021 158.75 107.071L159.25 107.171L159.45 107.221H159.5C160.1 107.371 160.7 107.521 161.3 107.721C161.9 107.921 162.5 108.121 163.1 108.371L163.5 108.521L163.7 108.621C163.45 108.521 163.65 108.621 163.7 108.621C163.95 108.721 164.3 108.871 164.6 109.021C165.7 109.571 166.8 110.171 167.85 110.871L168.05 110.971C167.85 110.821 168 110.921 168.05 110.971L168.4 111.221C168.7 111.421 168.95 111.621 169.2 111.821C169.7 112.221 170.2 112.571 170.7 113.021C172.7 114.671 174.55 116.471 176.25 118.471C178 120.471 179.65 122.621 181.15 124.821C184.1 129.221 186.75 133.871 189 138.671C190 140.821 190.95 142.971 191.9 145.171C192.3 146.121 192.7 147.121 193.05 148.071C193.1 148.171 193.15 148.271 193.15 148.371C193.15 148.421 193.2 148.571 193.15 148.371L193.2 148.521C193.3 148.771 193.4 148.971 193.45 149.221C193.6 149.621 193.75 150.071 193.9 150.471C194.65 152.571 195.4 154.721 196.05 156.871C196.1 156.971 196.1 157.071 196.15 157.171C196.35 157.771 196.9 158.171 197.5 158.221C198.05 158.221 198.7 157.971 198.55 157.421Z" fill="#38322D"/>
<path d="M160.15 145.771L155.45 137.271C155.45 137.271 148.45 124.571 134.55 123.321C120.65 122.071 89.0498 132.421 92.8498 135.971C96.6498 139.521 104.45 137.421 115.8 134.821C115.8 134.821 111.15 138.971 116.7 142.521C116.7 142.521 113.05 146.371 116.75 150.921C120.45 155.471 125.55 159.171 128.05 157.471C130.55 155.771 126.2 150.521 126.2 150.521C126.2 150.521 134.2 154.771 140.4 150.571L143.85 157.821C143.85 157.721 151.85 155.271 160.15 145.771Z" fill="white"/>
<path d="M161.25 145.57L157.2 138.27C156.55 137.07 155.85 135.92 155.05 134.82C150 127.97 142.4 123.02 133.8 122.42C129.95 122.17 126.05 122.62 122.3 123.22C117.85 123.97 113.5 124.97 109.2 126.22C105.4 127.27 101.65 128.57 98.0004 130.12C96.6004 130.72 95.3004 131.37 94.0004 132.12C93.1504 132.57 92.3504 133.22 91.7004 134.02C89.9004 136.47 94.5504 138.07 96.2004 138.37C98.4004 138.72 100.7 138.72 102.9 138.32C105.75 137.97 108.55 137.32 111.3 136.72L116.3 135.57L114.8 134.17C113.9 134.97 113.25 136.02 112.9 137.17C112.15 139.67 113.95 141.72 115.95 143.02L115.55 142.02C114.45 143.27 113.85 144.87 113.85 146.52C113.9 148.12 114.45 149.62 115.45 150.82C116.55 152.22 117.8 153.52 119.15 154.72C121.2 156.52 123.8 158.52 126.65 158.57C127.75 158.57 129 158.27 129.7 157.32C130.2 156.52 130.25 155.57 129.95 154.67C129.4 153.02 128.55 151.47 127.4 150.12L125.5 150.87C130.3 153.42 136.75 154.07 141.4 150.97L139.3 150.57L142.75 157.82C143.05 158.47 144.1 158.52 144.65 158.32C145.8 157.92 146.85 157.47 147.9 156.87C150.75 155.37 153.45 153.57 155.85 151.47C157.8 149.82 159.6 147.97 161.3 146.07C161.7 145.62 161 145.07 160.6 144.92C160.05 144.67 159.4 144.77 159 145.17C154.95 149.82 149.9 154.07 144.15 156.47C143.8 156.62 143.45 156.77 143.1 156.87L145 157.42L141.5 150.17C141.15 149.47 139.95 149.42 139.4 149.77C136.9 151.42 133.85 151.67 130.95 151.07C129.95 150.87 128.95 150.57 128 150.17C127.7 150.02 127.35 149.92 127.05 149.77C126.75 149.62 127.3 149.92 126.95 149.72C126.5 149.47 125.95 149.42 125.45 149.57C125.1 149.72 124.8 150.12 125.05 150.47C125.85 151.42 126.5 152.42 127.05 153.52C127.4 154.17 127.6 154.92 127.6 155.72C127.6 155.97 127.5 156.22 127.3 156.47C127.1 156.67 126.8 156.82 126.5 156.87C126.15 156.92 126.6 156.87 126.4 156.87H126.1C126.3 156.87 125.75 156.82 125.65 156.77C125.85 156.82 125.4 156.72 125.45 156.72L125.15 156.62C124.9 156.52 124.65 156.42 124.45 156.32C123.3 155.67 122.2 154.92 121.2 154.02C120.1 153.02 119.05 151.97 118.1 150.87C117.1 149.82 116.5 148.52 116.3 147.12C116.2 145.57 116.75 144.02 117.8 142.82C118.1 142.47 117.65 142.02 117.4 141.82C115.8 140.77 114.7 139.27 115.4 137.32C115.6 136.77 115.9 136.27 116.3 135.82L116.55 135.52C116.6 135.47 116.85 135.22 116.6 135.42L116.75 135.27C117.65 134.47 115.95 133.72 115.25 133.87C112.15 134.57 109.1 135.32 106 135.92C103.7 136.42 101.4 136.77 99.0504 136.87C98.2004 136.92 97.3004 136.87 96.4504 136.67C95.8004 136.57 95.1504 136.32 94.6004 136.02C94.3004 135.87 94.0504 135.67 93.8004 135.47C93.7504 135.47 93.7504 135.42 93.7004 135.37C93.5504 135.27 93.8504 135.57 93.7504 135.47C93.7004 135.42 93.6004 135.22 93.7004 135.42C93.8004 135.62 93.7004 135.37 93.7004 135.37C93.6504 135.17 93.7004 135.42 93.7004 135.37C93.7004 135.32 93.7004 135.27 93.7504 135.22C93.7504 135.02 93.7504 135.17 93.7504 135.17C93.8004 135.07 93.9004 134.92 93.9504 134.82C94.0004 134.77 94.0504 134.72 94.1004 134.62C94.3004 134.37 94.0504 134.67 94.2004 134.52C94.5504 134.22 94.9004 133.92 95.2504 133.67C96.2504 133.02 97.3004 132.42 98.4504 131.97C101.8 130.47 105.25 129.22 108.75 128.17C112.8 126.97 116.9 125.92 121.05 125.17C124.75 124.42 128.5 124.02 132.3 123.97C136.45 123.97 140.55 125.12 144.15 127.22C145.85 128.22 147.4 129.42 148.85 130.77C150 131.87 151.1 133.02 152.05 134.22C152.9 135.27 153.7 136.42 154.35 137.62L158.55 145.17L158.95 145.92C159.5 146.82 161.9 146.72 161.25 145.57Z" fill="#38322D"/>
<path d="M124.601 140.37C121.801 139.77 118.501 139.82 116.001 141.37C114.801 142.12 116.101 144.27 117.301 143.52C117.501 143.42 117.701 143.27 117.901 143.17L118.201 143.02C118.001 143.12 118.301 142.97 118.351 142.97C118.751 142.82 119.201 142.72 119.601 142.62C119.801 142.57 120.001 142.52 120.251 142.52L120.551 142.47C120.901 142.42 120.351 142.47 120.701 142.47C121.051 142.47 121.501 142.42 121.901 142.42C122.551 142.42 123.151 142.47 123.801 142.57L124.101 142.62C124.301 142.67 124.351 142.67 124.101 142.62L124.301 142.67C124.851 142.82 125.401 142.57 125.551 142.02C125.551 141.97 125.601 141.92 125.601 141.87C125.651 141.22 125.251 140.62 124.601 140.37Z" fill="#38322D"/>
<path d="M123.15 132.521L115.9 134.371L114.9 134.621C114.6 134.671 115.1 135.221 115.15 135.321C115.3 135.521 115.8 136.071 116.1 135.971L123.35 134.121L124.35 133.871C124.65 133.821 124.15 133.271 124.1 133.171C123.95 133.021 123.45 132.421 123.15 132.521Z" fill="#38322D"/>
<path d="M61.6992 108.02L101.199 118.67L116.299 161.42L75.0492 147.12L61.6992 108.02Z" fill="#FBBF24"/>
<path d="M62.3989 108.92L75.7989 112.52L96.9989 118.22L101.899 119.52L100.299 118.07L101.799 122.32L105.399 132.47L109.749 144.82L113.499 155.52L114.749 159.02L115.149 160.12C115.199 160.32 115.249 160.52 115.349 160.72C115.349 160.72 115.349 160.77 115.399 160.77L115.649 160.47L111.599 159.07L101.749 155.62L89.8489 151.52L79.4989 147.92C77.8489 147.32 76.1989 146.67 74.4989 146.17H74.4489L76.0489 147.62L71.5489 134.32L64.3989 113.32L62.7489 108.47C62.4989 107.92 62.0489 107.52 61.5489 107.22C61.3489 107.12 60.6989 106.82 60.8489 107.32L62.2489 111.47L65.5989 121.32L69.5989 133.02L72.8989 142.67L73.8489 145.52C74.1489 146.42 74.3489 146.97 75.1989 147.57C75.6489 147.82 76.1989 148.02 76.6989 148.17L79.4989 149.17L88.9989 152.47L100.599 156.52L110.999 160.12L116.649 162.07L116.899 162.17C117.149 162.27 117.199 162.07 117.149 161.87L115.749 157.92L112.499 148.52L108.349 136.77L104.549 126.02L102.349 119.77C102.099 118.87 101.399 118.12 100.499 117.82C99.9989 117.67 99.4989 117.52 98.9989 117.42L90.6489 115.17L78.7989 111.97L67.5989 108.97L61.3489 107.27L61.0489 107.17C60.4989 107.02 60.8989 107.67 61.0489 107.87C61.3989 108.32 61.8489 108.67 62.3989 108.92Z" fill="#FBBF24"/>
<path d="M87.0494 129.27C85.3994 129.02 83.6994 129.07 82.0494 129.42C81.3994 129.52 80.8494 129.87 80.3994 130.37C79.9994 130.92 79.7994 131.57 79.7494 132.27C79.5494 133.77 79.4994 135.27 80.4494 136.52C81.4994 137.87 83.2494 138.47 84.8994 138.67C85.7494 138.82 86.6494 138.82 87.5494 138.77C88.1494 138.72 88.8994 138.52 89.0494 137.82C89.1494 137.42 86.7494 136.77 86.6494 137.22C86.4994 137.77 85.9494 137.92 85.3994 137.97C85.0494 137.97 84.6494 137.97 84.2994 137.97C84.1494 137.97 83.9494 137.97 83.7994 137.92C83.8494 137.97 84.1494 138.07 83.8494 137.92C82.6494 137.22 81.9494 135.87 81.9994 134.47C81.9994 133.67 82.0994 132.87 82.2994 132.07C82.4494 131.42 82.8494 130.87 83.3994 130.52C84.0994 130.22 84.8494 130.07 85.5994 130.07C86.4494 130.02 87.2494 130.02 88.0994 130.12C88.2994 130.12 88.9994 130.17 88.6494 129.87C88.1494 129.47 87.5994 129.32 87.0494 129.27Z" fill="white"/>
<path d="M63.8997 125.92C63.8997 125.92 61.8997 130.67 64.9497 132.97C67.9997 135.27 71.1497 136.32 73.1997 134.02C75.2497 131.72 70.4497 128.07 68.6497 127.57C66.8497 127.07 63.8997 125.92 63.8997 125.92Z" fill="white"/>
<path d="M62.7001 125.62C62.1001 127.07 61.8501 128.62 62.1001 130.17C62.3001 131.37 62.9001 132.47 63.8501 133.22C65.2501 134.37 66.8501 135.22 68.5501 135.72C70.1001 136.17 71.8501 136.17 73.2501 135.27C74.3001 134.62 75.1001 133.67 74.9001 132.37C74.6501 131.37 74.1501 130.47 73.4001 129.72C72.6501 128.92 71.7501 128.17 70.8001 127.62C70.3001 127.32 69.7501 127.07 69.2001 126.87C68.9001 126.77 68.6001 126.72 68.3001 126.62L67.8001 126.47L67.5501 126.37L67.4001 126.32C66.4501 125.97 65.5001 125.62 64.5501 125.27C64.0001 125.02 63.3501 125.07 62.8001 125.42C62.4001 125.82 62.7501 126.32 63.1501 126.47C63.8001 126.72 64.4501 126.97 65.1001 127.22C65.7501 127.47 66.3501 127.67 66.9501 127.87C67.2501 127.97 67.5001 128.07 67.7501 128.12L68.1001 128.22C68.3001 128.27 68.3501 128.32 68.1501 128.22C68.3001 128.27 68.4501 128.32 68.6001 128.42C68.7501 128.52 68.7501 128.52 68.8501 128.57C68.9501 128.62 69.0501 128.67 68.8501 128.57L69.0001 128.67C69.4001 128.92 69.8001 129.17 70.1501 129.47C70.9001 130.02 71.5501 130.72 72.0001 131.52C72.2001 131.87 72.3001 132.22 72.4001 132.57C72.4501 132.87 72.3501 133.17 72.2501 133.42C72.0001 133.82 71.6001 134.17 71.1501 134.37C71.0001 134.47 70.8001 134.52 70.6001 134.57C70.6001 134.57 70.3501 134.57 70.2501 134.57H69.9001C69.8501 134.57 69.7501 134.57 69.7001 134.52L69.2001 134.42C68.9001 134.32 68.5501 134.22 68.2501 134.07C67.5501 133.72 66.9001 133.37 66.2501 132.92C65.3501 132.37 64.7501 131.52 64.5001 130.52C64.3001 129.57 64.3501 128.57 64.6001 127.67C64.6501 127.47 64.7001 127.27 64.7501 127.07C64.7501 127.02 64.8501 126.77 64.8001 126.97C64.8001 126.92 64.8501 126.82 64.8501 126.77C64.8501 126.72 64.9501 126.52 65.0001 126.37C65.5501 125.12 63.1001 124.72 62.7001 125.62Z" fill="#38322D"/>
<path d="M64.2504 118.07C64.2504 118.07 60.8504 120.12 61.8004 123.52C62.7504 126.92 66.6004 129.82 70.8504 128.17C75.1004 126.52 66.3504 122.42 66.3504 122.42" fill="white"/>
<path d="M63.1994 117.42C61.6994 118.32 60.6994 119.87 60.4494 121.57C60.2994 122.97 60.9494 124.37 61.6994 125.52C62.5994 126.82 63.8494 127.87 65.2994 128.52C66.7994 129.27 68.4494 129.52 70.0994 129.27C71.0494 129.12 72.4994 128.82 72.9994 127.87C73.3494 127.22 72.9494 126.47 72.5494 125.92C71.9494 125.17 71.2494 124.57 70.4494 124.07C69.1994 123.22 67.8994 122.47 66.5494 121.82C66.2494 121.67 65.3994 121.37 65.1494 121.82C64.8994 122.27 65.7494 122.77 66.0494 122.87C66.3494 122.97 66.5494 123.12 66.8494 123.27L67.0994 123.42C66.8994 123.32 67.1494 123.47 67.1994 123.47L67.4494 123.57C67.7494 123.77 68.0994 123.92 68.3994 124.12C68.6994 124.32 69.0994 124.57 69.3994 124.82C69.2494 124.72 69.3494 124.77 69.4494 124.87L69.6994 125.07C69.8494 125.17 69.9994 125.32 70.1494 125.42L70.2994 125.57C70.3994 125.67 70.2494 125.52 70.2494 125.52L70.3494 125.62C70.4494 125.72 70.5494 125.87 70.6494 126.02C70.5994 125.92 70.7494 126.17 70.6494 126.02C70.6994 126.07 70.6994 126.12 70.7494 126.22C70.7994 126.32 70.7994 126.42 70.7994 126.32C70.7994 126.22 70.8494 126.42 70.8494 126.47C70.8494 126.52 70.8494 126.57 70.8494 126.62C70.8494 126.77 70.8494 126.57 70.8494 126.67C70.7994 126.77 70.7494 126.87 70.6994 126.97C70.7494 126.92 70.5494 127.12 70.4494 127.17C70.2994 127.27 70.1994 127.32 70.0494 127.37C68.8994 127.87 67.6494 127.97 66.4494 127.62C66.1994 127.57 65.9994 127.47 65.7994 127.37C65.7994 127.37 65.5994 127.27 65.7494 127.32L65.5494 127.22C65.3994 127.12 65.2994 127.07 65.1494 126.97C64.7494 126.67 64.3994 126.27 64.0494 125.87C63.2994 124.92 62.8494 123.82 62.8494 122.62C62.8494 121.02 63.9994 119.47 65.3494 118.67C65.7994 118.37 65.0994 117.77 64.8494 117.62C64.4494 117.37 63.7494 117.07 63.2494 117.37L63.1994 117.42Z" fill="#38322D"/>
<path d="M163.099 81.4196C163.099 81.4196 163.349 60.0696 144.849 58.3196C126.349 56.5696 109.549 76.2196 115.599 97.8196C121.649 119.42 148.349 113.32 148.349 113.32L163.099 81.4196Z" fill="white"/>
<path d="M164.25 80.9703C164.25 77.9203 163.7 74.8703 162.75 71.9703C160.95 66.3703 157.3 61.4203 151.7 59.1703C144.15 56.1203 135.25 57.9703 128.45 62.0203C121.25 66.4203 116.05 73.4703 114.05 81.6203C113 86.0203 112.85 90.5703 113.65 95.0203C114.35 98.8703 115.65 102.62 118 105.77C121.65 110.57 127.25 113.22 133.1 114.12C137.4 114.77 141.8 114.72 146.1 114.02C147.1 113.87 148.85 113.72 149.45 112.77C149.65 112.42 149.8 112.07 149.95 111.72L151 109.47L158.1 94.1703L163.9 81.6203L164.2 80.9203C164.35 80.5703 163.35 80.8703 163.25 80.9203C162.85 81.0203 162.1 81.2703 161.9 81.7203L156.9 92.5203L149 109.62L147.15 113.57L148.8 112.72H148.7C148.45 112.82 149 112.67 148.7 112.72C148.4 112.77 148.1 112.82 147.8 112.87C146.75 113.02 145.55 113.17 144.6 113.27C141.25 113.57 137.85 113.42 134.55 112.87C130.55 112.12 126.6 110.62 123.45 107.97C119.45 104.62 117.25 99.8703 116.2 94.8703C114.9 88.6703 115.5 82.2703 117.85 76.4203C120 71.0203 123.65 66.3703 128.35 62.9703C132.7 59.8703 138 58.3703 143.35 58.7703C148.15 59.1203 152.7 61.0203 155.9 64.6203C158.45 67.4703 160 71.0203 160.95 74.6703C161.55 76.9203 161.85 79.1703 161.9 81.4703C161.9 81.5703 161.9 81.7203 161.9 81.8203C161.9 81.9203 164.25 81.6203 164.25 80.9703Z" fill="#38322D"/>
<path d="M168.45 98.87C171.95 89.47 157.5 65.07 157.5 65.07C150.95 59.77 130.05 71.57 130.05 71.57C135.45 77.27 138.25 88.67 138.25 88.67C133.55 83.52 127.4 88.52 129.75 94.32C132.1 100.12 139.7 99.52 139.7 99.52C139.7 99.52 142.05 112.72 143.4 114.92C144.75 117.12 156.95 116.72 160.5 108.02C160.5 108.07 165.45 107.07 168.45 98.87Z" fill="white"/>
<path d="M169.6 98.7696C170.35 96.6696 170.3 94.4196 170 92.2696C169.6 89.5196 168.9 86.8696 167.95 84.2696C166.1 79.1196 163.9 74.1196 161.3 69.3196C160.55 67.9196 159.8 66.5196 159.05 65.1696C158.95 64.9696 158.85 64.7696 158.7 64.5696C158.15 63.8196 156.95 63.4196 156.1 63.2196C153.65 62.6196 151.05 62.9196 148.6 63.4196C145.85 64.0196 143.1 64.8696 140.5 65.9196C136.8 67.3696 133.2 69.0196 129.75 71.0196L129.55 71.1196C129.2 71.3196 128.7 71.8696 129.05 72.2696C131.25 74.6196 132.8 77.5196 134.1 80.4696C135.15 82.8196 136 85.2696 136.7 87.7696C136.85 88.2696 137 88.7696 137.1 89.2696L139.3 88.1696C137.5 86.2196 134.9 85.3196 132.35 86.2196C130.1 87.0196 128.5 88.9696 128.15 91.3196C127.9 93.7196 128.8 96.1196 130.6 97.7196C132.1 99.0196 133.9 99.8696 135.85 100.17C137 100.42 138.2 100.47 139.35 100.42L138.55 100.12C138.85 101.92 139.2 103.67 139.55 105.42C140.05 108.27 140.75 111.07 141.55 113.82C141.8 114.52 142 115.42 142.6 115.92C143.35 116.42 144.2 116.72 145.1 116.82C147.9 117.12 150.75 116.72 153.35 115.62C156.95 114.22 160.05 111.62 161.55 108.02L160.35 108.87C161.7 108.52 162.95 107.87 164 106.97C166.65 104.87 168.4 101.87 169.6 98.7696C170 97.6696 167.6 98.1696 167.3 98.9696C166.45 101.27 165.25 103.62 163.5 105.32C163.2 105.62 162.95 105.87 162.6 106.12L162.35 106.32C162.1 106.52 162.55 106.17 162.3 106.37C162.15 106.47 162 106.57 161.85 106.67L161.5 106.87C161.4 106.92 161 107.12 161.4 106.92L160.8 107.22C160.4 107.37 161.05 107.17 160.7 107.27L160.55 107.32C159.65 107.62 159.45 108.12 159.05 108.87C158.85 109.32 158.55 109.77 158.3 110.22C157.75 111.02 157.05 111.77 156.3 112.42C155.6 112.97 154.85 113.42 154.1 113.82C152.6 114.57 150.95 115.02 149.3 115.22C148.6 115.32 147.85 115.32 147.15 115.27C146.85 115.27 146.5 115.22 146.2 115.17C146.15 115.17 145.7 115.07 145.9 115.12L145.45 115.02C145.25 114.97 145.05 114.87 144.85 114.77C145.05 114.87 144.8 114.72 144.75 114.67C144.7 114.62 144.5 114.42 144.6 114.52C144.7 114.62 144.55 114.37 144.5 114.32C144.45 114.27 144.4 114.12 144.35 114.02C144.25 113.77 144.15 113.47 144.05 113.22C143.55 111.57 143.1 109.92 142.75 108.22C142.05 105.17 141.45 102.12 140.9 99.0696C140.85 98.7696 140.3 98.7196 140.1 98.7696C139.9 98.8196 139.7 98.7696 139.5 98.7696C139.2 98.7696 139.7 98.7696 139.4 98.7696H139C138.7 98.7696 138.35 98.7196 138.05 98.6696C136.55 98.5196 135.1 98.0696 133.8 97.3196C132.15 96.3196 130.95 94.6196 130.5 92.7196C130.1 91.0196 130.6 88.8696 132 87.8696C132.25 87.6696 132.55 87.5196 132.9 87.4696C133.3 87.4196 133.7 87.4196 134.1 87.4696C135.3 87.7696 136.4 88.4196 137.2 89.4196C137.8 90.0696 139.6 89.1696 139.4 88.3196C138.35 83.8196 136.65 79.5196 134.35 75.5196C133.45 73.9196 132.35 72.3696 131.1 71.0196L130.65 72.1696C131.45 71.7196 132.25 71.2696 133.1 70.8696C133.25 70.7696 132.85 70.9696 133.05 70.9196L133.15 70.8696L133.45 70.7196L134.15 70.3696L135.6 69.6696C136.7 69.1696 137.8 68.6696 138.9 68.1696C141.3 67.1196 143.8 66.2196 146.35 65.5196C147 65.3696 147.6 65.2196 148.25 65.0696C148.9 64.9196 149.35 64.8696 150 64.7696C151.05 64.6196 152.15 64.5696 153.2 64.6696C154.1 64.7196 155 64.9696 155.8 65.3696C155.95 65.4696 156.05 65.5696 156.25 65.6696C156.45 65.7696 156.3 65.6196 156.3 65.6696C156.35 65.7696 156.4 65.8196 156.45 65.9196C157.1 67.0196 157.7 68.1696 158.35 69.3196C160.8 73.8196 162.95 78.4696 164.8 83.2696C165.8 85.8196 166.6 88.4696 167.2 91.1696C167.65 93.3196 167.95 95.6196 167.55 97.8196C167.5 98.2196 167.35 98.6196 167.25 99.0196C166.9 100.12 169.3 99.6196 169.6 98.7696Z" fill="#38322D"/>
<path d="M146.149 94.6696C146.849 96.1696 148.049 97.4196 149.549 98.1696C150.399 98.5696 151.299 98.8696 152.199 98.9696C152.399 98.9696 153.049 99.0196 152.949 98.6196C152.849 98.2196 152.199 98.1196 151.899 98.0696L151.649 98.0196C151.599 98.0196 151.599 98.0196 151.549 98.0196H151.599C151.449 97.9696 151.249 97.9696 151.099 97.9196C150.899 97.8696 151.249 97.9696 151.099 97.9196L150.899 97.8696L150.699 97.7696C150.799 97.8196 150.699 97.7696 150.649 97.7696C150.499 97.7196 150.399 97.6196 150.249 97.5696L150.099 97.4696C149.999 97.4196 150.199 97.5696 150.099 97.4696L149.999 97.4196C149.799 97.2696 149.599 97.1196 149.399 96.9196L149.299 96.8196L149.249 96.7696C149.149 96.6696 149.099 96.6196 148.999 96.5196C148.849 96.3696 148.699 96.2196 148.599 96.0196C148.499 95.8196 148.399 95.7196 148.299 95.5696C148.249 95.5196 148.199 95.4696 148.199 95.3696C148.199 95.3696 148.149 95.3196 148.149 95.2696C148.099 95.1196 147.999 95.0196 147.949 94.8696C147.799 94.5196 147.249 94.3196 146.899 94.3196C146.699 94.2696 145.949 94.2696 146.149 94.6696Z" fill="#38322D"/>
<path d="M152.75 75.2205C152.75 75.2205 151.6 76.0705 152.55 77.0705C153.5 78.0705 154.7 76.9705 154.2 75.8205C154.05 75.2705 153.45 74.9705 152.9 75.1205C152.85 75.1705 152.8 75.1705 152.75 75.2205Z" fill="#38322D"/>
<path d="M144.4 78.8201C144.4 78.8201 143.25 79.6701 144.2 80.6701C145.15 81.6701 146.35 80.5701 145.85 79.4201C145.7 78.8701 145.1 78.5701 144.55 78.7201C144.5 78.8201 144.45 78.8201 144.4 78.8201Z" fill="#38322D"/>
<path d="M157.649 89.5194C157.649 89.5194 172.199 86.1194 171.849 77.9694C171.499 69.8194 157.849 73.1694 152.449 82.1694" fill="white"/>
<path d="M157.05 90.2195C158.95 89.7695 160.8 89.1195 162.55 88.3695C165.7 87.0195 169 85.2195 171.15 82.4695C172.9 80.2195 173.95 76.4195 171.65 74.1695C169.35 71.9195 165.4 72.6695 162.7 73.6195C158.05 75.2695 154.05 78.4195 151.4 82.6195C151.1 83.0695 151.85 82.9195 152.05 82.8695C152.6 82.6695 153.1 82.3195 153.45 81.8695C154.45 80.2695 155.7 78.8195 157.15 77.5695C158.4 76.5195 159.8 75.6695 161.25 75.0695C163.6 74.1195 166.9 73.4195 169.1 75.1195C171.3 76.8195 171.05 80.2195 169.7 82.3695C168.95 83.4695 168 84.4195 166.9 85.1695C166.55 85.4195 166.4 85.5195 166.15 85.6695C165.8 85.8695 165.5 86.0695 165.15 86.2695L164.9 86.4195H164.85C164.7 86.5195 164.55 86.5695 164.35 86.6695C164 86.8195 163.65 86.9695 163.35 87.1695C162.15 87.6695 160.95 88.1195 159.75 88.5195H159.5L159.3 88.5695L158.8 88.7195L158.35 88.8195C157.75 88.9695 157.25 89.2695 156.8 89.7195C156.5 90.0695 156.6 90.3195 157.1 90.2195H157.05Z" fill="#38322D"/>
<g opacity="0.47">
<path d="M93.3008 89.7689C93.3008 89.7689 91.4008 90.6189 89.5008 86.9689C87.7008 83.4689 87.6008 78.5189 86.1508 78.7689C84.7008 79.0189 84.0008 83.0689 84.6508 86.1189C84.6508 86.1189 79.0008 85.7689 78.4508 87.2189C77.9008 88.6689 79.1008 89.2189 79.1008 89.2189C79.1008 89.2189 75.3008 90.6689 77.4508 92.8689C77.4508 92.8689 75.1008 94.7689 77.2008 96.5189C79.3008 98.2689 84.2008 98.9689 84.0508 97.1189C84.0508 97.1189 86.2008 100.019 88.8508 98.4189C91.5008 96.8189 93.3008 89.7689 93.3008 89.7689Z" fill="#FBBF24"/>
<path d="M87.3004 99.2193C85.9004 99.2193 84.7504 98.2693 84.2504 97.7193C84.1504 97.9693 83.9504 98.1193 83.7004 98.2693C82.3004 98.9693 78.7504 98.2193 77.1004 96.7693C76.5004 96.3693 76.1504 95.6693 76.1504 94.9693C76.2004 94.1693 76.5504 93.4693 77.1504 92.9193C76.7004 92.4693 76.5004 91.8693 76.6004 91.2193C76.8004 90.2193 77.9504 89.5193 78.6004 89.2193C78.0504 88.6693 77.9004 87.8693 78.2504 87.1693C78.8004 85.7193 83.1004 85.8193 84.4004 85.8693C83.9504 83.4693 84.3004 80.5693 85.1504 79.2693C85.3504 78.8693 85.7504 78.6193 86.1504 78.5193C87.2004 78.3193 87.6004 79.8693 88.1504 82.0193C88.5004 83.6693 89.0504 85.2693 89.7504 86.8193C91.5004 90.1693 93.1504 89.5193 93.2004 89.5193L93.6504 89.3193L93.5504 89.8193C93.5004 90.1193 91.7504 97.0693 89.0504 98.6693C88.5004 99.0693 87.9004 99.2193 87.3004 99.2193ZM83.8004 96.3693L84.3004 97.0693C84.4004 97.1693 86.3504 99.7693 88.8004 98.3193C91.0004 97.0193 92.6004 91.6193 93.0004 90.1193C92.3004 90.1693 90.8004 89.9193 89.3504 87.1193C88.6004 85.5693 88.0504 83.9193 87.7004 82.2193C87.2504 80.5193 86.8504 78.9693 86.2504 79.0693C85.9504 79.1693 85.7004 79.3693 85.6004 79.6193C84.7504 80.8693 84.5004 83.8193 85.0004 86.1693L85.0504 86.4693H84.7004C82.6004 86.3193 79.1004 86.4693 78.7004 87.4193C78.2004 88.6193 79.1004 89.0693 79.2004 89.1193L79.7504 89.3693L79.2004 89.5693C79.2004 89.5693 77.3004 90.3193 77.1004 91.4193C77.0504 91.9693 77.2504 92.4693 77.7004 92.8193L77.9004 93.0193L77.7004 93.2193C77.7004 93.2193 76.6504 94.0693 76.6504 95.0693C76.7004 95.6193 76.9504 96.1693 77.4504 96.5193C79.1004 97.9193 82.4004 98.5193 83.5004 97.9193C83.7504 97.8193 83.9004 97.5693 83.9004 97.3193L83.8004 96.3693Z" fill="#FBBF24"/>
<path d="M92.65 100.969C92.65 100.969 87.75 100.269 87.75 99.7187C87.75 99.1687 91.1 90.0687 91.45 88.8187C91.8 87.5687 96.4 89.5187 96.4 89.5187C96.4 89.5187 95.65 99.0187 92.65 100.969Z" fill="#FBBF24"/>
<path d="M92.7012 101.22H92.6012C87.5012 100.52 87.4512 99.92 87.4512 99.72C87.4512 99.37 88.2512 96.97 90.0012 92.02C90.5512 90.47 91.0012 89.17 91.1512 88.72C91.2012 88.52 91.3512 88.32 91.5512 88.27C92.7012 87.72 96.0512 89.12 96.4012 89.27L96.5512 89.32V89.52C96.5012 89.92 95.7512 99.17 92.7012 101.17V101.22ZM88.0012 99.67C88.3512 99.97 90.6012 100.42 92.6012 100.72C95.2012 98.92 96.0512 91.02 96.1512 89.67C95.0512 89.22 92.6012 88.37 91.8512 88.72C91.8012 88.77 91.7012 88.82 91.7012 88.87C91.5512 89.27 91.1012 90.57 90.5512 92.17C89.6012 94.77 88.1012 99.02 88.0012 99.67Z" fill="#FBBF24"/>
</g>
<path d="M58.1095 155.171L17.2676 172.459L29.5658 201.513L70.4077 184.226L58.1095 155.171Z" fill="white"/>
<path d="M69.1996 184.12L65.1496 185.82L55.4496 189.92L43.6496 194.92L33.4996 199.22C31.8496 199.92 30.1496 200.57 28.4996 201.32L28.3996 201.37L30.8496 201.52L25.2996 188.32L18.7496 172.77C18.6996 172.72 18.5996 172.52 18.5996 172.47C18.5996 172.57 18.5996 172.47 18.7496 172.42C19.2496 172.22 19.7496 171.97 20.2496 171.77L26.8996 168.97L46.4996 160.67C50.6996 158.87 54.9996 157.17 59.1496 155.32L59.3496 155.22L56.8996 155.07L61.0496 164.87L67.6496 180.52L69.1496 184.07C69.2496 184.37 70.1496 184.32 70.3996 184.32C70.4996 184.32 71.6996 184.32 71.6496 184.17L67.5496 174.32L60.9496 158.67L59.4496 155.12C59.3496 154.87 58.5496 154.87 58.3496 154.87C57.8996 154.82 57.3996 154.82 56.9496 154.97L52.8996 156.67L43.1996 160.77L31.3996 165.77L21.2496 170.07L17.8496 171.52L16.7996 171.97C16.5996 172.02 16.3996 172.12 16.2496 172.22C16.2496 172.22 16.1996 172.22 16.1496 172.27L16.0996 172.32L20.2496 182.12L26.8496 197.77L28.3496 201.32C28.4496 201.57 29.2496 201.57 29.4496 201.57C29.8996 201.62 30.3996 201.62 30.8496 201.47L34.8996 199.77L44.5996 195.67L56.3996 190.67L66.5496 186.37L69.9496 184.92L70.9996 184.47C71.1996 184.42 71.3996 184.32 71.5496 184.22C71.5496 184.22 71.5996 184.22 71.5996 184.17C71.8496 184.07 70.7996 183.87 70.7496 183.87C70.2496 183.92 69.6996 183.97 69.1996 184.12Z" fill="#FBBF24"/>
<path d="M33.0002 188.87C34.2502 185.17 35.6002 181.27 38.1502 178.32C38.8002 177.57 39.5002 176.92 40.3002 176.32C40.6502 175.97 41.1002 175.77 41.6002 175.67C41.9502 175.72 42.3002 175.87 42.5502 176.12C44.1002 177.47 45.3002 179.12 46.0502 181.02C46.4502 181.97 46.7002 182.97 46.7002 183.97C46.7002 184.77 46.4002 186.37 45.4502 186.57L46.0002 186.52C46.6502 186.62 46.6502 187.02 46.4002 186.62C46.3002 186.47 46.2502 186.32 46.1502 186.17C46.0002 185.82 45.9502 185.47 45.9502 185.07C45.9002 184.37 46.0502 183.67 46.3502 183.02C46.9002 181.72 47.9002 180.62 49.1502 179.97C51.5002 178.67 54.4502 179.32 56.0002 181.52C56.3502 182.07 56.9502 182.37 57.5502 182.37C57.9002 182.37 58.2002 182.12 58.2002 181.77C58.2002 181.62 58.1502 181.52 58.1002 181.37C55.8502 177.92 51.1502 176.32 47.4002 178.32C45.7002 179.22 44.4502 180.77 43.9002 182.57C43.3502 184.47 43.7502 187.12 45.7502 188.07C47.9502 189.12 49.1502 186.22 49.1002 184.52C49.1002 182.47 48.2502 180.52 47.2002 178.82C46.1502 177.12 44.6002 175.07 42.7002 174.22C41.7002 173.67 40.5002 173.67 39.4502 174.17C38.5502 174.67 37.7502 175.27 37.0502 176.02C33.8502 179.17 32.3002 183.52 30.9002 187.67C30.7002 188.22 31.1502 188.72 31.6502 188.97C31.8502 189.12 32.8502 189.37 33.0002 188.87Z" fill="#FBBF24"/>
<path d="M46.6488 170.17C46.7988 171.52 47.3488 172.77 48.1488 173.87C48.4988 174.37 48.9988 174.72 49.5988 174.87C50.3488 174.97 51.0988 174.87 51.7488 174.52C52.5988 174.22 53.3488 173.67 53.9988 172.97C54.3988 172.47 54.6488 171.87 54.7488 171.22C54.9488 170.12 54.8488 168.72 53.7988 168.07C53.2488 167.77 52.5988 167.67 51.9488 167.77C51.0988 167.92 50.2988 168.12 49.4988 168.47C49.1988 168.57 48.8988 168.72 48.6488 168.92C48.5488 168.97 48.2488 169.17 48.1988 169.32C48.1488 169.67 49.0488 169.27 49.1488 169.27L49.2988 169.22C49.0488 169.32 49.1988 169.27 49.2488 169.22L49.5988 169.12L49.7488 169.07L50.0988 169.02C50.4988 168.97 50.9488 169.02 51.3488 169.17C52.2988 169.57 52.5488 170.72 52.4988 171.62C52.4988 172.12 52.3488 172.67 52.1488 173.12C52.0488 173.32 51.9488 173.52 51.7988 173.67C51.7988 173.67 51.5988 173.92 51.6488 173.87C51.5488 173.92 51.5488 173.92 51.6488 173.87C51.6988 173.82 51.7988 173.77 51.8488 173.77C51.9488 173.72 51.9988 173.67 52.0988 173.67C52.1488 173.67 52.2988 173.62 52.0988 173.67C52.1988 173.67 51.8988 173.67 51.8988 173.67C51.6988 173.67 51.4988 173.62 51.2988 173.57C50.7988 173.37 50.3988 172.97 50.1488 172.52C49.4488 171.47 48.9988 170.27 48.7988 169.02C48.7488 168.77 47.6488 169.27 47.5488 169.32C47.2988 169.47 47.0488 169.62 46.7988 169.82C46.6988 169.92 46.5488 170.02 46.5488 170.17H46.6488Z" fill="#FBBF24"/>
<path d="M185.25 33.9483L162.162 47.5547L171.859 64.0093L194.947 50.403L185.25 33.9483Z" fill="white"/>
<path d="M194.3 49.3186L186.5 53.9186L174.05 61.2686L171.15 62.9686L172.8 63.5186L164.3 49.1186L163.1 47.0686L162.8 48.6186L170.6 44.0186L183.05 36.6686L185.95 34.9686L184.35 34.4186L192.8 48.8186L194 50.8686C194.35 51.4186 195.05 51.6686 195.6 51.4186C196.1 51.1186 196.25 50.4186 195.95 49.9186C195.95 49.9186 195.95 49.8686 195.9 49.8686L187.5 35.4686L186.3 33.4186C185.95 32.8686 185.25 32.6186 184.65 32.8686L176.85 37.4686L164.4 44.8186L161.5 46.5186C161 46.8686 160.85 47.5186 161.15 48.0186C161.15 48.0186 161.15 48.0686 161.2 48.0686L169.7 62.4686L170.9 64.5186C171.25 65.0686 171.95 65.3186 172.55 65.0686L180.35 60.4686L192.8 53.1186L195.7 51.4186C196.9 50.6686 195.5 48.6186 194.3 49.3186Z" fill="#FBBF24"/>
<path d="M173.199 47.0184L175.999 51.8184C176.499 52.6684 176.949 53.5184 177.499 54.3184C177.699 54.6184 178.049 55.1184 178.499 55.0184C178.949 54.9184 179.099 54.4184 179.299 54.1184L182.149 49.4684C182.399 49.1184 182.599 48.7684 182.799 48.4184C182.949 47.9684 182.549 47.3184 182.349 46.9684C182.149 46.5184 181.749 46.1184 181.299 45.9184C180.899 45.8184 180.449 45.8184 180.049 45.8684C177.949 45.8684 175.849 45.8184 173.749 45.8184C173.399 45.8184 173.799 46.6184 173.849 46.7684C173.999 47.0684 174.149 47.3184 174.349 47.5684C174.449 47.6684 174.649 47.9684 174.799 47.9684L178.849 48.0184H180.849C181.349 48.0184 182.099 47.9184 182.549 48.1684L182.299 47.9684L182.349 48.0184L181.799 47.3184L181.849 47.4184L181.449 46.4184C181.499 46.6184 181.049 47.0684 180.949 47.2684L180.399 48.1184L179.399 49.8184L178.399 51.4684L177.849 52.3684C177.799 52.5184 177.699 52.6184 177.599 52.7184C177.549 52.7684 177.349 52.8684 177.299 52.9184C177.249 52.9684 177.999 54.0184 177.549 53.2684L177.299 52.8184L176.799 52.0184L175.799 50.3184L173.699 46.7684C173.599 46.6184 173.099 45.6684 172.799 45.8684C172.499 46.0684 173.149 46.9184 173.199 47.0184Z" fill="#FBBF24"/>
<g opacity="0.41">
<path d="M188.77 84.0204L186.18 95.3281L201.776 98.9009L204.367 87.5932L188.77 84.0204Z" fill="white"/>
<path d="M201.052 98.0694L187.402 94.9194L185.452 94.4694L187.102 96.0194L189.352 86.1194L189.652 84.7194L189.402 84.8194L203.052 87.9694L205.002 88.4194L203.352 86.8694L201.102 96.7694L200.802 98.1694C200.702 98.5194 201.552 99.1694 201.802 99.3694C201.952 99.4694 202.652 100.019 202.702 99.6694L205.002 89.7694L205.302 88.3694C205.352 88.1194 204.802 87.6194 204.652 87.5194C204.352 87.2194 204.002 86.9694 203.602 86.8194L189.952 83.6694L188.002 83.2194C187.852 83.1694 187.752 83.1694 187.752 83.3194L185.452 93.2194L185.152 94.6194C185.102 94.8694 185.652 95.3694 185.802 95.4694C186.102 95.7694 186.452 96.0194 186.852 96.1694L200.502 99.3194L202.452 99.7694C202.952 99.8694 202.552 99.3194 202.402 99.1694C202.052 98.6194 201.602 98.2694 201.052 98.0694Z" fill="#FBBF24"/>
<path d="M189 84.5195C191.15 86.1195 192.2 88.7695 194.25 90.5195C194.4 90.6695 194.55 90.7195 194.75 90.7695C194.95 90.7695 195.15 90.7695 195.3 90.6695L203.55 87.6195" fill="white"/>
<path d="M188.102 84.9198C189.202 85.7698 190.052 86.9698 190.852 88.1198C191.652 89.2698 192.602 90.7198 193.902 91.2698C194.852 91.6698 195.702 91.3698 196.602 91.0698L199.102 90.1198L204.352 88.1698C204.852 87.9698 204.802 87.5198 204.402 87.2698C203.852 86.9698 203.202 86.9198 202.652 87.1698L198.102 88.8698L195.802 89.7198C195.402 89.8698 195.052 89.9698 194.652 90.1698L194.402 90.2698C195.302 90.5198 195.552 90.5698 195.252 90.3198C195.152 90.2198 195.002 90.1198 194.902 90.0198C193.052 88.2198 191.952 85.8198 189.902 84.2698C189.352 83.9698 188.702 83.9198 188.152 84.1698C187.652 84.2198 187.702 84.5698 188.102 84.9198Z" fill="#FBBF24"/>
<path d="M186.25 94.5199C187.5 92.7699 190.45 89.8199 192 88.4199L186.25 94.5199Z" fill="white"/>
<path d="M187.301 94.3195C188.101 93.2195 188.951 92.2195 189.901 91.2695C190.851 90.2695 191.851 89.3195 192.851 88.3695C192.951 88.2695 193.151 88.0695 193.051 87.9195C192.951 87.7695 192.701 87.7695 192.601 87.7695C192.001 87.8195 191.401 88.0195 190.951 88.4195C189.901 89.3695 188.901 90.3695 187.951 91.4195C186.901 92.4695 185.951 93.5695 185.101 94.7195C184.801 95.1695 185.501 95.1695 185.751 95.1195C186.401 95.0195 186.901 94.7695 187.301 94.3195Z" fill="#FBBF24"/>
<path d="M198.801 90.2695C199.501 92.7695 200.151 95.2195 200.751 97.7195L198.801 90.2695Z" fill="white"/>
<path d="M198.201 90.1703C198.851 92.5203 199.501 94.9203 200.101 97.3203C200.201 97.9203 200.501 98.4203 201.001 98.7703C201.501 99.0203 201.501 98.3703 201.451 98.0703C200.801 95.4703 200.151 92.8703 199.401 90.3203C199.301 89.9203 198.901 89.1203 198.401 89.0703C197.901 89.0203 198.101 89.9703 198.201 90.1703Z" fill="#FBBF24"/>
</g>
<path d="M205.632 178.518L199.242 193.785L220.367 202.627L226.757 187.359L205.632 178.518Z" fill="white"/>
<path d="M219.801 201.527L212.701 198.577L201.301 193.827L198.701 192.727L199.901 194.827L205.501 181.477L206.301 179.577L206.151 179.677L213.251 182.627L224.651 187.377L227.251 188.477L226.051 186.377L220.451 199.677L219.651 201.577C219.501 201.977 220.001 202.727 220.201 203.027C220.301 203.127 220.851 203.927 221.001 203.577L226.601 190.227L227.401 188.327C227.551 188.027 227.151 187.377 227.001 187.177C226.851 186.777 226.551 186.477 226.201 186.227L219.101 183.277L207.701 178.527L205.101 177.427C205.051 177.377 205.001 177.427 204.951 177.477C204.951 177.477 204.951 177.477 204.951 177.527L199.351 190.927L198.551 192.827C198.451 193.127 198.801 193.777 198.951 193.977C199.101 194.377 199.401 194.677 199.751 194.927L206.851 197.877L218.251 202.627L220.851 203.677C221.201 203.827 220.801 202.777 220.801 202.727C220.601 202.227 220.251 201.777 219.801 201.527Z" fill="#FBBF24"/>
<path d="M205.9 179.227C208.55 181.977 209.4 186.027 211.85 188.927C212 189.127 212.2 189.327 212.45 189.427C212.7 189.477 213 189.477 213.25 189.427L225.55 187.127" fill="white"/>
<path d="M204.701 179.478C206.101 180.978 207.001 182.778 207.901 184.628C208.351 185.528 208.801 186.428 209.301 187.328C209.751 188.078 210.301 189.128 211.051 189.628C212.051 190.278 213.501 189.828 214.551 189.628L218.401 188.928L225.901 187.528C226.101 187.478 226.951 187.328 226.701 186.978C226.451 186.628 225.401 186.828 225.151 186.878L218.401 188.128L215.001 188.778L213.301 189.078L212.801 189.178C213.251 189.178 213.351 189.078 213.051 188.928C212.901 188.728 212.751 188.578 212.601 188.378C210.351 185.478 209.501 181.728 206.951 179.028C206.651 178.728 205.751 178.878 205.401 178.928C205.351 178.978 204.401 179.178 204.701 179.478Z" fill="#FBBF24"/>
<path d="M199.551 192.678C201.701 190.528 206.551 187.128 209.101 185.428L199.551 192.678Z" fill="white"/>
<path d="M200.5 193.428C201.95 192.078 203.45 190.828 205.1 189.678C206.7 188.528 208.3 187.378 209.95 186.278C210.4 185.978 210 185.428 209.75 185.128C209.5 184.828 208.7 184.178 208.3 184.478C206.6 185.578 204.95 186.778 203.3 187.978C201.65 189.128 200.1 190.428 198.6 191.828C198 192.428 199.9 194.078 200.5 193.428Z" fill="#FBBF24"/>
<path d="M218.25 189.727C218.6 193.377 218.9 197.077 219.2 200.727L218.25 189.727Z" fill="white"/>
<path d="M217.301 189.127C217.651 192.777 218.001 196.477 218.251 200.127C218.301 200.727 218.651 201.277 219.201 201.577C219.501 201.777 220.251 201.927 220.201 201.327C219.951 197.677 219.601 193.977 219.251 190.327C219.201 189.727 218.851 189.177 218.301 188.877C218.001 188.677 217.251 188.527 217.301 189.127Z" fill="#FBBF24"/>
</svg>
