<svg width="250" height="251" viewBox="0 0 250 251" fill="none" xmlns="http://www.w3.org/2000/svg">
<path d="M188.649 82.4192C188.649 82.4192 217.949 128.769 226.749 111.369C235.549 93.9692 187.849 71.4192 188.649 82.4192Z" fill="#38322D"/>
<path d="M187.598 83.0203C188.548 84.5203 189.548 86.0203 190.548 87.4703C192.948 90.9203 195.398 94.3203 197.998 97.6203C200.998 101.52 204.248 105.17 207.748 108.57C210.598 111.32 213.798 114.12 217.598 115.47C219.048 116.02 220.648 116.17 222.198 115.87C223.898 115.47 225.448 114.52 226.548 113.12C229.098 109.97 229.548 105.92 228.198 102.17C226.698 97.9703 223.498 94.5203 220.248 91.6203C216.448 88.2703 212.198 85.4703 207.698 83.1703C203.948 81.2703 199.898 79.5203 195.698 78.8203C193.048 78.3703 189.048 78.2703 187.798 81.2703C187.598 81.7703 187.498 82.3203 187.548 82.8203C187.598 83.7703 189.848 82.7203 189.798 81.8703C189.798 81.7703 189.798 81.6203 189.798 81.4703C189.798 81.3203 189.848 81.0703 189.798 81.2703C189.798 81.1703 189.848 81.0703 189.898 80.9703C189.948 80.8703 189.948 80.8703 189.948 80.8203C189.998 80.6203 189.848 80.9703 189.948 80.8703C190.048 80.7703 190.048 80.7203 190.098 80.6203C189.898 81.0203 190.248 80.4703 190.098 80.6703C189.948 80.8703 190.198 80.6203 190.248 80.5703C190.098 80.7203 189.948 80.6703 190.148 80.6203C190.198 80.6203 190.248 80.5703 190.298 80.5203C190.048 80.7203 190.048 80.6203 190.198 80.5703L190.348 80.5203C190.548 80.4203 190.348 80.5203 190.248 80.5703C190.298 80.5703 190.398 80.5203 190.448 80.5203L190.848 80.4203C190.598 80.4703 190.998 80.3703 190.848 80.4203L191.098 80.3703C191.398 80.3203 191.698 80.3203 192.048 80.3203H192.348C192.548 80.3203 192.698 80.3203 192.898 80.3703C196.698 80.7203 200.398 82.1703 203.848 83.7703C208.248 85.8203 212.398 88.3203 216.198 91.3203C219.648 94.0703 222.998 97.2703 225.098 101.17C225.998 102.77 226.548 104.57 226.748 106.37C226.798 107.22 226.798 108.07 226.648 108.92C226.548 109.37 226.448 109.77 226.298 110.22C226.248 110.42 226.148 110.62 226.048 110.82C225.948 111.02 225.898 111.17 225.798 111.37C225.598 111.77 225.398 112.12 225.148 112.47L224.998 112.67C224.848 112.92 225.048 112.62 224.948 112.77C224.848 112.92 224.698 113.07 224.548 113.22L224.398 113.42C224.198 113.62 224.598 113.27 224.348 113.42L223.948 113.77C223.748 113.97 224.148 113.67 223.998 113.77C223.948 113.82 223.848 113.87 223.798 113.92L223.598 114.02C223.398 114.17 223.898 113.92 223.598 114.02L223.148 114.22L222.898 114.27L222.698 114.32C222.448 114.37 222.798 114.32 222.648 114.32C222.498 114.32 222.298 114.37 222.148 114.37C221.998 114.37 221.848 114.37 221.648 114.37C221.448 114.37 221.748 114.37 221.598 114.37L221.298 114.32C220.948 114.27 220.598 114.22 220.248 114.12C218.698 113.72 217.198 113.02 215.898 112.12C214.198 111.02 212.598 109.77 211.098 108.37C207.698 105.22 204.548 101.77 201.648 98.1703C198.948 94.8203 196.398 91.3703 193.898 87.8703C192.548 85.9203 191.198 83.9703 189.898 81.9703L189.698 81.6703C189.248 80.9703 187.098 82.2703 187.598 83.0203Z" fill="#38322D"/>
<path d="M180.2 85.2693C180.45 53.0193 159.3 46.6693 144.95 47.2193C130.6 47.7693 121.8 54.2693 119.8 60.4693C118.3 65.1193 131.85 90.0193 131.85 90.0193L158.85 109.219C158.85 109.169 180 109.869 180.2 85.2693Z" fill="#38322D"/>
<path d="M181.398 85.5699C181.448 76.2199 179.798 66.4199 173.948 58.8699C169.698 53.3199 163.448 49.7699 156.748 48.0199C148.848 46.0199 140.598 46.2199 132.798 48.6199C128.548 49.9699 124.348 52.1199 121.348 55.5199C120.198 56.7699 119.298 58.2199 118.698 59.8199C118.398 60.7199 118.398 61.7199 118.598 62.6699C119.148 65.7699 120.448 68.7699 121.698 71.6199C123.198 75.1199 124.848 78.5699 126.548 81.9699C127.748 84.3699 128.948 86.7199 130.198 89.0199C130.348 89.4199 130.598 89.8199 130.948 90.1199C131.298 90.4199 131.698 90.6699 132.048 90.9199L147.048 101.57L154.748 107.07L157.098 108.77C157.598 109.17 158.148 109.47 158.698 109.67C159.798 109.97 161.098 109.72 162.198 109.57C164.398 109.27 166.548 108.72 168.598 107.87C171.298 106.72 173.698 105.02 175.648 102.87C178.098 100.02 179.798 96.5699 180.548 92.8699C181.098 90.4199 181.348 87.9699 181.398 85.5699C181.348 84.8699 178.948 84.5199 178.948 84.9699C178.898 91.8199 177.098 98.9699 171.748 103.67C169.998 105.22 167.948 106.42 165.748 107.22C164.848 107.57 163.898 107.87 162.948 108.07C162.498 108.17 162.098 108.27 161.648 108.37L161.348 108.42H161.198L160.648 108.52C160.048 108.62 159.398 108.67 158.748 108.67H158.498H158.398C158.248 108.67 158.698 108.67 158.548 108.67H158.348L159.798 109.12L150.648 102.62L136.098 92.3199L132.748 89.9199L132.998 90.1699C130.198 85.0699 127.598 79.8699 125.198 74.5699C123.648 71.1699 122.098 67.7199 121.198 64.1199C120.948 63.1199 120.648 61.9699 120.898 60.9699C121.248 59.3199 122.348 57.7699 123.398 56.5199C126.598 52.7699 131.298 50.4699 135.948 49.1699C140.548 47.9199 145.348 47.4699 150.098 47.8199C150.498 47.8699 150.898 47.8699 151.298 47.9199H151.398L151.698 47.9699L152.298 48.0699C153.098 48.1699 153.948 48.3199 154.748 48.4699L155.148 48.5699L155.748 48.7199C156.148 48.8199 156.598 48.9199 156.998 49.0199C157.198 49.0699 157.398 49.1199 157.598 49.2199L157.998 49.3199C158.398 49.4699 158.798 49.6199 159.248 49.7199L159.848 49.9699L160.148 50.0699C160.498 50.2199 159.948 49.9699 160.298 50.1199C160.648 50.2699 161.098 50.4699 161.498 50.6699C162.298 51.0699 162.998 51.4199 163.748 51.8199C165.298 52.7199 166.798 53.8199 168.148 55.0199C175.298 61.4199 178.148 70.9699 178.698 80.2699C178.798 81.8199 178.848 83.4199 178.798 84.9699C178.948 85.6699 181.398 86.0199 181.398 85.5699Z" fill="#38322D"/>
<path d="M221.5 189.82C229.05 185.12 177 102.22 149.7 107.17C122.4 112.12 99.75 183.02 99.75 183.02C99.75 183.02 146.9 236.12 221.5 189.82Z" fill="white"/>
<path d="M222.2 190.82C224.3 189.47 223.25 186.02 222.7 184.12C221.55 180.12 219.65 176.27 217.7 172.62C214.95 167.37 211.9 162.27 208.7 157.32C205 151.67 201.1 146.12 196.95 140.77C192.75 135.32 188.25 130.07 183.45 125.07C179.25 120.62 174.65 116.57 169.7 112.97C165.65 110.07 161.2 107.47 156.3 106.32C154.3 105.82 152.2 105.67 150.1 105.92C147.65 106.27 145.25 107.07 143.05 108.27C137.85 110.97 133.55 115.32 129.85 119.77C125.5 125.17 121.65 130.92 118.3 137.02C114.85 143.12 111.8 149.42 108.95 155.77C106.6 161.12 104.35 166.52 102.3 172.02C101.1 175.17 99.9998 178.32 98.9498 181.47C98.6998 182.17 98.2998 182.97 98.7998 183.62C99.1498 184.02 99.4998 184.42 99.8998 184.82C101.75 186.72 103.75 188.47 105.8 190.12C114 196.67 123.25 201.82 133.2 205.22C139.9 207.52 146.8 208.97 153.85 209.62C162.1 210.32 170.4 209.92 178.55 208.42C188.4 206.57 198 203.42 207.05 199.07C212.25 196.62 217.25 193.87 222.15 190.82C223.4 190.07 221.9 188.07 220.7 188.82C214.05 192.97 207.1 196.57 199.9 199.57C193.65 202.17 187.2 204.17 180.6 205.57C174.9 206.77 169.1 207.42 163.3 207.57C153.45 207.77 143.65 206.32 134.3 203.17C133.3 202.82 132.25 202.47 131.25 202.07C130.65 201.87 130.5 201.82 129.95 201.57C129.45 201.37 128.95 201.17 128.5 200.97C126.65 200.22 124.85 199.37 123.05 198.47C119.85 196.87 116.75 195.07 113.75 193.12C113.45 192.92 113.1 192.67 112.8 192.47L112.35 192.17C112.25 192.07 112.45 192.22 112.45 192.22L112.3 192.12L112.05 191.97C111.45 191.57 110.85 191.12 110.25 190.67C109.15 189.87 108.1 189.07 107.05 188.22C105.5 186.97 104 185.67 102.55 184.27C101.85 183.62 101.2 182.97 100.55 182.27C100.4 182.12 100.85 182.62 100.7 182.42L100.85 183.57C101.1 182.77 101.4 181.97 101.65 181.17C102.4 178.97 103.2 176.77 104 174.62C105.2 171.42 106.4 168.27 107.7 165.12C109.25 161.27 110.9 157.47 112.65 153.67C114.55 149.57 116.55 145.52 118.65 141.52C120.75 137.52 123.05 133.57 125.5 129.87C127.85 126.27 130.4 122.82 133.25 119.57C134.55 118.07 135.9 116.67 137.35 115.37C137.7 115.07 138.05 114.77 138.4 114.42C138.75 114.07 138.9 113.97 139.35 113.62C140.05 113.07 140.75 112.52 141.5 112.02C142.9 111.07 144.35 110.22 145.9 109.57L146.15 109.47L146.25 109.42C146.45 109.32 146.65 109.27 146.85 109.17C147.2 109.02 147.6 108.92 147.95 108.77C148.7 108.52 149.45 108.37 150.2 108.22L150.6 108.17C150.4 108.17 150.8 108.12 150.6 108.17L150.85 108.12C151.15 108.07 151.45 108.07 151.75 108.07C152.4 108.07 153 108.07 153.65 108.12L154.1 108.17C154.05 108.17 154.35 108.22 154.1 108.17L154.35 108.22C154.65 108.27 155 108.32 155.3 108.37C155.95 108.52 156.65 108.67 157.3 108.87C157.65 108.97 157.95 109.07 158.3 109.17L158.8 109.37L159.05 109.47C159.2 109.52 158.95 109.42 158.95 109.42L159.15 109.52C159.85 109.82 160.55 110.12 161.2 110.42C162.65 111.12 164.05 111.92 165.45 112.77C165.85 113.02 166.2 113.22 166.55 113.47L167.05 113.82C167.15 113.87 167.25 113.92 167.3 114.02L167.45 114.12C168.2 114.62 168.95 115.17 169.65 115.72C171.15 116.87 172.65 118.07 174.1 119.32C177.2 122.02 180.15 124.87 183 127.87C184.55 129.52 185.75 130.87 187.25 132.52C188.75 134.17 190.15 135.92 191.6 137.62C194.4 141.07 197.15 144.57 199.75 148.22C202.3 151.72 204.7 155.22 207.05 158.87C209.2 162.17 211.25 165.52 213.2 168.97C213.4 169.37 213.65 169.77 213.85 170.12L214.15 170.67C214.05 170.47 214.15 170.67 214.2 170.77L214.35 171.07C214.75 171.82 215.15 172.57 215.55 173.32C216.25 174.72 216.95 176.12 217.65 177.52C218.75 179.77 219.65 182.12 220.4 184.47C220.45 184.57 220.45 184.72 220.5 184.82L220.55 184.97C220.6 185.17 220.5 184.67 220.55 184.92C220.6 185.17 220.65 185.37 220.7 185.57C220.8 185.97 220.85 186.37 220.95 186.77C220.95 186.97 221 187.12 221 187.27C221 187.37 221 187.42 221 187.52C221 187.42 221 187.82 221 187.52C220.95 187.82 220.95 188.07 220.9 188.37C220.85 188.67 220.9 188.27 220.9 188.27C220.9 188.27 220.85 188.37 220.85 188.42C220.8 188.52 220.75 188.62 220.7 188.67C220.75 188.22 220.85 188.67 220.65 188.67C220.55 188.67 220.6 188.77 220.75 188.57C220.7 188.62 220.65 188.62 220.65 188.67C219.55 189.57 221.05 191.57 222.2 190.82Z" fill="#38322D"/>
<path d="M119.698 104.92C109.898 95.7203 121.148 65.6703 121.148 65.6703C126.298 64.4203 134.648 59.0703 134.648 59.0703C132.798 75.0203 151.648 78.4203 151.648 78.4203C154.948 69.6703 165.098 72.2203 164.998 80.5703C164.898 88.9203 156.898 90.3203 156.898 90.3203C156.898 90.3203 162.148 110.72 161.548 114.07C161.548 114.07 148.498 124.27 139.298 112.72C139.298 112.72 126.348 111.12 119.698 104.92Z" fill="white"/>
<path d="M120.2 104.119C120.1 104.019 119.95 103.869 119.85 103.769C119.75 103.669 119.55 103.419 119.7 103.619C119.5 103.369 119.25 103.069 119.05 102.769C118.95 102.669 118.9 102.519 118.8 102.419C118.7 102.319 118.7 102.269 118.65 102.219C118.55 102.019 118.8 102.469 118.65 102.169C118.5 101.869 118.35 101.569 118.2 101.219C117.65 99.9693 117.25 98.6693 117.05 97.2693C116.6 94.0693 116.55 90.8193 116.95 87.6193C117.65 81.6193 118.95 75.7193 120.8 69.9693C121.2 68.7193 121.6 67.4693 122.05 66.2193L121.55 66.7193C124.65 65.9193 127.6 64.4193 130.35 62.8693C132 61.9693 133.65 61.0193 135.25 60.0193L133.5 58.6693C132.85 64.0693 134.85 69.4693 138.85 73.1693C141.8 75.8193 145.35 77.7693 149.15 78.8693C150 79.1193 150.9 79.3693 151.75 79.5193C152.1 79.5693 152.4 79.3193 152.5 78.9693C153.4 76.7193 155.05 74.6693 157.5 74.1693C158.45 73.9693 159.4 74.0693 160.3 74.3693C160.4 74.4193 160.55 74.4693 160.65 74.5193C160.7 74.5193 160.75 74.5693 160.8 74.5693C161.05 74.7193 161.3 74.8693 161.55 75.0193C161.6 75.0693 161.65 75.0693 161.7 75.1193C161.85 75.2193 161.9 75.2693 162 75.3693C162.1 75.4693 162.2 75.5693 162.3 75.6693L162.4 75.8193C162.3 75.7193 162.35 75.7693 162.4 75.8193C162.6 76.0193 162.75 76.2693 162.9 76.5193C163.05 76.7693 162.9 76.4693 163 76.6693C163.1 76.8693 163.15 76.9693 163.25 77.1193C163.5 77.6193 163.65 78.1693 163.75 78.7193C163.95 80.1193 163.85 81.5193 163.5 82.8693C162.55 85.7693 160.25 88.0193 157.35 88.9193C157 89.0193 156.65 89.1193 156.3 89.2193C155.85 89.3193 155.7 89.9193 155.8 90.2693C157.45 96.6693 159.05 103.069 160.1 109.569C160.15 110.019 160.25 110.469 160.3 110.919C160.35 111.119 160.35 111.369 160.4 111.569C160.45 111.869 160.4 111.319 160.4 111.619L160.45 111.969C160.5 112.319 160.5 112.619 160.5 112.969C160.5 113.119 160.5 113.219 160.5 113.369C160.5 113.719 160.5 113.319 160.5 113.469L160.75 113.069C159.5 114.019 158.15 114.769 156.75 115.419C153.85 116.719 150.65 117.469 147.5 116.919C145.7 116.619 143.95 115.819 142.5 114.719C141.6 114.019 140.8 113.269 140.1 112.369C139.8 111.919 139.3 111.619 138.75 111.569C136.35 111.219 134 110.669 131.7 110.019C127.65 108.769 123.45 107.069 120.2 104.119C119.85 103.719 119.15 103.519 118.8 104.019C118.45 104.519 118.8 105.269 119.2 105.619C122 108.219 125.55 109.969 129.15 111.269C131.95 112.269 134.85 113.019 137.8 113.519C138.4 113.619 138.95 113.719 139.55 113.819L138.55 113.219C140.3 115.519 142.65 117.319 145.35 118.469C147.5 119.269 149.85 119.519 152.15 119.269C155.5 118.819 158.7 117.569 161.45 115.669C161.7 115.519 161.95 115.369 162.2 115.169C162.5 114.819 162.65 114.319 162.6 113.869C162.6 112.469 162.45 111.119 162.15 109.719C161.5 105.819 160.65 101.969 159.75 98.1693C159.15 95.5693 158.5 93.0193 157.85 90.4193L157.35 91.4693C161.15 90.7693 164.3 88.0193 165.5 84.3193C166.4 81.3193 166.15 77.7693 164.25 75.1693C162.75 73.0193 160.25 71.7693 157.6 71.8693C154.15 72.1193 151.8 74.7693 150.6 77.8193L151.35 77.2693C151.15 77.2193 151.35 77.2693 151.45 77.3193C151.35 77.2693 151.2 77.2693 151.05 77.2193C150.6 77.1193 150.15 77.0193 149.75 76.8693C148.3 76.4693 146.85 75.9193 145.5 75.3193C145.45 75.2693 145.2 75.1693 145.3 75.2193L145.05 75.1193L144.45 74.8193C144 74.5693 143.55 74.3193 143.15 74.0693C142.75 73.8193 142.3 73.5193 141.9 73.2693L141.3 72.8193C141.2 72.7193 141.3 72.8193 141.35 72.8193L141.2 72.7193L140.85 72.4193C140.45 72.0693 140 71.7193 139.65 71.3193C139.45 71.1193 139.3 70.9693 139.15 70.7693L138.9 70.4693C138.9 70.4693 138.75 70.3193 138.85 70.4193C138.95 70.5193 138.75 70.3193 138.75 70.2693C138.4 69.8693 138.05 69.4193 137.75 68.9693C137.45 68.5693 137.2 68.1193 137 67.7193C136.4 66.5693 136 65.3193 135.8 64.0193C135.55 62.5193 135.55 60.9693 135.75 59.4193C135.85 58.6193 134.75 57.5693 134 58.0693C130.6 60.3193 127 62.2193 123.25 63.7693C122.7 63.9693 122.1 64.1693 121.55 64.3693C121 64.5693 120.5 64.5693 120.25 65.1193C120.2 65.2693 120.15 65.4193 120.1 65.5693C119.75 66.5193 119.45 67.4693 119.15 68.4193C118 72.0193 117.05 75.6693 116.25 79.3693C115.35 83.8693 114.65 88.4693 114.8 93.0693C114.95 97.5693 115.9 102.469 119.3 105.669C119.7 106.019 120.35 106.219 120.7 105.719C121.05 105.219 120.6 104.469 120.2 104.119Z" fill="#38322D"/>
<path d="M144.899 90.9695C145.199 91.8195 145.349 92.7195 145.449 93.6195C145.449 93.7195 145.449 93.7695 145.449 93.8695C145.449 93.9695 145.449 93.9695 145.449 94.0195C145.449 94.2195 145.449 93.8195 145.449 93.9695C145.449 94.1195 145.449 94.3195 145.449 94.5195C145.449 94.8695 145.399 95.2695 145.299 95.6195C145.249 95.7695 145.199 95.9195 145.149 96.1195C145.099 96.3195 145.249 95.9195 145.149 96.0695C145.149 96.1195 145.099 96.1195 145.099 96.1695C145.049 96.2695 144.999 96.3695 144.949 96.4695C144.899 96.6195 144.749 96.7195 144.699 96.8195C144.649 96.9195 144.849 96.6695 144.749 96.7695L144.649 96.8695C144.599 96.9195 144.499 96.9695 144.449 97.0195C144.199 97.2195 144.599 96.9695 144.399 97.0695L144.149 97.1695C143.949 97.2195 144.099 97.1195 144.199 97.1695C144.149 97.1695 144.049 97.2195 143.999 97.2195L143.849 97.2695H143.749C143.649 97.2695 143.699 97.2695 143.899 97.2695C143.749 97.2695 143.649 97.2695 143.499 97.2695H143.349C142.999 97.1695 143.249 97.2695 143.349 97.2695C142.999 97.1695 142.649 97.1695 142.349 97.0695C141.899 96.9695 141.099 97.1195 140.999 97.6695C140.899 98.2195 141.649 98.5695 142.099 98.6695C143.349 99.0195 144.649 98.9695 145.849 98.5195C146.699 98.1195 147.349 97.4195 147.599 96.5695C148.099 95.1695 147.899 93.5195 147.599 92.0695C147.499 91.7195 147.449 91.3695 147.299 90.9695C147.049 90.4195 146.449 90.1195 145.849 90.1695C145.499 90.1695 144.699 90.4195 144.899 90.9695Z" fill="#38322D"/>
<path d="M127.349 81.5195C127.349 81.5195 124.049 84.6195 117.949 87.5195C106.549 92.8695 106.299 97.4195 110.649 98.7195C114.999 100.02 130.799 93.6695 130.799 93.6695" fill="white"/>
<path d="M126.199 81.2194C123.149 84.0694 119.299 85.9194 115.599 87.7694C113.249 88.9194 110.899 90.2695 108.999 92.0695C108.049 92.9694 106.949 94.1694 106.849 95.6194C106.699 98.5194 111.049 99.2194 113.099 99.1694C114.799 99.1194 116.549 98.8694 118.199 98.4194C120.149 97.9694 122.099 97.3694 124.049 96.7694C126.749 95.9194 129.399 94.9694 132.049 93.9194C132.349 93.8194 131.299 93.4694 131.249 93.4694C130.749 93.3194 130.199 93.2694 129.699 93.3694C127.699 94.1694 125.649 94.9194 123.599 95.6194C120.149 96.8194 116.599 97.9694 112.999 98.4194C112.699 98.4694 112.349 98.5194 112.049 98.5194C111.749 98.5194 111.499 98.5194 111.199 98.5194C110.949 98.5194 111.349 98.5694 111.199 98.5194C111.099 98.5194 110.899 98.4694 111.249 98.5194C111.049 98.4694 111.549 98.6194 111.399 98.5695C111.199 98.5195 110.999 98.4195 110.799 98.3195C109.949 97.9195 109.399 97.1194 109.349 96.1694C109.349 94.9194 110.249 93.7694 111.049 92.9194C112.799 91.2694 114.749 89.9194 116.899 88.8694C118.499 88.0194 120.149 87.3194 121.749 86.4194C123.049 85.7194 124.299 84.9694 125.499 84.1194C126.599 83.4194 127.599 82.6194 128.599 81.7194C128.849 81.5194 127.899 81.2694 127.799 81.2694C127.399 81.2194 126.449 80.9194 126.199 81.2194Z" fill="#38322D"/>
<path d="M150.299 75.2188C150.299 75.2188 148.599 75.4188 148.899 77.0188C149.199 78.6188 151.199 78.2688 151.399 76.7688C151.549 76.1188 151.149 75.4188 150.499 75.2188C150.449 75.2688 150.399 75.2688 150.299 75.2188Z" fill="#38322D"/>
<path d="M192.999 131.019C192.999 131.019 192.149 116.619 183.249 111.169C174.349 105.719 170.999 99.6689 178.299 98.1689C185.599 96.6689 206.399 115.019 213.549 121.019C220.699 127.019 233.499 187.119 211.999 188.769C190.499 190.419 193.799 146.969 192.999 131.019Z" fill="white"/>
<path d="M194.199 130.769C193.999 128.219 193.549 125.719 192.799 123.269C191.499 118.819 189.299 114.319 185.599 111.469C184.349 110.469 182.949 109.719 181.649 108.819C180.349 107.919 179.149 106.869 178.049 105.769C176.849 104.519 174.949 102.369 175.599 100.469C175.699 100.219 175.849 99.9691 176.049 99.7691C176.299 99.5691 176.549 99.4191 176.849 99.2691C177.299 99.0691 177.799 98.9691 178.299 98.8691C177.999 98.8691 178.549 98.8191 178.299 98.8691H178.499C178.549 98.8691 179.049 98.8691 178.749 98.8691C180.249 99.0191 181.749 99.4191 183.099 100.119C187.199 101.919 190.949 104.569 194.549 107.219C198.549 110.119 202.349 113.219 206.149 116.369C207.699 117.669 209.199 118.969 210.749 120.269C211.599 120.919 212.399 121.619 213.149 122.419C213.399 122.719 213.649 123.069 213.849 123.419C214.099 123.869 214.349 124.319 214.599 124.719C215.149 125.819 215.649 126.969 216.099 128.119C218.699 134.769 220.249 141.869 221.349 148.919C222.549 156.619 223.249 164.619 222.349 172.369C222.049 175.569 221.299 178.669 220.049 181.619C219.549 182.819 218.849 183.969 218.049 185.019C217.849 185.219 217.649 185.469 217.499 185.669L217.149 185.969L216.999 186.119C217.199 185.919 216.949 186.169 216.899 186.169C216.649 186.369 216.449 186.569 216.199 186.719L215.899 186.919C216.199 186.719 215.749 187.019 215.649 187.069C215.549 187.119 215.399 187.219 215.249 187.269C215.199 187.319 215.099 187.319 215.049 187.369C214.799 187.519 215.349 187.269 215.099 187.369C214.849 187.469 214.549 187.619 214.249 187.669L213.999 187.719C214.099 187.719 214.349 187.619 213.999 187.719L213.549 187.819C213.399 187.869 213.249 187.869 213.049 187.919C212.699 187.969 212.999 187.919 213.049 187.919L212.699 187.969C211.199 188.119 209.649 188.019 208.199 187.619C205.299 186.769 202.949 184.719 201.249 182.219C199.199 179.169 197.999 175.569 197.099 172.019C196.099 167.869 195.449 163.719 195.099 159.469C194.349 151.369 194.399 143.219 194.299 135.069C194.349 133.669 194.299 132.219 194.199 130.769C194.149 129.769 191.799 130.469 191.799 131.269C192.149 138.969 191.949 146.669 192.349 154.319C192.549 158.819 192.999 163.319 193.699 167.769C194.299 171.769 195.349 175.669 196.899 179.369C198.249 182.419 200.099 185.419 202.899 187.319C205.749 189.219 209.199 189.969 212.599 189.419C215.499 189.019 218.099 187.519 219.999 185.269C221.949 182.969 223.049 180.069 223.799 177.169C225.699 169.719 225.349 161.669 224.549 154.069C223.749 146.269 222.199 138.619 219.849 131.119C219.049 128.419 217.999 125.819 216.749 123.369C216.299 122.519 215.799 121.719 215.199 121.019C214.349 120.119 213.399 119.269 212.399 118.569C205.049 112.319 197.599 105.969 189.299 101.019C187.549 99.9191 185.699 99.0191 183.799 98.2691C182.349 97.6691 180.799 97.3691 179.249 97.3691C177.199 97.5191 174.399 98.4691 173.449 100.469C172.499 102.469 173.849 104.469 175.049 105.969C177.199 108.569 179.999 110.269 182.749 112.119C184.749 113.519 186.399 115.319 187.649 117.469C189.799 121.069 190.999 125.169 191.599 129.319C191.649 129.619 191.699 129.919 191.699 130.219L191.749 130.569V130.719C191.749 130.569 191.749 130.919 191.749 130.719C191.749 130.869 191.799 131.119 191.799 131.269C191.899 132.319 194.249 131.619 194.199 130.769Z" fill="#38322D"/>
<path d="M176.5 92.8703C176.5 92.8703 209.45 136.82 218.95 133.52C228.45 130.22 223.05 125.32 214.05 118.02C205.05 110.72 179.55 90.5703 179.55 90.5703L176.5 92.8703Z" fill="#22CEC8"/>
<path d="M175.299 92.7696C176.249 94.0196 177.199 95.2196 178.149 96.4696C180.499 99.4696 182.899 102.47 185.349 105.42C188.499 109.22 191.649 112.92 194.999 116.57C198.199 120.17 201.649 123.57 205.199 126.82C207.849 129.17 210.699 131.62 213.999 132.97C215.599 133.67 217.299 133.97 219.049 133.92C219.949 133.82 220.799 133.57 221.549 133.17C222.699 132.67 223.999 131.97 224.699 130.87C226.049 128.82 224.249 126.47 222.899 124.97C220.449 122.22 217.499 119.97 214.649 117.67C210.699 114.47 206.749 111.32 202.749 108.17C198.249 104.62 193.799 101.02 189.299 97.4696L181.149 91.0196L180.749 90.7196C180.399 90.5196 179.999 90.4196 179.549 90.4196C179.299 90.3696 178.549 90.2196 178.349 90.3696L175.299 92.7196C175.099 92.8696 176.049 93.0696 176.149 93.0696C176.449 93.1196 177.399 93.3696 177.699 93.1696L180.749 90.8196L178.349 90.4696L183.949 94.9196C188.099 98.2196 192.299 101.52 196.449 104.82C200.699 108.22 204.949 111.62 209.249 115.02C211.299 116.67 213.349 118.32 215.349 119.97C216.799 121.17 218.299 122.42 219.599 123.82C220.649 124.77 221.499 125.92 222.199 127.12C222.699 127.97 222.849 129.02 222.549 129.97C222.149 131.07 221.099 131.82 220.099 132.37C219.199 132.92 218.199 133.27 217.149 133.52H216.999C216.749 133.52 216.999 133.52 217.049 133.52C216.799 133.52 217.349 133.57 217.149 133.52C216.949 133.47 217.449 133.57 217.199 133.52C216.949 133.47 217.449 133.57 217.249 133.52C217.149 133.52 216.999 133.47 217.199 133.52L216.799 133.42L216.699 133.37L216.449 133.27C216.149 133.17 215.849 133.02 215.499 132.87C214.849 132.57 214.199 132.17 213.599 131.77C212.049 130.77 210.549 129.67 209.149 128.42C205.699 125.47 202.399 122.27 199.299 118.92C195.949 115.37 192.749 111.67 189.599 107.92C186.949 104.77 184.399 101.62 181.849 98.4196C180.549 96.7196 179.199 95.0696 177.899 93.3196C177.849 93.2696 177.799 93.1696 177.699 93.0696C177.449 92.7696 176.549 92.7696 176.199 92.7196C176.099 92.6196 175.199 92.5696 175.299 92.7696Z" fill="#22CEC8"/>
<path d="M211.5 110.819C212.55 110.719 219.3 107.769 220.1 113.669C220.9 119.569 218.3 124.319 214.05 123.619C209.8 122.919 211.5 110.819 211.5 110.819Z" fill="white"/>
<path d="M212.05 111.92C212.75 111.82 213.45 111.52 214.15 111.37C215.2 111.07 216.25 111.02 217.35 111.17C217.55 111.22 217.8 111.27 218 111.37C218.05 111.42 218.15 111.42 218.2 111.47C218.05 111.37 218.15 111.42 218.2 111.47C218.25 111.52 218.55 111.72 218.4 111.57C218.45 111.62 218.75 111.92 218.55 111.72C218.6 111.77 218.85 112.12 218.7 111.92C218.85 112.22 219 112.52 219.05 112.82C219.45 114.67 219.4 116.57 218.9 118.37C218.55 119.82 217.7 121.12 216.45 121.97C215.9 122.32 215.25 122.52 214.6 122.52C214.3 122.52 213.95 122.52 213.65 122.42L213.5 122.37L213.35 122.32C213.4 122.32 213.55 122.42 213.35 122.32C213.3 122.32 213.15 122.17 213.3 122.32C213.45 122.47 213.3 122.32 213.25 122.27C213.15 122.17 213.05 122.07 213.2 122.27L213 121.97C212.85 121.77 213 121.97 213.05 122.02C213 121.97 212.95 121.87 212.95 121.82C212.9 121.72 212.85 121.57 212.8 121.47C212.7 121.22 212.8 121.52 212.75 121.32C212.65 121.02 212.55 120.77 212.5 120.47C212.25 119.27 212.1 118.07 212.1 116.87C212.05 115.07 212.15 113.22 212.4 111.42C212.45 110.82 212.15 110.22 211.65 109.87C211.3 109.62 210.6 109.52 210.5 110.12C210.25 112.02 210.15 113.92 210.2 115.82C210.25 118.47 210.45 121.92 212.6 123.77C213.85 124.77 215.5 125.02 217 124.37C218.6 123.67 219.8 122.37 220.4 120.77C221.15 118.72 221.45 116.52 221.15 114.32C220.95 112.42 220.2 110.57 218.55 109.52C217.2 108.67 215.55 108.62 214 108.87C213 109.02 212 109.47 211 109.57C209.85 109.87 211.05 112.07 212.05 111.92Z" fill="#38322D"/>
<path d="M202.548 103.719C203.898 103.569 212.648 99.9689 213.648 106.919C214.648 113.869 211.148 119.519 205.698 118.719C200.248 117.919 202.548 103.719 202.548 103.719Z" fill="white"/>
<path d="M202.599 104.07C203.599 103.92 204.599 103.57 205.599 103.32C205.699 103.32 206.199 103.22 205.899 103.27L206.299 103.22L206.849 103.12H206.999L207.249 103.07C207.849 103.02 208.449 103.02 209.049 103.17C210.449 103.47 211.599 104.47 212.049 105.82C212.799 107.92 212.649 110.52 212.149 112.67C211.699 114.57 210.699 116.47 209.099 117.62C207.999 118.42 206.799 118.72 205.649 117.97C204.599 117.32 204.149 116.07 203.799 114.97C203.449 113.47 203.249 111.92 203.249 110.37C203.199 108.07 203.349 105.77 203.749 103.52C203.799 103.17 201.399 103.17 201.299 103.92C200.949 106.07 200.799 108.27 200.799 110.47C200.749 112.17 200.949 113.82 201.399 115.47C201.749 116.72 202.349 118.07 203.549 118.72C204.299 119.12 205.199 119.27 206.049 119.27C207.299 119.32 208.599 119.07 209.749 118.62C211.699 117.77 213.299 116.22 214.049 114.22C214.999 111.87 215.249 109.27 214.849 106.77C214.599 105.02 213.699 103.47 211.999 102.77C210.199 102.02 208.049 102.17 206.199 102.47C205.349 102.62 204.499 102.82 203.699 103.02L202.799 103.27L202.499 103.37C202.199 103.47 202.849 103.32 202.549 103.37C202.249 103.42 201.299 103.57 201.349 103.97C201.399 104.37 202.399 104.12 202.599 104.07Z" fill="#38322D"/>
<path d="M190 96.9702C190 96.9702 196.35 94.1702 200.85 98.6702C205.35 103.17 202.75 112.87 197.85 112.67C192.95 112.47 194.8 101.82 194.8 101.82" fill="white"/>
<path d="M190.85 97.8196C190.65 97.9196 190.6 97.9196 190.8 97.8696L191.25 97.7196C191.75 97.5696 192.3 97.4196 192.8 97.3196C194.3 97.0196 195.85 97.0696 197.3 97.5196C200.65 98.5196 202.15 101.72 202.05 105.02C201.95 107.42 200.8 110.92 198.3 111.62C198.05 111.67 197.85 111.72 197.6 111.72C197.55 111.72 197.15 111.67 197.35 111.72C197.25 111.72 196.85 111.57 197.1 111.67C197 111.62 196.9 111.57 196.8 111.52C197.05 111.67 196.8 111.52 196.7 111.47C196.95 111.62 196.7 111.47 196.65 111.37C196.45 111.17 196.65 111.42 196.55 111.22C196.5 111.12 196.4 111.02 196.35 110.92C196.25 110.72 196.35 110.97 196.25 110.72C196.15 110.42 196.05 110.12 195.95 109.82C195.8 109.27 195.7 108.72 195.65 108.17C195.45 106.22 195.55 104.27 195.9 102.37C196.1 101.27 193.9 100.12 193.65 101.37C193.3 103.37 193.2 105.42 193.35 107.42C193.6 110.32 194.95 113.82 198.4 113.72C201.85 113.62 203.8 109.87 204.2 106.77C204.45 104.87 204.25 102.97 203.55 101.22C202.7 99.1696 201.15 97.4696 199.15 96.3696C196.15 94.7196 192.2 94.7196 189.1 96.0696C188.55 96.3196 188.9 97.1196 189.2 97.4696C189.65 97.9196 190.3 98.0696 190.85 97.8196Z" fill="#38322D"/>
<path d="M159.998 97.4695C175.242 97.4695 187.598 85.1126 187.598 69.8695C187.598 54.6265 175.242 42.2695 159.998 42.2695C144.755 42.2695 132.398 54.6265 132.398 69.8695C132.398 85.1126 144.755 97.4695 159.998 97.4695Z" fill="white"/>
<path d="M186.299 67.1197C186.949 72.6697 185.849 78.2697 183.199 83.1697C180.699 87.7697 176.849 91.4697 172.149 93.8197C167.149 96.2697 161.449 97.1197 155.949 96.1697C141.249 93.6197 131.349 79.5697 133.949 64.8697C134.349 62.6197 134.999 60.4197 135.949 58.3697C140.499 48.2697 151.049 42.2197 162.049 43.3197C173.049 44.3197 182.599 52.4197 185.499 63.0197C185.899 64.3697 186.149 65.7697 186.299 67.1197C186.449 68.2197 188.649 67.1697 188.549 66.1697C187.149 54.3697 178.449 44.7197 166.849 42.0697C160.949 40.7197 154.749 41.2697 149.149 43.6197C143.699 45.9197 139.049 49.7697 135.849 54.7697C132.649 59.7197 131.049 65.5197 131.249 71.4197C131.499 77.3197 133.549 83.0197 137.199 87.6697C140.749 92.1697 145.599 95.4697 151.049 97.2197C156.849 98.9697 163.049 98.8697 168.799 96.9197C174.399 95.0197 179.299 91.5197 182.849 86.8197C186.399 82.1197 188.449 76.4697 188.649 70.5697C188.699 69.1197 188.649 67.6697 188.499 66.2197C188.449 65.0697 186.199 66.1697 186.299 67.1197Z" fill="#22CEC8"/>
<path d="M147.599 70.3692C147.599 70.3692 141.549 70.3192 141.999 76.0692C142.449 81.8192 149.599 81.3692 150.799 76.2692C151.999 71.1692 147.599 70.3692 147.599 70.3692Z" fill="#38322D"/>
<path d="M122.4 77.9199L123 77.6699L123.1 77.6199C123.4 77.4699 123.65 77.2699 123.9 77.0699C124 76.9699 124.05 76.8699 124.1 76.7699C124.15 76.6699 124.2 76.5699 124.2 76.4699L124.15 76.3199C124.1 76.2199 123.95 76.1699 123.85 76.1699H123.6C123.4 76.2199 123.2 76.2699 123.05 76.3199L122.45 76.5699L122.35 76.6199C122.2 76.6699 122.05 76.7699 121.9 76.8699C121.75 76.9699 121.65 77.0699 121.55 77.1699C121.45 77.2699 121.4 77.3699 121.35 77.4699C121.3 77.5699 121.25 77.6699 121.25 77.7699L121.3 77.9199C121.35 78.0199 121.5 78.0699 121.6 78.0699H121.85C122.05 78.0699 122.25 78.0199 122.4 77.9199Z" fill="#38322D"/>
<path d="M123.999 131.02C132.149 135.47 140.999 138.37 150.199 139.57C154.549 140.17 158.999 140.32 163.399 140.07C167.149 139.87 170.849 139.12 174.349 137.82C178.099 136.37 181.549 133.97 183.849 130.57C184.149 130.17 182.049 128.82 181.699 129.27C177.599 135.37 170.149 137.77 163.149 138.47C158.999 138.87 154.799 138.82 150.649 138.32C146.199 137.87 141.849 137.02 137.549 135.72C132.799 134.32 128.149 132.37 123.799 129.97C123.599 129.87 122.849 129.52 122.799 129.92C122.749 130.32 123.749 130.87 123.999 131.02Z" fill="#38322D"/>
<path d="M111.298 155.519C117.648 156.769 123.698 158.969 129.898 160.619C135.998 162.269 142.248 163.269 148.548 163.619C154.798 163.969 160.998 163.519 167.098 162.169C171.748 161.219 176.198 159.519 180.248 157.169C184.948 154.419 188.848 150.619 192.348 146.419C192.748 145.969 192.498 145.369 192.148 144.969C191.898 144.669 191.098 144.069 190.748 144.519C187.748 148.269 184.198 151.569 180.248 154.269C176.398 156.719 172.198 158.569 167.748 159.619C155.848 162.619 143.298 161.819 131.448 158.969C124.598 157.319 117.948 154.769 110.998 153.419C109.548 153.119 110.298 155.319 111.298 155.519Z" fill="#38322D"/>
<path d="M105.449 174.97C117.399 178.67 129.699 180.87 142.199 181.52C148.349 181.87 154.549 181.77 160.699 181.37C166.349 181.02 171.949 180.22 177.449 178.87C183.399 177.37 189.149 174.97 194.099 171.32C194.349 171.12 193.349 170.92 193.249 170.92C192.899 170.87 192.049 170.67 191.699 170.92C183.049 177.32 172.249 179.62 161.749 180.57C150.049 181.62 138.299 181.22 126.699 179.37C120.099 178.32 113.599 176.77 107.249 174.82C106.699 174.62 106.099 174.57 105.499 174.62C105.099 174.62 104.999 174.77 105.449 174.97Z" fill="#38322D"/>
<path d="M174.199 87.4696C177.549 85.2196 180.049 81.8696 181.249 78.0196C181.449 77.5196 181.199 76.9696 180.699 76.7696C180.649 76.7696 180.599 76.7196 180.549 76.7196C180.049 76.5696 179.099 76.7696 178.949 77.3696C177.899 80.8696 175.649 83.8696 172.649 85.9196C172.199 86.1696 172.049 86.7696 172.349 87.2196C172.399 87.2696 172.449 87.3196 172.449 87.3696C172.949 87.8196 173.649 87.8696 174.199 87.4696Z" fill="#22CEC8"/>
<path d="M182.899 73.419V70.719C182.899 70.619 182.599 70.519 182.549 70.519C182.249 70.419 181.999 70.319 181.699 70.269C181.599 70.269 180.449 70.019 180.449 70.169V72.869C180.449 72.969 180.749 73.069 180.799 73.069C181.099 73.169 181.349 73.269 181.649 73.319C181.699 73.319 182.899 73.569 182.899 73.419Z" fill="#22CEC8"/>
<path d="M79.4982 137.82C79.4982 137.82 65.0982 133.42 65.2982 120.07C65.2982 120.07 59.8982 121.77 59.3482 115.37C59.3482 115.37 56.7482 119.42 52.5482 116.72C48.3482 114.02 57.4482 97.1702 61.6482 97.5202C61.6482 97.5202 63.0482 91.7702 69.1982 93.5202C69.1982 93.5202 69.7482 89.8202 64.7482 87.6702C59.7482 85.5202 54.5482 80.4702 60.9482 77.0702C67.3482 73.6702 75.8982 79.3702 79.9982 84.9702C84.0982 90.5702 87.5982 102.37 87.5982 102.37C87.5982 102.37 83.4982 84.2702 91.3982 84.8202C99.2982 85.3702 107.998 115.02 98.3982 127.52C98.3982 127.52 133.298 176.12 116.498 192.42C99.6982 208.72 77.6982 174.22 79.4982 137.82Z" fill="white"/>
<path d="M80.1492 137.619C80.4992 137.719 80.1992 137.619 79.9992 137.569C79.6492 137.469 79.2992 137.319 78.9492 137.169C77.7992 136.669 76.6992 136.119 75.6492 135.469C72.4992 133.619 69.8992 130.969 68.1992 127.719C67.0492 125.369 66.4992 122.819 66.5492 120.219C66.5492 119.619 64.5992 119.719 64.2492 119.819L64.0492 119.869C64.2492 119.819 64.0992 119.869 63.9992 119.869L63.6992 119.919C63.4492 119.969 63.8492 119.919 63.5492 119.919H63.3992C63.1992 119.919 63.5992 119.969 63.3992 119.919C63.0492 119.869 63.2992 119.919 63.3992 119.919L63.1992 119.869C63.0992 119.869 63.3992 119.969 63.1492 119.869C63.0492 119.819 63.2992 119.919 63.0992 119.869C62.9992 119.819 62.9492 119.819 62.8492 119.769C62.7492 119.719 62.5992 119.619 62.4992 119.569C62.1992 119.369 61.8992 119.069 61.6992 118.769C61.0492 117.819 60.6992 116.719 60.6492 115.569C60.5992 115.019 58.4492 114.869 58.1492 115.319C58.1992 115.219 58.1492 115.319 58.0992 115.369C58.0492 115.419 57.9492 115.569 57.8492 115.669C57.5992 115.969 57.2992 116.269 56.9492 116.519C56.5492 116.819 56.0992 117.069 55.5992 117.219C55.3992 117.319 55.1992 117.319 54.9492 117.369C54.9992 117.369 55.1492 117.419 54.9492 117.369C54.7992 117.319 54.6492 117.269 54.5492 117.219C53.7492 117.019 53.1492 116.419 52.8492 115.619C52.6492 114.869 52.5992 114.019 52.7492 113.269C53.0992 111.119 53.7492 109.069 54.6992 107.119C55.6992 104.969 56.9492 102.919 58.4492 101.069C59.0992 100.219 59.8492 99.4691 60.6492 98.7691C60.9492 98.5191 61.2492 98.3191 61.5992 98.1191C61.7492 98.0691 61.9492 97.9691 62.0992 97.9191C62.0992 97.9191 62.1492 97.8691 62.1492 97.9191C62.1492 97.9691 61.9992 97.9191 62.0492 97.9191C62.0992 97.9191 61.7492 97.9191 61.9492 97.9191C62.1492 97.9191 62.8492 97.9691 62.8992 97.7191C63.1492 96.8691 63.5492 96.0691 64.1492 95.3691C65.2992 94.0191 66.8992 93.3191 68.5992 93.8191C68.8492 93.8691 70.4492 94.2191 70.4992 93.7191C70.5992 92.8191 70.3492 91.8691 69.8992 91.0691C69.4492 90.2191 68.7992 89.4691 67.9992 88.9191C66.9492 88.1191 65.7492 87.6691 64.6492 87.0691C62.6992 86.0691 60.5992 84.6191 59.5992 82.5691C59.1992 81.7691 59.1492 80.8191 59.3992 79.9691C59.7992 78.8691 60.7992 78.1191 61.7492 77.5191C63.6992 76.3691 66.0492 76.1191 68.1992 76.9191C70.6992 77.8191 72.9992 79.1691 74.9492 80.8691C76.7992 82.4691 78.3992 84.3191 79.6992 86.3691C80.8492 88.3191 81.8992 90.3691 82.7492 92.4691C84.0992 95.6691 85.2992 98.9191 86.2992 102.219C86.4992 102.819 88.8492 102.769 88.7992 102.469C88.1492 99.5691 87.7992 96.6191 87.7492 93.6691C87.6992 91.6691 87.7992 89.5691 88.5992 87.6691C88.8992 86.9191 89.3492 86.2191 89.9992 85.7191C90.2992 85.4691 90.6492 85.3191 90.9992 85.2191L91.1992 85.1691C91.2492 85.1691 91.4992 85.1191 91.3492 85.1191H91.4492C91.2492 85.1691 91.5992 85.1191 91.4492 85.1191C91.7492 85.0691 91.3492 85.1191 91.4992 85.1191C91.5492 85.1191 91.1992 85.1191 91.4492 85.1191C91.2492 85.1191 91.2992 85.0691 91.4492 85.1191C91.4492 85.1191 91.2992 85.0691 91.4992 85.1191L91.7492 85.2191C91.5992 85.1691 91.7992 85.2691 91.8492 85.2691L92.0492 85.3691C92.1992 85.4691 92.3492 85.5691 92.4992 85.6691C93.1492 86.1691 93.7492 86.7691 94.2992 87.4191C95.6492 89.1691 96.7492 91.0691 97.5492 93.1191C99.7492 98.3691 100.999 103.969 101.249 109.669C101.499 115.069 100.949 120.919 98.1492 125.619C97.8492 126.169 97.4992 126.669 97.0992 127.169C97.0492 127.219 97.0492 127.269 97.0992 127.319C97.9492 128.519 98.7492 129.719 99.5992 130.969C101.649 134.019 103.599 137.169 105.449 140.369C107.899 144.569 110.249 148.919 112.299 153.319C114.549 157.969 116.399 162.819 117.849 167.769C119.099 172.119 119.949 176.719 119.699 181.319C119.449 185.169 118.249 189.019 115.499 191.819C113.899 193.569 111.849 194.869 109.649 195.669C108.749 195.969 107.799 196.119 106.849 196.169C107.099 196.169 106.699 196.169 106.649 196.169H106.399H106.149C106.049 196.169 105.699 196.119 105.949 196.169C105.499 196.119 105.049 196.019 104.599 195.869C102.499 195.169 100.549 194.069 98.8492 192.619C96.7492 190.819 94.8492 188.769 93.2492 186.469C89.1992 180.869 86.3992 174.419 84.3992 167.819C82.0492 160.119 80.7992 152.169 80.5992 144.119C80.5492 142.069 80.5992 140.019 80.6492 137.969C80.6492 137.469 78.1992 137.269 78.1492 137.719C77.7492 146.119 78.5492 154.519 80.5492 162.719C82.2492 169.769 84.7992 176.769 88.5492 183.019C91.3992 187.719 95.0492 192.419 99.9992 195.069C104.249 197.319 109.499 197.769 113.849 195.469C117.649 193.469 120.399 189.919 121.499 185.769C122.649 181.519 122.249 176.969 121.399 172.669C120.299 167.619 118.749 162.719 116.649 158.019C114.599 153.269 112.349 148.619 109.799 144.119C107.749 140.469 105.599 136.819 103.299 133.269C102.099 131.419 100.899 129.619 99.6492 127.819C99.5992 127.719 99.5492 127.669 99.4992 127.569V127.769C102.949 123.269 103.849 117.269 103.799 111.719C103.749 105.769 102.599 99.9191 100.399 94.3691C99.5492 92.1191 98.4492 90.0191 97.0492 88.0691C95.9992 86.6691 94.6992 85.3691 92.9992 84.8191C91.0992 84.2191 88.5992 84.2191 87.1492 85.7691C85.8492 87.2191 85.4992 89.3691 85.3492 91.2191C85.1992 93.4691 85.2992 95.6691 85.5992 97.8691C85.7492 99.2691 85.9992 100.669 86.2992 102.019C86.2992 102.069 86.3492 102.169 86.3492 102.219L88.8492 102.469C87.9492 99.5191 86.8992 96.6191 85.7492 93.7691C84.8492 91.4691 83.7992 89.2191 82.5492 87.0691C81.2992 84.9191 79.6992 82.9691 77.8492 81.2691C73.7992 77.6691 68.0992 74.7691 62.5492 75.8691C60.3992 76.3191 57.3992 77.6191 56.8492 80.0191C56.3492 82.1191 58.1492 84.0691 59.6492 85.2691C60.7492 86.1691 61.9492 86.9191 63.2492 87.5191C64.5992 88.1691 65.8492 88.7691 66.7992 89.9191C67.5492 90.8691 68.1992 92.1691 67.9992 93.4191L69.8992 93.3191C67.3492 92.6191 64.1992 92.4691 62.1992 94.4691C61.3492 95.2691 60.7492 96.3191 60.4492 97.4191L61.3992 97.2191C59.3992 97.1191 57.8992 98.4691 56.6992 99.8691C55.0492 101.819 53.5992 104.019 52.4992 106.369C51.4492 108.519 50.4992 110.869 50.2992 113.269C50.1992 114.119 50.2992 114.969 50.5992 115.769C51.0992 116.869 52.3992 117.369 53.4492 117.719C56.0492 118.519 59.0992 117.969 60.5992 115.569L58.0992 115.319C58.1492 116.669 58.5992 117.919 59.3992 118.969C60.0492 119.669 60.9492 120.219 61.8992 120.419C63.3492 120.819 64.8492 120.819 66.2992 120.419L63.9992 120.019C63.9492 124.469 65.6992 128.819 68.7992 132.019C71.0492 134.319 73.7492 136.119 76.7492 137.369C77.3992 137.669 78.0992 137.919 78.7992 138.119C79.2492 138.269 80.0992 138.419 80.4992 138.169C80.8992 137.919 80.3992 137.669 80.1492 137.619Z" fill="#38322D"/>
<path d="M83.9492 115.47C83.9492 115.47 84.4492 105.27 87.7992 101.77L83.9492 115.47Z" fill="white"/>
<path d="M85.1988 115.619C85.2988 113.769 85.5488 111.969 85.8488 110.169C86.3488 107.419 86.9988 104.169 88.9988 102.069C89.3488 101.669 88.4488 101.369 88.1988 101.269C87.7488 101.169 86.9988 101.069 86.6488 101.469C85.0988 103.119 84.3988 105.519 83.8488 107.669C83.3488 109.769 83.0488 111.869 82.8488 113.969C82.7988 114.419 82.7488 114.869 82.7488 115.319C82.6988 116.119 85.1488 116.369 85.1988 115.619Z" fill="#38322D"/>
<path d="M61.7996 96.9199C61.7996 96.9199 54.2496 115.02 61.4496 120.77C68.6496 126.52 72.4996 108.47 72.4996 108.47" fill="white"/>
<path d="M60.5989 96.67C59.6989 98.87 58.9489 101.17 58.3489 103.52C57.3489 107.47 56.4989 111.82 57.4489 115.87C57.7989 117.72 58.6989 119.42 60.0989 120.72C61.4989 122.02 63.3989 122.62 65.2989 122.32C68.4989 121.77 70.2489 118.42 71.3989 115.77C72.3989 113.42 73.1989 111.02 73.6989 108.52C73.8489 107.82 71.3989 107.57 71.1989 108.37C70.7989 110.27 70.2489 112.12 69.5489 113.92C68.9989 115.42 68.3489 116.87 67.4989 118.22C66.7989 119.37 65.9489 120.52 64.6989 121.17C64.8489 121.12 64.4989 121.22 64.4489 121.27L64.2489 121.32C64.2989 121.32 64.4489 121.27 64.2989 121.32C64.2489 121.32 64.1489 121.37 64.0489 121.37C64.0989 121.37 64.3489 121.32 64.0489 121.37C63.9989 121.37 63.7989 121.37 64.1489 121.37C64.0489 121.37 63.6989 121.32 64.0989 121.37C64.0489 121.37 63.9489 121.37 63.8989 121.32L63.6489 121.22C63.8489 121.27 63.6489 121.22 63.5989 121.22C63.2489 121.07 62.9489 120.87 62.6489 120.67C61.2989 119.57 60.3989 118.02 59.9989 116.32C59.0489 112.52 59.7489 108.37 60.6489 104.62C61.2489 102.07 61.9989 99.57 62.9989 97.17C63.3489 96.32 60.8989 96.02 60.5989 96.67Z" fill="#38322D"/>
<path d="M68.0486 93.2199L70.5986 101.02L70.9486 102.12C71.1486 102.67 72.0486 102.42 72.3986 102.27C72.8486 102.07 73.3486 101.57 73.1986 101.07L70.6486 93.2699L70.2986 92.1699C70.0986 91.6199 69.1986 91.8699 68.8486 92.0699C68.3986 92.2199 67.8986 92.6699 68.0486 93.2199Z" fill="#38322D"/>
<g opacity="0.49">
<path d="M148.25 96.9688H22.1504V184.019H148.25V96.9688Z" fill="#22CEC8"/>
<path d="M148.5 184.319H21.9004V96.7188H148.5V184.319ZM22.4004 183.819H148V97.2188H22.4004V183.819Z" fill="#22CEC8"/>
<path d="M31.4008 105.169C32.1464 105.169 32.7508 104.564 32.7508 103.819C32.7508 103.073 32.1464 102.469 31.4008 102.469C30.6552 102.469 30.0508 103.073 30.0508 103.819C30.0508 104.564 30.6552 105.169 31.4008 105.169Z" fill="white"/>
<path d="M31.6005 104.268C31.6005 104.418 31.5505 104.618 31.5005 104.768L31.5505 104.618C31.5505 104.668 31.5005 104.718 31.4505 104.818L31.4005 104.868C31.3505 104.968 31.5505 104.718 31.4505 104.818L31.4005 104.868C31.4005 104.868 31.6005 104.668 31.5005 104.768C31.4005 104.868 31.6505 104.668 31.6505 104.668L31.6005 104.718C31.5005 104.768 31.6005 104.718 31.8005 104.568C31.6505 104.668 32.1005 104.418 32.0005 104.468C31.9005 104.518 32.1505 104.418 32.1505 104.418C32.0505 104.468 31.9505 104.468 32.2505 104.418H32.1505C32.0505 104.418 32.3505 104.418 32.2505 104.418H32.1505L31.9505 104.368L32.1005 104.418C31.9005 104.368 31.6505 104.268 31.5005 104.118L31.6005 104.268C31.3505 104.018 31.2005 103.718 31.1505 103.368V103.468C31.1005 103.218 31.1505 103.018 31.2505 102.768L31.2005 102.918C31.2005 102.868 31.2505 102.818 31.3005 102.718L31.3505 102.668C31.4005 102.568 31.2005 102.818 31.3005 102.718C31.3505 102.718 31.3505 102.668 31.3505 102.668C31.3505 102.668 31.1505 102.868 31.2505 102.768C31.3505 102.668 31.1005 102.868 31.1005 102.868L31.1505 102.818L30.9505 102.968C31.1005 102.868 30.6505 103.118 30.7505 103.068L30.6005 103.118C30.7005 103.068 30.8005 103.068 30.5005 103.168H30.6005C30.7505 103.168 30.4005 103.168 30.5005 103.168H30.6005L30.8005 103.218L30.6505 103.168C30.8505 103.218 31.1005 103.318 31.2505 103.468L31.1505 103.368C31.4005 103.618 31.6005 103.918 31.6005 104.268V104.118C31.6505 104.168 31.6505 104.268 31.6005 104.268C31.6005 104.768 32.4005 104.468 32.6505 104.368C32.9505 104.268 33.2505 104.068 33.5005 103.868L33.7005 103.668C33.8005 103.568 33.8505 103.468 33.9005 103.368C33.9005 103.018 33.8005 102.718 33.6005 102.418C33.4005 102.168 33.1505 101.968 32.8005 101.868C32.3005 101.718 31.8005 101.768 31.3505 101.918C30.6505 102.118 29.9505 102.568 29.4505 103.118C29.2005 103.418 29.0005 103.768 28.9505 104.168C28.9005 104.518 29.0005 104.868 29.1505 105.118C29.3505 105.418 29.6005 105.618 29.9005 105.718C30.3005 105.868 30.8005 105.868 31.2005 105.768C31.7005 105.618 32.1505 105.418 32.5505 105.168C32.8505 105.018 33.1005 104.768 33.3005 104.568C33.6005 104.218 33.8005 103.818 33.8005 103.368C33.8005 102.918 33.0005 103.218 32.8005 103.318C32.5005 103.418 32.2005 103.618 31.9505 103.818L31.7505 104.018C31.7505 104.068 31.6505 104.168 31.6005 104.268Z" fill="white"/>
<path d="M38.35 105.22C39.0956 105.22 39.7 104.615 39.7 103.87C39.7 103.124 39.0956 102.52 38.35 102.52C37.6044 102.52 37 103.124 37 103.87C37 104.615 37.6044 105.22 38.35 105.22Z" fill="white"/>
<path d="M38.55 103.369C38.55 103.819 38.3 104.219 37.95 104.469L38 104.419C37.8 104.569 37.55 104.619 37.35 104.619C37.3 104.619 37.15 104.569 37.4 104.619C37.3 104.619 37.2 104.569 37.5 104.669L37.7 104.719C37.8 104.769 37.95 104.819 38.05 104.869C38.15 104.919 38.2 104.919 38.15 104.919C38.35 105.019 38.4 105.069 38.3 105.019C38.35 105.069 38.55 105.169 38.4 105.069C38.6 105.219 38.5 105.169 38.45 105.119C38.4 105.069 38.4 105.069 38.35 105.019L38.45 105.119C38.3 104.919 38.2 104.669 38.15 104.419V104.519C38.1 104.019 38.3 103.519 38.75 103.219L38.7 103.269C38.9 103.119 39.15 103.069 39.35 103.069H39.2C39.25 103.069 39.3 103.069 39.35 103.069C39.4 103.069 39.55 103.119 39.3 103.069L39.2 103.019C39.3 103.069 39.25 103.019 39 102.969C38.9 102.919 38.75 102.869 38.65 102.819L38.55 102.769C38.35 102.669 38.3 102.619 38.4 102.669C38.35 102.669 38.15 102.519 38.3 102.619C38.1 102.469 38.2 102.519 38.25 102.569C38.3 102.619 38.3 102.619 38.35 102.669L38.25 102.569C38.4 102.769 38.5 103.019 38.55 103.269V103.169C38.55 103.219 38.55 103.269 38.55 103.369C38.55 103.519 38.7 103.619 38.8 103.669C39.05 103.819 39.3 103.969 39.6 104.119C39.85 104.219 40.15 104.319 40.45 104.419C40.5 104.419 40.85 104.519 40.85 104.369C40.85 104.069 40.75 103.719 40.55 103.469C40.15 102.969 39.6 102.619 38.95 102.369C38.1 102.019 36.95 101.669 36.2 102.419C35.75 102.919 35.7 103.619 36.05 104.119C36.4 104.569 36.8 104.919 37.35 105.119C38 105.519 38.75 105.719 39.5 105.719C40.25 105.669 40.8 105.069 40.8 104.319C40.8 104.169 40.65 104.069 40.55 104.019C40.3 103.869 40.05 103.719 39.75 103.569C39.5 103.419 39.2 103.369 38.9 103.269C38.9 103.319 38.55 103.219 38.55 103.369Z" fill="white"/>
<path d="M45.4008 105.069C46.1464 105.069 46.7508 104.465 46.7508 103.719C46.7508 102.974 46.1464 102.369 45.4008 102.369C44.6552 102.369 44.0508 102.974 44.0508 103.719C44.0508 104.465 44.6552 105.069 45.4008 105.069Z" fill="white"/>
<path d="M45.65 103.368V103.418V103.218C45.65 103.368 45.6 103.568 45.55 103.718L45.65 103.518C45.55 103.718 45.45 103.868 45.3 103.968L45.45 103.868C45.3 103.968 45.15 104.068 44.95 104.118L45.15 104.068C45.05 104.118 44.9 104.118 44.8 104.118H45C44.9 104.118 44.8 104.118 44.65 104.068L44.9 104.118C44.8 104.118 44.75 104.068 44.65 104.018L44.95 104.118C44.9 104.068 44.8 104.068 44.75 104.018L45.05 104.218C45 104.168 44.95 104.118 44.9 104.068L45.15 104.268C45.1 104.218 45.05 104.168 45 104.118L45.2 104.368C45.15 104.318 45.1 104.218 45.05 104.168L45.15 104.418C45.1 104.318 45.05 104.218 45.05 104.118L45.1 104.368C45.05 104.218 45.05 104.118 45.05 103.968V104.168C45.05 104.018 45.1 103.818 45.15 103.668L45.05 103.868C45.15 103.668 45.25 103.518 45.4 103.418L45.25 103.518C45.4 103.418 45.55 103.318 45.75 103.268L45.65 103.368C45.75 103.368 45.9 103.368 46 103.368H45.75C45.85 103.368 45.95 103.368 46.1 103.418L45.85 103.368C45.95 103.368 46 103.418 46.1 103.468L45.8 103.368C45.85 103.418 45.95 103.418 46 103.468L45.7 103.268C45.75 103.318 45.8 103.368 45.85 103.418L45.6 103.218C45.65 103.268 45.7 103.318 45.75 103.368L45.55 103.118C45.6 103.168 45.65 103.268 45.7 103.318L45.6 103.068C45.65 103.168 45.7 103.268 45.7 103.368L45.65 103.118C45.65 103.168 45.65 103.268 45.65 103.368C45.7 103.618 45.85 103.918 46.05 104.068C46.25 104.318 46.55 104.518 46.85 104.618C47.1 104.718 47.35 104.718 47.55 104.618C47.75 104.518 47.85 104.318 47.8 104.068C47.8 103.618 47.6 103.168 47.35 102.768C46.95 102.218 46.4 101.768 45.8 101.518C44.95 101.168 44 101.368 43.4 102.018C43.15 102.268 43.05 102.618 43 102.968C43 103.218 43 103.468 43.05 103.718C43.1 103.968 43.2 104.218 43.35 104.418C43.65 104.918 44.1 105.318 44.65 105.618C45.15 105.868 45.7 105.968 46.25 105.918C47.2 105.818 47.9 104.968 47.85 104.018C47.8 103.718 47.65 103.468 47.45 103.318C47.25 103.068 46.95 102.868 46.65 102.768C46.4 102.668 46.15 102.668 45.95 102.768L45.8 102.918C45.65 103.118 45.65 103.218 45.65 103.368Z" fill="white"/>
<path d="M47.7005 135.469H124.251C128.801 135.469 132.451 139.169 132.451 143.719C132.451 148.269 128.751 151.969 124.251 151.969H47.7005C43.1505 151.969 39.5005 148.269 39.5005 143.719C39.4505 139.169 43.1505 135.469 47.7005 135.469Z" fill="white"/>
<path d="M49.1011 139.168C48.2511 138.968 47.3511 139.318 46.8511 140.018C46.4011 140.668 46.1511 141.468 46.1011 142.268C46.0511 143.168 46.3511 144.018 46.9011 144.718C47.5511 145.418 48.4511 145.968 49.4011 146.168C50.8511 146.568 52.5011 146.318 53.4511 145.018C54.3511 143.868 54.4011 142.318 53.6511 141.068C52.7511 139.618 50.9011 138.418 49.1511 138.818C48.9511 138.818 48.7511 138.968 48.6511 139.168C48.6011 139.418 48.6011 139.668 48.7511 139.918C49.0011 140.368 49.6511 141.018 50.2011 140.868C50.4011 140.818 50.6511 140.768 50.9011 140.818C50.6511 140.818 50.9511 140.818 51.0011 140.818L51.2011 140.868H51.1011L51.2011 140.918C51.3011 140.968 51.4011 141.018 51.5011 141.068C51.5011 141.068 51.2511 140.918 51.4511 141.018L51.6011 141.118C51.6511 141.168 51.7011 141.168 51.7511 141.218C51.5511 141.168 51.5511 141.068 51.7011 141.168L51.8511 141.318C52.0011 141.468 51.7011 141.118 51.8011 141.268C51.8511 141.318 51.8511 141.368 51.9011 141.418C52.0011 141.568 51.8511 141.368 51.8511 141.368L52.0011 141.618C51.9511 141.468 52.1011 141.868 52.0011 141.618C52.0011 141.668 52.0511 141.718 52.0511 141.818L52.1011 141.968C52.0511 141.818 52.1011 141.918 52.1011 142.018C52.1011 142.118 52.1011 142.218 52.1011 142.318V142.468C52.1011 142.268 52.1011 142.468 52.1011 142.518C52.0511 142.768 51.9511 142.968 51.8511 143.218C51.7511 143.368 51.8511 143.268 51.8511 143.218L51.7511 143.368C51.7011 143.468 51.6011 143.568 51.5011 143.668C51.4511 143.768 51.3511 143.818 51.3011 143.868L51.2011 143.968C51.0511 144.068 51.3011 143.918 51.1011 144.018C50.9011 144.118 50.7011 144.218 50.5011 144.318C50.3511 144.368 50.4511 144.318 50.5011 144.318L50.3511 144.368C50.2011 144.368 50.0011 144.368 49.8511 144.368C49.8011 144.368 49.5511 144.318 49.4511 144.318L49.2511 144.268C49.0511 144.218 49.1511 144.268 49.2011 144.268C49.0511 144.218 48.9511 144.168 48.8011 144.118L48.6011 144.018C48.4011 143.918 48.7011 144.118 48.6011 144.018C48.5511 144.018 48.4011 143.918 48.4011 143.918C48.4011 143.968 48.6511 144.068 48.4511 143.968C48.2511 143.868 48.4511 143.918 48.5011 144.018C48.5011 143.968 48.4011 143.918 48.4011 143.868C48.4011 144.068 48.5011 143.968 48.4011 143.868C48.3011 143.768 48.4511 144.118 48.4011 143.868L48.3511 143.718C48.3011 143.518 48.3511 143.818 48.3511 143.618C48.3511 143.468 48.3511 143.318 48.3511 143.168C48.3511 143.118 48.3511 143.068 48.3511 142.968C48.3511 143.118 48.3511 142.818 48.3511 142.818C48.4011 142.518 48.5011 142.218 48.6511 141.918C48.7011 141.818 48.7511 141.718 48.8511 141.618C48.9011 141.568 48.9511 141.518 49.0011 141.418C49.0011 141.418 49.1511 141.268 49.0511 141.368C49.1011 141.318 49.2011 141.268 49.2511 141.268C49.3011 141.268 49.5011 141.168 49.4511 141.218C49.4011 141.268 49.5511 141.218 49.5511 141.218H49.5011C49.5511 141.218 49.6011 141.218 49.6511 141.268C50.0011 141.368 50.3511 141.168 50.4511 140.818C50.5011 140.668 50.5011 140.568 50.4511 140.418C50.2511 139.818 49.7511 139.368 49.1511 139.218L49.1011 139.168Z" fill="#38322D"/>
<path d="M51.7504 145.769C52.2004 146.119 52.6004 146.469 53.0004 146.869L52.8004 146.669C53.2504 147.119 53.6504 147.619 54.0004 148.119C54.1504 148.319 54.4504 148.469 54.7004 148.519C55.0504 148.569 55.3504 148.519 55.6504 148.369C56.1504 148.069 56.5004 147.519 56.1504 146.969C55.4504 145.919 54.5504 144.969 53.5504 144.219C53.3004 144.069 53.0004 143.969 52.7004 143.969C52.3504 143.969 52.0504 144.119 51.8004 144.319C51.5504 144.469 51.4504 144.769 51.4004 145.019C51.4004 145.369 51.5504 145.619 51.7504 145.769Z" fill="#38322D"/>
<path d="M111.651 141.069C111.651 141.069 111.251 144.819 111.901 145.219C112.551 145.619 114.401 145.819 114.551 144.419C114.701 143.019 114.751 141.019 113.901 140.819C113.051 140.619 111.701 140.419 111.651 141.069Z" fill="#38322D"/>
<path d="M110.551 140.519C110.451 141.269 110.451 142.019 110.451 142.769C110.451 143.269 110.451 143.719 110.551 144.219C110.751 144.869 111.251 145.419 111.901 145.669C112.601 146.069 113.401 146.219 114.201 146.219C114.751 146.219 115.301 145.969 115.601 145.469C115.701 145.169 115.751 144.869 115.751 144.569C115.801 144.219 115.801 143.819 115.801 143.469C115.851 142.819 115.701 142.169 115.451 141.569C115.051 141.019 114.501 140.619 113.901 140.419C113.451 140.269 112.951 140.119 112.451 140.069C111.951 140.019 110.651 139.819 110.551 140.519C110.551 140.669 110.651 140.819 110.751 140.919C110.951 141.119 111.201 141.269 111.501 141.419C111.751 141.569 112.051 141.669 112.351 141.719C112.451 141.719 112.801 141.769 112.801 141.669C112.801 141.569 112.851 141.469 112.951 141.419L112.851 141.469C112.901 141.419 112.951 141.369 113.051 141.369C113.101 141.369 113.151 141.369 113.151 141.319C113.051 141.369 113.101 141.319 113.201 141.319C113.301 141.319 113.401 141.319 113.501 141.319H113.651C113.501 141.319 113.701 141.319 113.651 141.319C113.801 141.319 114.101 141.369 114.301 141.419L114.451 141.469C114.151 141.419 114.351 141.469 114.401 141.469C114.551 141.519 114.451 141.469 114.051 141.319C113.851 141.269 113.651 141.169 113.501 141.019C113.351 140.869 113.301 140.869 113.351 140.919C113.401 140.969 113.351 140.919 113.251 140.819L113.301 140.919C113.251 140.819 113.351 141.019 113.301 140.919C113.351 141.019 113.351 141.069 113.401 141.169C113.451 141.369 113.501 141.569 113.501 141.769C113.551 142.269 113.551 142.719 113.551 143.219V143.019C113.501 143.569 113.551 144.269 113.101 144.669L113.201 144.619C113.051 144.719 112.901 144.819 112.751 144.869L112.651 144.919C112.651 144.919 112.501 144.969 112.601 144.919C112.701 144.869 112.551 144.919 112.551 144.919H112.251C112.101 144.919 112.201 144.919 112.301 144.919C112.201 144.919 112.101 144.869 112.051 144.869C112.001 144.869 112.301 144.919 112.151 144.869L112.051 144.819C112.001 144.819 112.351 144.919 112.201 144.869C112.151 144.869 112.551 145.019 112.351 144.919C112.601 145.019 112.851 145.219 113.051 145.419L113.001 145.369C112.951 145.319 113.051 145.519 113.001 145.419C112.951 145.319 112.901 145.169 112.901 145.019C112.851 144.669 112.801 144.369 112.801 144.019C112.801 143.569 112.801 143.169 112.801 142.719V142.819C112.801 142.369 112.851 141.969 112.901 141.519C112.951 141.069 112.251 140.769 111.951 140.619C111.701 140.469 111.401 140.369 111.101 140.319C110.901 140.419 110.551 140.369 110.551 140.519Z" fill="#38322D"/>
<path d="M109.551 144.218C109.851 144.168 110.151 144.168 110.451 144.118H110.551V144.268C110.501 144.618 110.501 144.968 110.551 145.318C110.601 145.668 110.751 145.968 110.951 146.218C111.151 146.468 111.451 146.618 111.751 146.718C112.051 146.818 112.401 146.868 112.751 146.818C113.151 146.818 113.551 146.818 113.951 146.718C114.351 146.618 114.651 146.468 114.951 146.168C115.051 146.018 115.151 145.868 115.201 145.668C115.251 145.468 115.301 145.268 115.351 145.068C115.451 144.618 115.551 144.218 115.651 143.768V143.668H115.751C116.151 143.718 116.501 143.718 116.901 143.768C116.501 143.818 116.151 143.868 115.751 143.868L115.851 143.768C115.801 144.218 115.801 144.668 115.751 145.118C115.751 145.368 115.701 145.568 115.651 145.818C115.601 146.068 115.501 146.318 115.301 146.518C114.951 146.918 114.501 147.168 114.051 147.268C113.601 147.368 113.101 147.418 112.651 147.418H112.701C112.301 147.418 111.901 147.368 111.501 147.218C111.101 147.068 110.751 146.818 110.501 146.468C110.251 146.118 110.151 145.718 110.151 145.268C110.151 144.868 110.201 144.468 110.301 144.118L110.401 144.218C110.201 144.268 109.851 144.268 109.551 144.218Z" fill="#38322D"/>
<path d="M110.55 144.92C110.9 144.87 111.25 144.82 111.6 144.82L109.55 143.37C109.45 143.87 109.5 144.32 109.6 144.82C109.75 145.32 110.1 145.82 110.55 146.12C111.15 146.67 111.85 147.12 112.65 147.47C113.1 147.62 113.55 147.67 114 147.62C115 147.62 116.15 147.37 116.4 146.27C116.55 145.72 116.6 145.22 116.75 144.67C116.8 144.47 116.75 144.42 117 144.47C117.35 144.47 117.65 144.52 118 144.57L116 143.12C115.6 143.17 115.25 143.22 114.85 143.22L116.9 144.67L117 144.57L115 143.12C114.95 143.62 114.95 144.17 114.85 144.67C114.8 145.12 114.65 145.57 114.35 145.92C113.75 146.62 112.65 146.77 111.8 146.72L113.7 148.17H113.75L111.85 146.72C111.5 146.72 111.1 146.67 110.8 146.57C110.1 146.32 111.2 146.37 111.65 147.27C111.6 147.12 111.45 147.02 111.4 146.87C111.15 146.22 111.15 145.57 111.4 144.92L109.4 143.52C109.5 143.67 109.45 143.57 109.3 143.57C109.15 143.57 108.85 143.52 108.65 143.52C108.5 143.52 108.7 143.67 108.7 143.67C108.85 143.87 109.05 144.02 109.25 144.17C109.5 144.37 109.75 144.57 110.05 144.72C110.2 144.82 110.35 144.92 110.55 144.97C110.85 145.02 111.15 145.02 111.5 145.07C111.55 145.07 111.55 145.07 111.55 145.02L111.45 144.92C111.15 144.57 110.8 144.27 110.4 144.02C110.35 143.97 109.45 143.42 109.45 143.52C109.05 144.52 109.35 145.67 110.15 146.42C111.2 147.37 112.45 148.22 113.9 148.27C114.1 148.27 113.35 147.67 113.3 147.62C113.05 147.42 112.8 147.22 112.5 147.07C112.35 146.97 112.15 146.82 112 146.82H111.95C111.75 146.82 112.5 147.42 112.55 147.47C112.8 147.67 113.05 147.87 113.35 148.02C113.5 148.12 113.65 148.22 113.85 148.27C114.8 148.37 115.7 148.12 116.45 147.52C116.8 147.17 116.95 146.77 117 146.27C117.05 145.72 117.1 145.17 117.15 144.62C117.15 144.52 116.95 144.37 116.9 144.32C116.7 144.12 116.45 143.92 116.2 143.77C115.95 143.57 115.7 143.42 115.45 143.27C115.4 143.22 115.15 143.07 115.1 143.12L115 143.22C114.95 143.27 116.7 144.72 117.05 144.67C117.4 144.62 117.8 144.62 118.2 144.57C118.25 144.57 117.9 144.22 117.95 144.27C117.75 144.12 117.6 143.97 117.4 143.82C117.2 143.67 116.95 143.52 116.75 143.37C116.6 143.27 116.45 143.17 116.25 143.12C115.85 143.07 115.45 143.02 115.05 143.02H115C114.85 143.67 114.75 144.32 114.55 144.97C114.35 145.72 113.6 146.02 112.9 146.17C112.55 146.22 112.2 146.22 111.85 146.22C111.65 146.22 111.45 146.22 111.25 146.17L111 146.12C110.3 145.97 112.45 147.47 112.1 146.97C111.75 146.37 111.65 145.67 111.75 144.97C111.75 144.87 111.55 144.72 111.5 144.67C111.3 144.47 111.05 144.27 110.8 144.12C110.55 143.97 110.3 143.77 110.05 143.62C109.95 143.52 109.8 143.52 109.7 143.47C109.35 143.52 109 143.52 108.65 143.57C108.6 143.57 108.95 143.92 108.9 143.87C109.1 144.07 109.35 144.27 109.6 144.42C109.85 144.57 110.1 144.77 110.35 144.92C110.35 144.87 110.45 144.92 110.55 144.92Z" fill="#38322D"/>
<path d="M111.551 148.27C111.751 148.17 111.951 148.12 112.151 148.07C112.351 148.02 112.551 148.02 112.751 148.02C112.951 148.02 113.151 148.02 113.351 148.07C113.551 148.12 113.751 148.17 113.951 148.27C113.751 148.37 113.601 148.47 113.351 148.52C113.151 148.57 112.951 148.62 112.751 148.62C112.551 148.62 112.351 148.62 112.151 148.57C111.901 148.47 111.701 148.37 111.551 148.27Z" fill="#38322D"/>
<path d="M112.1 149.369C112.25 149.319 112.35 149.269 112.5 149.219L112.3 149.269C112.6 149.169 112.95 149.119 113.3 149.169H113.05C113.3 149.169 113.55 149.219 113.75 149.319L113.5 149.219C113.6 149.269 113.65 149.269 113.75 149.319L113.3 147.119C113.15 147.219 113 147.319 112.8 147.369L113 147.319C112.7 147.419 112.4 147.419 112.1 147.419H112.35C112.15 147.419 111.9 147.369 111.7 147.269L111.95 147.369C111.85 147.319 111.8 147.319 111.7 147.269L111.95 147.419C111.9 147.419 111.9 147.369 111.85 147.369C111.65 147.169 111.4 147.069 111.15 147.119C110.9 147.169 110.7 147.319 110.6 147.519C110.5 147.769 110.5 148.069 110.6 148.369C110.7 148.669 110.85 148.969 111.1 149.169C111.6 149.569 112.25 149.819 112.95 149.769C113.2 149.769 113.4 149.719 113.65 149.669C113.95 149.619 114.2 149.519 114.45 149.369C114.6 149.269 114.7 149.169 114.75 149.019C114.85 148.819 114.85 148.569 114.8 148.319C114.7 147.869 114.45 147.419 114 147.169C113.05 146.669 111.9 146.669 110.95 147.119C110.75 147.269 110.6 147.469 110.6 147.719C110.55 148.019 110.65 148.369 110.8 148.619C111.05 149.119 111.55 149.619 112.1 149.369Z" fill="#38322D"/>
<path d="M112.8 147.168C112.9 147.218 113 147.318 113.05 147.418C113.1 147.518 113.1 147.618 113.1 147.668C113.1 147.768 113.1 147.868 113.05 147.918C113 148.018 112.9 148.118 112.8 148.168C112.7 148.118 112.6 148.018 112.55 147.918C112.5 147.818 112.5 147.718 112.5 147.668C112.5 147.568 112.5 147.468 112.55 147.418C112.6 147.318 112.7 147.218 112.8 147.168Z" fill="#38322D"/>
<path d="M111.7 147.369C111.75 147.419 111.8 147.419 111.8 147.469L111.7 147.369C111.75 147.419 111.8 147.519 111.85 147.619L111.8 147.469C111.85 147.619 111.85 147.719 111.8 147.869L111.85 147.719C111.8 147.819 111.75 147.919 111.65 148.019L111.8 147.919L111.75 147.969L113.9 148.069C113.85 148.019 113.8 148.019 113.8 147.969L113.9 148.069C113.85 147.969 113.75 147.919 113.75 147.819L113.8 147.969C113.75 147.819 113.75 147.719 113.8 147.569L113.75 147.719C113.8 147.619 113.85 147.519 113.95 147.419L113.8 147.519L113.85 147.469C113.95 147.419 114 147.369 114 147.269C114.05 147.219 114.05 147.119 114 147.069C113.95 146.969 113.85 146.919 113.8 146.869C113.7 146.819 113.6 146.769 113.45 146.719C113.15 146.619 112.8 146.619 112.5 146.619L112.2 146.669C112.05 146.669 111.9 146.769 111.75 146.819C111.6 146.919 111.5 147.019 111.4 147.169C111.35 147.269 111.3 147.319 111.3 147.419C111.3 147.469 111.25 147.519 111.25 147.619C111.25 147.669 111.25 147.719 111.3 147.819C111.3 147.919 111.35 148.019 111.4 148.069C111.5 148.219 111.6 148.319 111.75 148.419C111.9 148.519 112.05 148.569 112.2 148.619C112.4 148.669 112.6 148.719 112.85 148.719C113.05 148.719 113.25 148.719 113.5 148.669C113.65 148.669 113.8 148.569 113.95 148.519C114.1 148.419 114.2 148.319 114.3 148.169C114.35 148.069 114.4 147.969 114.4 147.919C114.4 147.869 114.45 147.819 114.45 147.719C114.45 147.669 114.45 147.619 114.4 147.519C114.4 147.419 114.35 147.319 114.3 147.269C114.2 147.119 114.1 147.019 113.95 146.919C113.85 146.869 113.75 146.819 113.65 146.769C113.5 146.719 113.35 146.669 113.25 146.669C113.1 146.619 112.9 146.619 112.75 146.669C112.6 146.669 112.45 146.669 112.3 146.719L112.05 146.769C111.9 146.819 111.8 146.869 111.7 146.969L111.65 147.119C111.55 147.219 111.65 147.319 111.7 147.369Z" fill="#38322D"/>
<path d="M120.401 144.319C120.251 143.869 120.151 143.419 120.051 142.919C120.001 142.669 120.051 142.369 120.151 142.119C120.201 142.069 120.301 141.969 120.401 141.969L120.601 141.919L120.951 141.869C121.851 141.669 122.801 141.569 123.751 141.469C124.201 141.419 124.701 141.419 125.151 141.469C125.401 141.469 125.651 141.519 125.901 141.569C126.051 141.619 126.151 141.669 126.301 141.719C126.451 141.819 126.601 141.969 126.601 142.169C126.601 143.119 126.551 144.069 126.401 144.969C126.351 144.019 126.301 143.119 126.201 142.219C126.201 142.219 126.001 142.069 125.801 142.069C125.601 142.019 125.351 142.019 125.151 142.019C124.701 142.019 124.251 142.019 123.801 142.069C122.901 142.119 121.951 142.219 121.051 142.319L120.701 142.369H120.551C120.501 142.369 120.501 142.369 120.501 142.369C120.401 142.519 120.351 142.719 120.401 142.919C120.301 143.369 120.351 143.819 120.401 144.319Z" fill="#38322D"/>
<path d="M121.551 143.868C121.401 143.518 121.351 143.168 121.251 142.768C121.201 142.618 121.201 142.468 121.201 142.318C121.151 142.418 121.151 142.418 121.201 142.368C121.201 142.318 121.251 142.268 121.251 142.218L120.901 142.718C120.801 142.768 120.701 142.868 120.601 142.918C120.651 142.918 120.701 142.918 120.701 142.868C120.851 142.818 120.301 142.968 120.501 142.918L120.651 142.868C120.951 142.818 121.251 142.768 121.551 142.668C121.951 142.618 122.401 142.518 122.851 142.518C123.051 142.518 123.251 142.468 123.451 142.468H123.751C123.751 142.468 124.101 142.468 123.951 142.468C124.351 142.468 124.751 142.468 125.151 142.518C125.401 142.568 125.151 142.518 125.351 142.568L125.451 142.618C125.551 142.668 125.551 142.668 125.501 142.618C125.451 142.568 125.451 142.568 125.501 142.618L125.451 142.518C125.501 142.618 125.501 142.618 125.451 142.518C125.401 142.418 125.401 142.368 125.401 142.468C125.401 142.718 125.401 142.918 125.401 143.168C125.401 143.368 125.351 143.568 125.351 143.768C125.301 144.218 125.251 144.668 125.201 145.118L127.501 144.518C127.451 143.918 127.451 143.318 127.401 142.768C127.401 142.468 127.351 142.168 127.351 141.918C127.301 141.568 127.051 141.268 126.751 141.168C126.201 140.968 125.651 140.918 125.051 140.968C124.401 140.968 123.751 141.018 123.151 141.068C122.301 141.118 121.501 141.218 120.651 141.368C119.851 141.518 119.251 142.168 119.201 142.968C119.151 143.568 119.201 144.168 119.301 144.818C119.351 145.418 120.201 145.518 120.651 145.318C121.151 145.018 121.551 144.468 121.551 143.868C121.501 143.568 121.451 143.268 121.451 143.018C121.451 142.868 121.451 142.768 121.451 142.618C121.451 142.568 121.451 142.518 121.451 142.418C121.451 142.518 121.401 142.568 121.351 142.668L120.901 143.118L120.601 143.268C120.351 143.318 120.301 143.368 120.401 143.318H120.501L120.701 143.268L121.501 143.168C122.301 143.068 123.101 143.018 123.901 142.968H124.051H124.251C124.451 142.968 124.601 142.968 124.801 142.968C124.951 142.968 125.151 142.968 125.301 143.018C125.201 143.018 125.201 143.018 125.251 143.018C125.301 143.018 125.301 143.018 125.101 142.868C124.801 142.568 124.901 142.718 124.951 142.918C125.001 143.718 125.051 144.518 125.101 145.318C125.151 145.868 125.901 145.968 126.301 145.868C126.851 145.718 127.301 145.268 127.401 144.718C127.501 144.068 127.551 143.418 127.601 142.768C127.651 142.118 127.701 141.268 127.051 140.818C126.451 140.468 125.751 140.318 125.051 140.318C124.351 140.318 123.701 140.318 123.001 140.418C122.001 140.468 121.051 140.668 120.051 140.918C119.251 141.168 118.701 141.918 118.701 142.718C118.701 143.368 118.851 143.968 119.051 144.618C119.251 145.118 119.851 145.368 120.351 145.118H120.401C121.051 145.068 121.751 144.468 121.551 143.868Z" fill="#38322D"/>
<path d="M120.201 146.02C120.301 146.37 120.401 146.72 120.551 147.07C120.601 147.22 120.701 147.37 120.801 147.52C120.851 147.57 120.851 147.57 120.851 147.57H121.151L123.401 147.52C124.151 147.52 124.901 147.47 125.601 147.42C125.801 147.42 125.951 147.37 126.151 147.32C126.201 147.32 126.301 147.27 126.351 147.27C126.401 147.22 126.451 147.17 126.501 147.07C126.601 146.72 126.601 146.37 126.451 146.02C126.701 146.37 126.801 146.77 126.701 147.17C126.651 147.27 126.601 147.37 126.551 147.47C126.451 147.57 126.351 147.62 126.251 147.67C126.051 147.72 125.851 147.82 125.701 147.82C124.951 147.97 124.201 148.02 123.451 148.07C122.701 148.12 121.951 148.07 121.201 148.02C121.101 148.02 121.001 148.02 120.901 147.97H120.801C120.751 147.97 120.701 147.92 120.701 147.92C120.651 147.87 120.601 147.82 120.551 147.77C120.451 147.57 120.401 147.42 120.351 147.22C120.201 146.77 120.201 146.42 120.201 146.02Z" fill="#38322D"/>
<path d="M119.201 145.269C119.301 145.869 119.551 146.419 119.851 146.919C120.251 147.369 120.701 147.769 121.201 148.119C121.401 148.269 121.701 148.369 121.951 148.369C122.451 148.369 122.951 148.369 123.401 148.319C124.051 148.319 124.701 148.269 125.351 148.269C125.701 148.269 126.001 148.219 126.351 148.219C126.601 148.219 126.901 148.169 127.151 148.119C127.651 147.919 127.451 147.169 127.351 146.769L125.401 145.369C125.701 145.819 125.901 146.569 125.301 146.919C124.701 147.169 124.101 147.269 123.451 147.269C122.801 147.319 122.201 147.319 121.551 147.319C121.201 147.319 120.901 147.319 120.551 147.269L120.101 147.219C120.001 147.219 119.751 147.119 120.001 147.269L121.201 148.169C121.551 148.519 121.351 148.269 121.301 148.069C121.251 147.969 121.251 147.869 121.251 147.769C121.201 147.469 121.151 147.169 121.151 146.819C121.151 146.669 121.001 146.569 120.951 146.469C120.751 146.269 120.501 146.069 120.301 145.869C120.051 145.669 119.851 145.519 119.601 145.369C119.551 145.369 119.251 145.169 119.251 145.269C119.251 145.719 119.301 146.219 119.401 146.669C119.601 147.369 120.251 147.869 120.801 148.269C121.201 148.569 121.701 148.769 122.201 148.819C122.701 148.869 123.201 148.869 123.701 148.869C124.701 148.869 125.701 148.819 126.651 148.619C127.051 148.519 127.501 148.419 127.651 148.019C127.751 147.569 127.651 147.119 127.401 146.769C127.101 146.369 126.701 145.969 126.301 145.719C126.101 145.569 125.901 145.419 125.651 145.319C125.601 145.319 125.451 145.219 125.451 145.369C125.551 145.719 125.701 146.269 125.351 146.519C125.201 146.619 125.001 146.669 124.801 146.669C124.551 146.719 124.301 146.719 124.101 146.719C123.501 146.769 122.851 146.769 122.251 146.769L120.851 146.819H120.351C120.201 146.819 120.051 146.819 119.901 146.819L121.001 147.469L121.651 148.069C121.801 148.219 121.601 147.919 121.601 147.819C121.601 147.719 121.501 147.619 121.501 147.519C121.401 147.269 121.351 147.019 121.251 146.769C121.151 146.619 121.001 146.469 120.851 146.319C120.601 146.119 120.351 145.919 120.101 145.719C119.901 145.569 119.701 145.419 119.451 145.319C119.351 145.219 119.201 145.169 119.201 145.269Z" fill="#38322D"/>
<path d="M123.5 143.268C123.5 143.268 121.75 143.568 121.85 144.968C121.95 146.368 123.75 146.518 124.55 144.968C125.35 143.418 124.05 143.068 123.5 143.268Z" fill="#38322D"/>
<path d="M122.8 142.27C122.35 142.32 121.9 142.52 121.55 142.82C121.25 143.07 121.05 143.37 121 143.77C120.95 144.37 121.1 144.97 121.45 145.47C121.75 145.97 122.15 146.42 122.65 146.77C122.85 146.92 123.1 147.02 123.35 147.07C123.7 147.17 124.1 147.12 124.45 146.92C124.85 146.72 125.15 146.37 125.35 145.97C125.6 145.57 125.7 145.02 125.6 144.57C125.4 144.02 125.1 143.47 124.65 143.07C124.4 142.77 124.05 142.57 123.7 142.37C123.4 142.22 123 142.22 122.65 142.32C122.5 142.37 122.7 142.77 122.7 142.77C122.85 143.07 123 143.32 123.2 143.52C123.4 143.77 123.6 143.97 123.85 144.12L124.05 144.22C124.15 144.27 124.25 144.27 124.3 144.22H124.2C124.4 144.17 124.6 144.17 124.8 144.22L124.65 144.17C124.7 144.17 124.8 144.22 124.85 144.22C124.95 144.27 124.65 144.07 124.75 144.17C124.85 144.27 124.6 144.02 124.6 144.07C124.6 144.12 124.75 144.22 124.45 143.92C124.55 144.02 124.2 143.62 124.25 143.72C124.3 143.82 124 143.37 124.1 143.52C124.1 143.52 123.9 143.22 124 143.32C124.1 143.42 123.85 143.02 123.9 143.17C123.95 143.32 123.85 142.92 123.9 143.12C123.9 143.17 123.9 143.22 123.9 143.27V143.12C123.9 143.42 123.8 143.77 123.65 144.02L123.7 143.92C123.45 144.47 123 144.87 122.5 145.02L122.6 144.97C122.4 145.02 122.15 145.02 121.9 144.97L122.05 145.02H122C122 145.02 121.95 145.02 121.95 144.97C121.85 144.92 122.15 145.07 122.05 145.02L122 144.97L122.15 145.07C122.05 144.97 122.4 145.32 122.3 145.22C122.35 145.27 122.5 145.42 122.55 145.52L122.6 145.57C122.85 145.92 122.75 145.82 122.7 145.72C122.9 146.02 122.8 145.92 122.75 145.87C122.75 145.87 122.75 145.82 122.7 145.82C122.75 145.92 122.8 146.07 122.7 145.82C122.65 145.72 122.7 145.72 122.7 145.62V145.77C122.7 145.52 122.7 145.27 122.8 145.07L122.75 145.17C123.05 144.67 123.5 144.32 124.05 144.22H123.95L124.15 144.17C124.55 144.12 124.05 143.37 123.95 143.22C123.75 142.97 123.55 142.72 123.3 142.52L123.1 142.37C123.05 142.32 122.95 142.27 122.8 142.27Z" fill="#38322D"/>
<path d="M65.5001 140.569C65.9001 141.819 66.3001 143.119 66.2001 144.419C66.1501 144.969 66.0001 145.469 65.7501 145.919C65.6501 146.119 65.5001 146.319 65.3501 146.469C65.3001 146.519 65.0501 146.669 65.2001 146.619C65.0501 146.669 64.8501 146.669 64.7001 146.569C64.4001 146.369 64.3001 146.019 64.4501 145.719C64.7501 144.819 66.1001 144.219 66.8501 143.819C68.5501 142.769 71.1501 141.919 72.5001 143.969C72.8001 144.369 72.9501 144.869 72.9501 145.319C72.9501 145.519 72.9001 145.769 72.8501 145.969C72.8001 146.069 72.7501 146.119 72.7001 146.219L72.6502 146.319C72.8002 146.169 73.0501 146.119 73.2501 146.269C73.2501 146.319 73.1502 146.019 73.1502 145.969C73.1502 145.819 73.1501 145.619 73.2001 145.469C73.3001 145.019 73.6001 144.669 73.9501 144.419C74.7501 143.819 75.8002 143.769 76.6502 144.219C77.1502 144.469 77.5502 144.869 77.9002 145.319C78.1002 145.569 78.2502 145.869 78.3002 146.219C78.3002 146.369 78.3002 146.469 78.3002 146.619C78.3502 146.919 77.7501 146.669 78.7001 146.619L79.5001 146.819C78.6501 146.219 81.8501 144.619 82.2501 144.469C83.6501 143.869 85.1501 143.569 86.7001 143.519C87.2001 143.519 88.0001 143.219 88.1001 142.669C88.2001 142.119 87.4502 141.919 87.0502 141.919C84.5002 141.969 82.0502 142.619 79.8002 143.919C78.8502 144.419 77.6502 145.119 77.1502 146.119C76.9002 146.569 76.9002 147.119 77.1502 147.619C77.5502 148.219 78.2502 148.469 78.9002 148.219C80.1002 148.069 80.9501 146.919 80.7501 145.719C80.4501 144.669 79.7502 143.769 78.8002 143.169C76.6502 141.919 73.9501 142.119 72.0001 143.769C71.2001 144.369 70.7001 145.269 70.7001 146.269C70.7501 147.419 71.7502 148.019 72.8002 147.919C74.0502 147.819 75.1001 146.919 75.3501 145.719C75.5501 144.669 75.2502 143.619 74.5502 142.819C72.9002 140.819 70.0001 140.869 67.7501 141.669C66.5501 142.119 65.4002 142.769 64.3002 143.469C63.4002 144.069 62.3501 144.769 62.0501 145.819C61.7501 146.819 62.3501 147.869 63.3501 148.169C63.4001 148.169 63.4002 148.169 63.4502 148.169C64.6002 148.519 65.8002 148.319 66.8002 147.669C69.4002 145.969 68.8001 142.619 68.0001 140.119C67.6501 139.019 65.2001 139.569 65.5001 140.569Z" fill="#38322D"/>
</g>
</svg>
